<ttFont>
<head>
    <!-- Most of this table will be recalculated by the compiler -->
    <tableVersion value="1.0"/>
    <fontRevision value="4.01999"/>
    <checkSumAdjustment value="0x40969961"/>
    <magicNumber value="0x5f0f3cf5"/>
    <flags value="00000000 00011111"/>
    <unitsPerEm value="2048"/>
    <created value="Wed Nov 16 00:08:37 2016"/>
    <modified value="Sat Aug 19 05:13:00 2017"/>
    <xMin value="-772"/>
    <yMin value="-457"/>
    <xMax value="2365"/>
    <yMax value="2357"/>
    <macStyle value="00000000 00000000"/>
    <lowestRecPPEM value="8"/>
    <fontDirectionHint value="2"/>
    <indexToLocFormat value="1"/>
    <glyphDataFormat value="0"/>
  </head>
    <TTGlyph name=".notdef" xMin="102" yMin="0" xMax="1143" yMax="1454">
      <contour>
        <pt x="1106" y="1454" on="1"/>
        <pt x="1143" y="1454" on="0"/>
        <pt x="1143" y="1411" on="1"/>
        <pt x="1143" y="59" on="1"/>
        <pt x="1143" y="27" on="0"/>
        <pt x="1111" y="0" on="0"/>
        <pt x="1075" y="0" on="1"/>
        <pt x="158" y="0" on="1"/>
        <pt x="127" y="0" on="0"/>
        <pt x="102" y="24" on="0"/>
        <pt x="102" y="51" on="1"/>
        <pt x="102" y="1407" on="1"/>
        <pt x="102" y="1454" on="0"/>
        <pt x="141" y="1454" on="1"/>
      </contour>
      <contour>
        <pt x="1036" y="1315" on="1"/>
        <pt x="1036" y="1352" on="0"/>
        <pt x="1006" y="1352" on="1"/>
        <pt x="299" y="1352" on="1"/>
        <pt x="1036" y="172" on="1"/>
      </contour>
      <contour>
        <pt x="209" y="145" on="1"/>
        <pt x="209" y="122" on="0"/>
        <pt x="229" y="102" on="0"/>
        <pt x="256" y="102" on="1"/>
        <pt x="950" y="102" on="1"/>
        <pt x="209" y="1270" on="1"/>
      </contour>
    </TTGlyph>
    <TTGlyph name="A" xMin="37" yMin="0" xMax="1341" yMax="1454">
      <contour>
        <pt x="672" y="1454" on="1"/>
        <pt x="709" y="1454" on="1"/>
        <pt x="1341" y="0" on="1"/>
        <pt x="1296" y="0" on="1"/>
        <pt x="1069" y="520" on="1"/>
        <pt x="309" y="520" on="1"/>
        <pt x="82" y="0" on="1"/>
        <pt x="37" y="0" on="1"/>
      </contour>
      <contour>
        <pt x="1051" y="561" on="1"/>
        <pt x="690" y="1395" on="1"/>
        <pt x="326" y="561" on="1"/>
      </contour>
    </TTGlyph>
    <TTGlyph name="AE" xMin="-59" yMin="0" xMax="1864" yMax="1454">
      <contour>
        <pt x="899" y="1454" on="1"/>
        <pt x="1845" y="1454" on="1"/>
        <pt x="1845" y="1413" on="1"/>
        <pt x="950" y="1413" on="1"/>
        <pt x="950" y="764" on="1"/>
        <pt x="1735" y="764" on="1"/>
        <pt x="1735" y="723" on="1"/>
        <pt x="950" y="723" on="1"/>
        <pt x="950" y="41" on="1"/>
        <pt x="1864" y="41" on="1"/>
        <pt x="1864" y="0" on="1"/>
        <pt x="909" y="0" on="1"/>
        <pt x="909" y="520" on="1"/>
        <pt x="334" y="520" on="1"/>
        <pt x="-8" y="0" on="1"/>
        <pt x="-59" y="0" on="1"/>
      </contour>
      <contour>
        <pt x="909" y="561" on="1"/>
        <pt x="909" y="1389" on="1"/>
        <pt x="358" y="561" on="1"/>
      </contour>
    </TTGlyph>
    <TTGlyph name="AEacute" xMin="-59" yMin="0" xMax="1864" yMax="1880">
      <contour>
        <pt x="1126" y="1706" on="1"/>
        <pt x="1094" y="1731" on="1"/>
        <pt x="1225" y="1880" on="1"/>
        <pt x="1294" y="1880" on="1"/>
      </contour>
      <contour>
        <pt x="899" y="1454" on="1"/>
        <pt x="1845" y="1454" on="1"/>
        <pt x="1845" y="1413" on="1"/>
        <pt x="950" y="1413" on="1"/>
        <pt x="950" y="764" on="1"/>
        <pt x="1735" y="764" on="1"/>
        <pt x="1735" y="723" on="1"/>
        <pt x="950" y="723" on="1"/>
        <pt x="950" y="41" on="1"/>
        <pt x="1864" y="41" on="1"/>
        <pt x="1864" y="0" on="1"/>
        <pt x="909" y="0" on="1"/>
        <pt x="909" y="520" on="1"/>
        <pt x="334" y="520" on="1"/>
        <pt x="-8" y="0" on="1"/>
        <pt x="-59" y="0" on="1"/>
      </contour>
      <contour>
        <pt x="909" y="561" on="1"/>
        <pt x="909" y="1389" on="1"/>
        <pt x="358" y="561" on="1"/>
      </contour>
    </TTGlyph>
    <TTGlyph name="Aacute" xMin="37" yMin="0" xMax="1341" yMax="1880">
      <contour>
        <pt x="702" y="1706" on="1"/>
        <pt x="670" y="1731" on="1"/>
        <pt x="801" y="1880" on="1"/>
        <pt x="870" y="1880" on="1"/>
      </contour>
      <contour>
        <pt x="672" y="1454" on="1"/>
        <pt x="709" y="1454" on="1"/>
        <pt x="1341" y="0" on="1"/>
        <pt x="1296" y="0" on="1"/>
        <pt x="1069" y="520" on="1"/>
        <pt x="309" y="520" on="1"/>
        <pt x="82" y="0" on="1"/>
        <pt x="37" y="0" on="1"/>
      </contour>
      <contour>
        <pt x="1051" y="561" on="1"/>
        <pt x="690" y="1395" on="1"/>
        <pt x="326" y="561" on="1"/>
      </contour>
    </TTGlyph>
    <TTGlyph name="Abreve" xMin="37" yMin="0" xMax="1341" yMax="1880">
      <contour>
        <pt x="805" y="1880" on="1"/>
        <pt x="842" y="1880" on="1"/>
        <pt x="842" y="1817" on="0"/>
        <pt x="750" y="1722" on="0"/>
        <pt x="630" y="1722" on="0"/>
        <pt x="539" y="1817" on="0"/>
        <pt x="539" y="1880" on="1"/>
        <pt x="578" y="1880" on="1"/>
        <pt x="578" y="1834" on="0"/>
        <pt x="647" y="1757" on="0"/>
        <pt x="690" y="1757" on="1"/>
        <pt x="731" y="1757" on="0"/>
        <pt x="799" y="1829" on="0"/>
      </contour>
      <contour>
        <pt x="672" y="1454" on="1"/>
        <pt x="709" y="1454" on="1"/>
        <pt x="1341" y="0" on="1"/>
        <pt x="1296" y="0" on="1"/>
        <pt x="1069" y="520" on="1"/>
        <pt x="309" y="520" on="1"/>
        <pt x="82" y="0" on="1"/>
        <pt x="37" y="0" on="1"/>
      </contour>
      <contour>
        <pt x="1051" y="561" on="1"/>
        <pt x="690" y="1395" on="1"/>
        <pt x="326" y="561" on="1"/>
      </contour>
    </TTGlyph>
    <TTGlyph name="Abreveacute" xMin="37" yMin="0" xMax="1341" yMax="1942">
      <contour>
        <pt x="676" y="1767" on="1"/>
        <pt x="643" y="1792" on="1"/>
        <pt x="774" y="1942" on="1"/>
        <pt x="844" y="1942" on="1"/>
      </contour>
      <contour>
        <pt x="784" y="1765" on="1"/>
        <pt x="821" y="1765" on="1"/>
        <pt x="821" y="1702" on="0"/>
        <pt x="730" y="1608" on="0"/>
        <pt x="610" y="1608" on="0"/>
        <pt x="518" y="1702" on="0"/>
        <pt x="518" y="1765" on="1"/>
        <pt x="557" y="1765" on="1"/>
        <pt x="557" y="1719" on="0"/>
        <pt x="627" y="1642" on="0"/>
        <pt x="670" y="1642" on="1"/>
        <pt x="711" y="1642" on="0"/>
        <pt x="778" y="1714" on="0"/>
      </contour>
      <contour>
        <pt x="672" y="1454" on="1"/>
        <pt x="709" y="1454" on="1"/>
        <pt x="1341" y="0" on="1"/>
        <pt x="1296" y="0" on="1"/>
        <pt x="1069" y="520" on="1"/>
        <pt x="309" y="520" on="1"/>
        <pt x="82" y="0" on="1"/>
        <pt x="37" y="0" on="1"/>
      </contour>
      <contour>
        <pt x="1051" y="561" on="1"/>
        <pt x="690" y="1395" on="1"/>
        <pt x="326" y="561" on="1"/>
      </contour>
    </TTGlyph>
    <TTGlyph name="Abrevecyrillic" xMin="37" yMin="0" xMax="1341" yMax="1788">
      <contour>
        <pt x="690" y="1663" on="1"/>
        <pt x="577" y="1663" on="0"/>
        <pt x="469" y="1734" on="0"/>
        <pt x="469" y="1788" on="1"/>
        <pt x="504" y="1788" on="1"/>
        <pt x="504" y="1750" on="0"/>
        <pt x="594" y="1696" on="0"/>
        <pt x="690" y="1696" on="1"/>
        <pt x="784" y="1696" on="0"/>
        <pt x="863" y="1743" on="0"/>
        <pt x="877" y="1788" on="1"/>
        <pt x="909" y="1788" on="1"/>
        <pt x="909" y="1734" on="0"/>
        <pt x="801" y="1663" on="0"/>
      </contour>
      <contour>
        <pt x="672" y="1454" on="1"/>
        <pt x="709" y="1454" on="1"/>
        <pt x="1341" y="0" on="1"/>
        <pt x="1296" y="0" on="1"/>
        <pt x="1069" y="520" on="1"/>
        <pt x="309" y="520" on="1"/>
        <pt x="82" y="0" on="1"/>
        <pt x="37" y="0" on="1"/>
      </contour>
      <contour>
        <pt x="1051" y="561" on="1"/>
        <pt x="690" y="1395" on="1"/>
        <pt x="326" y="561" on="1"/>
      </contour>
    </TTGlyph>
    <TTGlyph name="Abrevedotbelow" xMin="37" yMin="-260" xMax="1341" yMax="1880">
      <contour>
        <pt x="805" y="1880" on="1"/>
        <pt x="842" y="1880" on="1"/>
        <pt x="842" y="1817" on="0"/>
        <pt x="750" y="1722" on="0"/>
        <pt x="630" y="1722" on="0"/>
        <pt x="539" y="1817" on="0"/>
        <pt x="539" y="1880" on="1"/>
        <pt x="578" y="1880" on="1"/>
        <pt x="578" y="1834" on="0"/>
        <pt x="647" y="1757" on="0"/>
        <pt x="690" y="1757" on="1"/>
        <pt x="731" y="1757" on="0"/>
        <pt x="799" y="1829" on="0"/>
      </contour>
      <contour>
        <pt x="672" y="1454" on="1"/>
        <pt x="709" y="1454" on="1"/>
        <pt x="1341" y="0" on="1"/>
        <pt x="1296" y="0" on="1"/>
        <pt x="1069" y="520" on="1"/>
        <pt x="309" y="520" on="1"/>
        <pt x="82" y="0" on="1"/>
        <pt x="37" y="0" on="1"/>
      </contour>
      <contour>
        <pt x="1051" y="561" on="1"/>
        <pt x="690" y="1395" on="1"/>
        <pt x="326" y="561" on="1"/>
      </contour>
      <contour>
        <pt x="690" y="-260" on="1"/>
        <pt x="690" y="-102" on="1"/>
        <pt x="731" y="-102" on="1"/>
        <pt x="731" y="-260" on="1"/>
      </contour>
    </TTGlyph>
    <TTGlyph name="Abrevegrave" xMin="37" yMin="0" xMax="1341" yMax="1956">
      <contour>
        <pt x="526" y="1956" on="1"/>
        <pt x="594" y="1956" on="1"/>
        <pt x="727" y="1806" on="1"/>
        <pt x="694" y="1782" on="1"/>
      </contour>
      <contour>
        <pt x="803" y="1763" on="1"/>
        <pt x="840" y="1763" on="1"/>
        <pt x="840" y="1700" on="0"/>
        <pt x="748" y="1606" on="0"/>
        <pt x="628" y="1606" on="0"/>
        <pt x="537" y="1700" on="0"/>
        <pt x="537" y="1763" on="1"/>
        <pt x="575" y="1763" on="1"/>
        <pt x="575" y="1717" on="0"/>
        <pt x="645" y="1640" on="0"/>
        <pt x="688" y="1640" on="1"/>
        <pt x="729" y="1640" on="0"/>
        <pt x="797" y="1712" on="0"/>
      </contour>
      <contour>
        <pt x="672" y="1454" on="1"/>
        <pt x="709" y="1454" on="1"/>
        <pt x="1341" y="0" on="1"/>
        <pt x="1296" y="0" on="1"/>
        <pt x="1069" y="520" on="1"/>
        <pt x="309" y="520" on="1"/>
        <pt x="82" y="0" on="1"/>
        <pt x="37" y="0" on="1"/>
      </contour>
      <contour>
        <pt x="1051" y="561" on="1"/>
        <pt x="690" y="1395" on="1"/>
        <pt x="326" y="561" on="1"/>
      </contour>
    </TTGlyph>
    <TTGlyph name="Abrevehookabove" xMin="37" yMin="0" xMax="1341" yMax="2030">
      <contour>
        <pt x="559" y="1942" on="1"/>
        <pt x="535" y="1968" on="1"/>
        <pt x="572" y="2001" on="0"/>
        <pt x="625" y="2030" on="0"/>
        <pt x="662" y="2030" on="1"/>
        <pt x="713" y="2030" on="0"/>
        <pt x="778" y="1967" on="0"/>
        <pt x="778" y="1913" on="1"/>
        <pt x="778" y="1902" on="0"/>
        <pt x="775" y="1882" on="0"/>
        <pt x="765" y="1861" on="0"/>
        <pt x="757" y="1847" on="0"/>
        <pt x="738" y="1823" on="0"/>
        <pt x="728" y="1812" on="0"/>
        <pt x="702" y="1782" on="0"/>
        <pt x="696" y="1776" on="1"/>
        <pt x="672" y="1798" on="1"/>
        <pt x="709" y="1840" on="0"/>
        <pt x="741" y="1890" on="0"/>
        <pt x="741" y="1913" on="1"/>
        <pt x="741" y="1948" on="0"/>
        <pt x="699" y="1993" on="0"/>
        <pt x="657" y="1993" on="1"/>
        <pt x="631" y="1993" on="0"/>
        <pt x="594" y="1972" on="0"/>
      </contour>
      <contour>
        <pt x="786" y="1765" on="1"/>
        <pt x="823" y="1765" on="1"/>
        <pt x="823" y="1702" on="0"/>
        <pt x="732" y="1608" on="0"/>
        <pt x="612" y="1608" on="0"/>
        <pt x="520" y="1702" on="0"/>
        <pt x="520" y="1765" on="1"/>
        <pt x="559" y="1765" on="1"/>
        <pt x="559" y="1719" on="0"/>
        <pt x="629" y="1642" on="0"/>
        <pt x="672" y="1642" on="1"/>
        <pt x="713" y="1642" on="0"/>
        <pt x="780" y="1714" on="0"/>
      </contour>
      <contour>
        <pt x="672" y="1454" on="1"/>
        <pt x="709" y="1454" on="1"/>
        <pt x="1341" y="0" on="1"/>
        <pt x="1296" y="0" on="1"/>
        <pt x="1069" y="520" on="1"/>
        <pt x="309" y="520" on="1"/>
        <pt x="82" y="0" on="1"/>
        <pt x="37" y="0" on="1"/>
      </contour>
      <contour>
        <pt x="1051" y="561" on="1"/>
        <pt x="690" y="1395" on="1"/>
        <pt x="326" y="561" on="1"/>
      </contour>
    </TTGlyph>
    <TTGlyph name="Abrevetilde" xMin="37" yMin="0" xMax="1341" yMax="1982">
      <contour>
        <pt x="547" y="1923" on="1"/>
        <pt x="517" y="1923" on="0"/>
        <pt x="471" y="1897" on="0"/>
        <pt x="451" y="1859" on="0"/>
        <pt x="442" y="1832" on="0"/>
        <pt x="442" y="1825" on="1"/>
        <pt x="401" y="1825" on="1"/>
        <pt x="401" y="1832" on="0"/>
        <pt x="406" y="1857" on="0"/>
        <pt x="425" y="1900" on="0"/>
        <pt x="455" y="1935" on="0"/>
        <pt x="513" y="1962" on="0"/>
        <pt x="551" y="1962" on="1"/>
        <pt x="604" y="1962" on="0"/>
        <pt x="755" y="1884" on="0"/>
        <pt x="807" y="1884" on="1"/>
        <pt x="839" y="1884" on="0"/>
        <pt x="887" y="1903" on="0"/>
        <pt x="910" y="1929" on="0"/>
        <pt x="925" y="1960" on="0"/>
        <pt x="928" y="1977" on="0"/>
        <pt x="928" y="1982" on="1"/>
        <pt x="969" y="1982" on="1"/>
        <pt x="969" y="1974" on="0"/>
        <pt x="964" y="1948" on="0"/>
        <pt x="943" y="1905" on="0"/>
        <pt x="910" y="1871" on="0"/>
        <pt x="845" y="1845" on="0"/>
        <pt x="803" y="1845" on="1"/>
        <pt x="752" y="1845" on="0"/>
        <pt x="659" y="1884" on="0"/>
        <pt x="581" y="1923" on="0"/>
      </contour>
      <contour>
        <pt x="780" y="1765" on="1"/>
        <pt x="817" y="1765" on="1"/>
        <pt x="817" y="1702" on="0"/>
        <pt x="726" y="1608" on="0"/>
        <pt x="606" y="1608" on="0"/>
        <pt x="514" y="1702" on="0"/>
        <pt x="514" y="1765" on="1"/>
        <pt x="553" y="1765" on="1"/>
        <pt x="553" y="1719" on="0"/>
        <pt x="623" y="1642" on="0"/>
        <pt x="666" y="1642" on="1"/>
        <pt x="707" y="1642" on="0"/>
        <pt x="774" y="1714" on="0"/>
      </contour>
      <contour>
        <pt x="672" y="1454" on="1"/>
        <pt x="709" y="1454" on="1"/>
        <pt x="1341" y="0" on="1"/>
        <pt x="1296" y="0" on="1"/>
        <pt x="1069" y="520" on="1"/>
        <pt x="309" y="520" on="1"/>
        <pt x="82" y="0" on="1"/>
        <pt x="37" y="0" on="1"/>
      </contour>
      <contour>
        <pt x="1051" y="561" on="1"/>
        <pt x="690" y="1395" on="1"/>
        <pt x="326" y="561" on="1"/>
      </contour>
    </TTGlyph>
    <TTGlyph name="Acircumflex" xMin="37" yMin="0" xMax="1341" yMax="1880">
      <contour>
        <pt x="483" y="1729" on="1"/>
        <pt x="674" y="1880" on="1"/>
        <pt x="707" y="1880" on="1"/>
        <pt x="897" y="1729" on="1"/>
        <pt x="864" y="1704" on="1"/>
        <pt x="690" y="1833" on="1"/>
        <pt x="516" y="1704" on="1"/>
      </contour>
      <contour>
        <pt x="672" y="1454" on="1"/>
        <pt x="709" y="1454" on="1"/>
        <pt x="1341" y="0" on="1"/>
        <pt x="1296" y="0" on="1"/>
        <pt x="1069" y="520" on="1"/>
        <pt x="309" y="520" on="1"/>
        <pt x="82" y="0" on="1"/>
        <pt x="37" y="0" on="1"/>
      </contour>
      <contour>
        <pt x="1051" y="561" on="1"/>
        <pt x="690" y="1395" on="1"/>
        <pt x="326" y="561" on="1"/>
      </contour>
    </TTGlyph>
    <TTGlyph name="Acircumflexacute" xMin="37" yMin="0" xMax="1341" yMax="1874">
      <contour>
        <pt x="885" y="1700" on="1"/>
        <pt x="852" y="1724" on="1"/>
        <pt x="983" y="1874" on="1"/>
        <pt x="1053" y="1874" on="1"/>
      </contour>
      <contour>
        <pt x="477" y="1632" on="1"/>
        <pt x="668" y="1784" on="1"/>
        <pt x="700" y="1784" on="1"/>
        <pt x="891" y="1632" on="1"/>
        <pt x="858" y="1608" on="1"/>
        <pt x="684" y="1737" on="1"/>
        <pt x="510" y="1608" on="1"/>
      </contour>
      <contour>
        <pt x="672" y="1454" on="1"/>
        <pt x="709" y="1454" on="1"/>
        <pt x="1341" y="0" on="1"/>
        <pt x="1296" y="0" on="1"/>
        <pt x="1069" y="520" on="1"/>
        <pt x="309" y="520" on="1"/>
        <pt x="82" y="0" on="1"/>
        <pt x="37" y="0" on="1"/>
      </contour>
      <contour>
        <pt x="1051" y="561" on="1"/>
        <pt x="690" y="1395" on="1"/>
        <pt x="326" y="561" on="1"/>
      </contour>
    </TTGlyph>
    <TTGlyph name="Acircumflexdotbelow" xMin="37" yMin="-260" xMax="1341" yMax="1880">
      <contour>
        <pt x="483" y="1729" on="1"/>
        <pt x="674" y="1880" on="1"/>
        <pt x="707" y="1880" on="1"/>
        <pt x="897" y="1729" on="1"/>
        <pt x="864" y="1704" on="1"/>
        <pt x="690" y="1833" on="1"/>
        <pt x="516" y="1704" on="1"/>
      </contour>
      <contour>
        <pt x="672" y="1454" on="1"/>
        <pt x="709" y="1454" on="1"/>
        <pt x="1341" y="0" on="1"/>
        <pt x="1296" y="0" on="1"/>
        <pt x="1069" y="520" on="1"/>
        <pt x="309" y="520" on="1"/>
        <pt x="82" y="0" on="1"/>
        <pt x="37" y="0" on="1"/>
      </contour>
      <contour>
        <pt x="1051" y="561" on="1"/>
        <pt x="690" y="1395" on="1"/>
        <pt x="326" y="561" on="1"/>
      </contour>
      <contour>
        <pt x="690" y="-260" on="1"/>
        <pt x="690" y="-102" on="1"/>
        <pt x="731" y="-102" on="1"/>
        <pt x="731" y="-260" on="1"/>
      </contour>
    </TTGlyph>
    <TTGlyph name="Acircumflexgrave" xMin="37" yMin="0" xMax="1341" yMax="1907">
      <contour>
        <pt x="317" y="1907" on="1"/>
        <pt x="385" y="1907" on="1"/>
        <pt x="518" y="1757" on="1"/>
        <pt x="485" y="1733" on="1"/>
      </contour>
      <contour>
        <pt x="475" y="1632" on="1"/>
        <pt x="666" y="1784" on="1"/>
        <pt x="698" y="1784" on="1"/>
        <pt x="889" y="1632" on="1"/>
        <pt x="856" y="1608" on="1"/>
        <pt x="682" y="1737" on="1"/>
        <pt x="508" y="1608" on="1"/>
      </contour>
      <contour>
        <pt x="672" y="1454" on="1"/>
        <pt x="709" y="1454" on="1"/>
        <pt x="1341" y="0" on="1"/>
        <pt x="1296" y="0" on="1"/>
        <pt x="1069" y="520" on="1"/>
        <pt x="309" y="520" on="1"/>
        <pt x="82" y="0" on="1"/>
        <pt x="37" y="0" on="1"/>
      </contour>
      <contour>
        <pt x="1051" y="561" on="1"/>
        <pt x="690" y="1395" on="1"/>
        <pt x="326" y="561" on="1"/>
      </contour>
    </TTGlyph>
    <TTGlyph name="Acircumflexhookabove" xMin="37" yMin="0" xMax="1341" yMax="1989">
      <contour>
        <pt x="741" y="1901" on="1"/>
        <pt x="717" y="1927" on="1"/>
        <pt x="754" y="1960" on="0"/>
        <pt x="807" y="1989" on="0"/>
        <pt x="844" y="1989" on="1"/>
        <pt x="895" y="1989" on="0"/>
        <pt x="961" y="1926" on="0"/>
        <pt x="961" y="1872" on="1"/>
        <pt x="961" y="1861" on="0"/>
        <pt x="958" y="1841" on="0"/>
        <pt x="948" y="1820" on="0"/>
        <pt x="940" y="1806" on="0"/>
        <pt x="921" y="1782" on="0"/>
        <pt x="911" y="1771" on="0"/>
        <pt x="885" y="1741" on="0"/>
        <pt x="879" y="1735" on="1"/>
        <pt x="854" y="1757" on="1"/>
        <pt x="892" y="1800" on="0"/>
        <pt x="924" y="1849" on="0"/>
        <pt x="924" y="1872" on="1"/>
        <pt x="924" y="1907" on="0"/>
        <pt x="882" y="1952" on="0"/>
        <pt x="840" y="1952" on="1"/>
        <pt x="814" y="1952" on="0"/>
        <pt x="775" y="1930" on="0"/>
      </contour>
      <contour>
        <pt x="473" y="1632" on="1"/>
        <pt x="664" y="1784" on="1"/>
        <pt x="696" y="1784" on="1"/>
        <pt x="887" y="1632" on="1"/>
        <pt x="854" y="1608" on="1"/>
        <pt x="680" y="1737" on="1"/>
        <pt x="506" y="1608" on="1"/>
      </contour>
      <contour>
        <pt x="672" y="1454" on="1"/>
        <pt x="709" y="1454" on="1"/>
        <pt x="1341" y="0" on="1"/>
        <pt x="1296" y="0" on="1"/>
        <pt x="1069" y="520" on="1"/>
        <pt x="309" y="520" on="1"/>
        <pt x="82" y="0" on="1"/>
        <pt x="37" y="0" on="1"/>
      </contour>
      <contour>
        <pt x="1051" y="561" on="1"/>
        <pt x="690" y="1395" on="1"/>
        <pt x="326" y="561" on="1"/>
      </contour>
    </TTGlyph>
    <TTGlyph name="Acircumflextilde" xMin="37" yMin="0" xMax="1341" yMax="1972">
      <contour>
        <pt x="565" y="1913" on="1"/>
        <pt x="535" y="1913" on="0"/>
        <pt x="490" y="1887" on="0"/>
        <pt x="470" y="1849" on="0"/>
        <pt x="461" y="1822" on="0"/>
        <pt x="461" y="1815" on="1"/>
        <pt x="420" y="1815" on="1"/>
        <pt x="420" y="1822" on="0"/>
        <pt x="425" y="1847" on="0"/>
        <pt x="443" y="1890" on="0"/>
        <pt x="473" y="1925" on="0"/>
        <pt x="531" y="1952" on="0"/>
        <pt x="569" y="1952" on="1"/>
        <pt x="622" y="1952" on="0"/>
        <pt x="773" y="1874" on="0"/>
        <pt x="825" y="1874" on="1"/>
        <pt x="857" y="1874" on="0"/>
        <pt x="905" y="1893" on="0"/>
        <pt x="928" y="1919" on="0"/>
        <pt x="943" y="1950" on="0"/>
        <pt x="946" y="1967" on="0"/>
        <pt x="946" y="1972" on="1"/>
        <pt x="987" y="1972" on="1"/>
        <pt x="987" y="1964" on="0"/>
        <pt x="982" y="1938" on="0"/>
        <pt x="961" y="1895" on="0"/>
        <pt x="928" y="1861" on="0"/>
        <pt x="863" y="1835" on="0"/>
        <pt x="821" y="1835" on="1"/>
        <pt x="770" y="1835" on="0"/>
        <pt x="677" y="1874" on="0"/>
        <pt x="599" y="1913" on="0"/>
      </contour>
      <contour>
        <pt x="475" y="1634" on="1"/>
        <pt x="666" y="1786" on="1"/>
        <pt x="698" y="1786" on="1"/>
        <pt x="889" y="1634" on="1"/>
        <pt x="856" y="1610" on="1"/>
        <pt x="682" y="1739" on="1"/>
        <pt x="508" y="1610" on="1"/>
      </contour>
      <contour>
        <pt x="672" y="1454" on="1"/>
        <pt x="709" y="1454" on="1"/>
        <pt x="1341" y="0" on="1"/>
        <pt x="1296" y="0" on="1"/>
        <pt x="1069" y="520" on="1"/>
        <pt x="309" y="520" on="1"/>
        <pt x="82" y="0" on="1"/>
        <pt x="37" y="0" on="1"/>
      </contour>
      <contour>
        <pt x="1051" y="561" on="1"/>
        <pt x="690" y="1395" on="1"/>
        <pt x="326" y="561" on="1"/>
      </contour>
    </TTGlyph>
    <TTGlyph name="Acyrillic" xMin="37" yMin="0" xMax="1341" yMax="1454">
      <contour>
        <pt x="672" y="1454" on="1"/>
        <pt x="709" y="1454" on="1"/>
        <pt x="1341" y="0" on="1"/>
        <pt x="1296" y="0" on="1"/>
        <pt x="1069" y="520" on="1"/>
        <pt x="309" y="520" on="1"/>
        <pt x="82" y="0" on="1"/>
        <pt x="37" y="0" on="1"/>
      </contour>
      <contour>
        <pt x="1051" y="561" on="1"/>
        <pt x="690" y="1395" on="1"/>
        <pt x="326" y="561" on="1"/>
      </contour>
    </TTGlyph>
    <TTGlyph name="Adblgrave" xMin="37" yMin="0" xMax="1341" yMax="1880">
      <contour>
        <pt x="424" y="1880" on="1"/>
        <pt x="494" y="1880" on="1"/>
        <pt x="625" y="1731" on="1"/>
        <pt x="592" y="1706" on="1"/>
      </contour>
      <contour>
        <pt x="629" y="1880" on="1"/>
        <pt x="698" y="1880" on="1"/>
        <pt x="829" y="1731" on="1"/>
        <pt x="797" y="1706" on="1"/>
      </contour>
      <contour>
        <pt x="672" y="1454" on="1"/>
        <pt x="709" y="1454" on="1"/>
        <pt x="1341" y="0" on="1"/>
        <pt x="1296" y="0" on="1"/>
        <pt x="1069" y="520" on="1"/>
        <pt x="309" y="520" on="1"/>
        <pt x="82" y="0" on="1"/>
        <pt x="37" y="0" on="1"/>
      </contour>
      <contour>
        <pt x="1051" y="561" on="1"/>
        <pt x="690" y="1395" on="1"/>
        <pt x="326" y="561" on="1"/>
      </contour>
    </TTGlyph>
    <TTGlyph name="Adieresis" xMin="37" yMin="0" xMax="1341" yMax="1880">
      <contour>
        <pt x="551" y="1722" on="1"/>
        <pt x="551" y="1880" on="1"/>
        <pt x="592" y="1880" on="1"/>
        <pt x="592" y="1722" on="1"/>
      </contour>
      <contour>
        <pt x="788" y="1722" on="1"/>
        <pt x="788" y="1880" on="1"/>
        <pt x="829" y="1880" on="1"/>
        <pt x="829" y="1722" on="1"/>
      </contour>
      <contour>
        <pt x="672" y="1454" on="1"/>
        <pt x="709" y="1454" on="1"/>
        <pt x="1341" y="0" on="1"/>
        <pt x="1296" y="0" on="1"/>
        <pt x="1069" y="520" on="1"/>
        <pt x="309" y="520" on="1"/>
        <pt x="82" y="0" on="1"/>
        <pt x="37" y="0" on="1"/>
      </contour>
      <contour>
        <pt x="1051" y="561" on="1"/>
        <pt x="690" y="1395" on="1"/>
        <pt x="326" y="561" on="1"/>
      </contour>
    </TTGlyph>
    <TTGlyph name="Adieresiscyrillic" xMin="37" yMin="0" xMax="1341" yMax="1886">
      <contour>
        <pt x="551" y="1729" on="1"/>
        <pt x="551" y="1886" on="1"/>
        <pt x="592" y="1886" on="1"/>
        <pt x="592" y="1729" on="1"/>
      </contour>
      <contour>
        <pt x="788" y="1729" on="1"/>
        <pt x="788" y="1886" on="1"/>
        <pt x="829" y="1886" on="1"/>
        <pt x="829" y="1729" on="1"/>
      </contour>
      <contour>
        <pt x="672" y="1454" on="1"/>
        <pt x="709" y="1454" on="1"/>
        <pt x="1341" y="0" on="1"/>
        <pt x="1296" y="0" on="1"/>
        <pt x="1069" y="520" on="1"/>
        <pt x="309" y="520" on="1"/>
        <pt x="82" y="0" on="1"/>
        <pt x="37" y="0" on="1"/>
      </contour>
      <contour>
        <pt x="1051" y="561" on="1"/>
        <pt x="690" y="1395" on="1"/>
        <pt x="326" y="561" on="1"/>
      </contour>
    </TTGlyph>
    <TTGlyph name="Adotbelow" xMin="37" yMin="-260" xMax="1341" yMax="1454">
      <contour>
        <pt x="672" y="1454" on="1"/>
        <pt x="709" y="1454" on="1"/>
        <pt x="1341" y="0" on="1"/>
        <pt x="1296" y="0" on="1"/>
        <pt x="1069" y="520" on="1"/>
        <pt x="309" y="520" on="1"/>
        <pt x="82" y="0" on="1"/>
        <pt x="37" y="0" on="1"/>
      </contour>
      <contour>
        <pt x="1051" y="561" on="1"/>
        <pt x="690" y="1395" on="1"/>
        <pt x="326" y="561" on="1"/>
      </contour>
      <contour>
        <pt x="690" y="-260" on="1"/>
        <pt x="690" y="-102" on="1"/>
        <pt x="731" y="-102" on="1"/>
        <pt x="731" y="-260" on="1"/>
      </contour>
    </TTGlyph>
    <TTGlyph name="Agrave" xMin="37" yMin="0" xMax="1341" yMax="1880">
      <contour>
        <pt x="551" y="1880" on="1"/>
        <pt x="618" y="1880" on="1"/>
        <pt x="752" y="1731" on="1"/>
        <pt x="719" y="1706" on="1"/>
      </contour>
      <contour>
        <pt x="672" y="1454" on="1"/>
        <pt x="709" y="1454" on="1"/>
        <pt x="1341" y="0" on="1"/>
        <pt x="1296" y="0" on="1"/>
        <pt x="1069" y="520" on="1"/>
        <pt x="309" y="520" on="1"/>
        <pt x="82" y="0" on="1"/>
        <pt x="37" y="0" on="1"/>
      </contour>
      <contour>
        <pt x="1051" y="561" on="1"/>
        <pt x="690" y="1395" on="1"/>
        <pt x="326" y="561" on="1"/>
      </contour>
    </TTGlyph>
    <TTGlyph name="Ahookabove" xMin="37" yMin="0" xMax="1341" yMax="1870">
      <contour>
        <pt x="592" y="1782" on="1"/>
        <pt x="567" y="1808" on="1"/>
        <pt x="604" y="1841" on="0"/>
        <pt x="657" y="1870" on="0"/>
        <pt x="694" y="1870" on="1"/>
        <pt x="745" y="1870" on="0"/>
        <pt x="811" y="1807" on="0"/>
        <pt x="811" y="1753" on="1"/>
        <pt x="811" y="1742" on="0"/>
        <pt x="808" y="1722" on="0"/>
        <pt x="798" y="1701" on="0"/>
        <pt x="790" y="1687" on="0"/>
        <pt x="771" y="1663" on="0"/>
        <pt x="761" y="1652" on="0"/>
        <pt x="735" y="1622" on="0"/>
        <pt x="729" y="1616" on="1"/>
        <pt x="705" y="1638" on="1"/>
        <pt x="742" y="1680" on="0"/>
        <pt x="774" y="1730" on="0"/>
        <pt x="774" y="1753" on="1"/>
        <pt x="774" y="1788" on="0"/>
        <pt x="732" y="1833" on="0"/>
        <pt x="690" y="1833" on="1"/>
        <pt x="664" y="1833" on="0"/>
        <pt x="627" y="1812" on="0"/>
      </contour>
      <contour>
        <pt x="672" y="1454" on="1"/>
        <pt x="709" y="1454" on="1"/>
        <pt x="1341" y="0" on="1"/>
        <pt x="1296" y="0" on="1"/>
        <pt x="1069" y="520" on="1"/>
        <pt x="309" y="520" on="1"/>
        <pt x="82" y="0" on="1"/>
        <pt x="37" y="0" on="1"/>
      </contour>
      <contour>
        <pt x="1051" y="561" on="1"/>
        <pt x="690" y="1395" on="1"/>
        <pt x="326" y="561" on="1"/>
      </contour>
    </TTGlyph>
    <TTGlyph name="Aiecyrillic" xMin="-59" yMin="0" xMax="1864" yMax="1454">
      <contour>
        <pt x="899" y="1454" on="1"/>
        <pt x="1845" y="1454" on="1"/>
        <pt x="1845" y="1413" on="1"/>
        <pt x="950" y="1413" on="1"/>
        <pt x="950" y="764" on="1"/>
        <pt x="1735" y="764" on="1"/>
        <pt x="1735" y="723" on="1"/>
        <pt x="950" y="723" on="1"/>
        <pt x="950" y="41" on="1"/>
        <pt x="1864" y="41" on="1"/>
        <pt x="1864" y="0" on="1"/>
        <pt x="909" y="0" on="1"/>
        <pt x="909" y="520" on="1"/>
        <pt x="334" y="520" on="1"/>
        <pt x="-8" y="0" on="1"/>
        <pt x="-59" y="0" on="1"/>
      </contour>
      <contour>
        <pt x="909" y="561" on="1"/>
        <pt x="909" y="1389" on="1"/>
        <pt x="358" y="561" on="1"/>
      </contour>
    </TTGlyph>
    <TTGlyph name="Ainvertedbreve" xMin="37" yMin="0" xMax="1341" yMax="1880">
      <contour>
        <pt x="578" y="1722" on="1"/>
        <pt x="539" y="1722" on="1"/>
        <pt x="539" y="1785" on="0"/>
        <pt x="630" y="1880" on="0"/>
        <pt x="750" y="1880" on="0"/>
        <pt x="842" y="1785" on="0"/>
        <pt x="842" y="1722" on="1"/>
        <pt x="805" y="1722" on="1"/>
        <pt x="799" y="1773" on="0"/>
        <pt x="731" y="1845" on="0"/>
        <pt x="690" y="1845" on="1"/>
        <pt x="647" y="1845" on="0"/>
        <pt x="578" y="1768" on="0"/>
      </contour>
      <contour>
        <pt x="672" y="1454" on="1"/>
        <pt x="709" y="1454" on="1"/>
        <pt x="1341" y="0" on="1"/>
        <pt x="1296" y="0" on="1"/>
        <pt x="1069" y="520" on="1"/>
        <pt x="309" y="520" on="1"/>
        <pt x="82" y="0" on="1"/>
        <pt x="37" y="0" on="1"/>
      </contour>
      <contour>
        <pt x="1051" y="561" on="1"/>
        <pt x="690" y="1395" on="1"/>
        <pt x="326" y="561" on="1"/>
      </contour>
    </TTGlyph>
    <TTGlyph name="Amacron" xMin="37" yMin="0" xMax="1341" yMax="1831">
      <contour>
        <pt x="403" y="1790" on="1"/>
        <pt x="403" y="1831" on="1"/>
        <pt x="977" y="1831" on="1"/>
        <pt x="977" y="1790" on="1"/>
      </contour>
      <contour>
        <pt x="672" y="1454" on="1"/>
        <pt x="709" y="1454" on="1"/>
        <pt x="1341" y="0" on="1"/>
        <pt x="1296" y="0" on="1"/>
        <pt x="1069" y="520" on="1"/>
        <pt x="309" y="520" on="1"/>
        <pt x="82" y="0" on="1"/>
        <pt x="37" y="0" on="1"/>
      </contour>
      <contour>
        <pt x="1051" y="561" on="1"/>
        <pt x="690" y="1395" on="1"/>
        <pt x="326" y="561" on="1"/>
      </contour>
    </TTGlyph>
    <TTGlyph name="Aogonek" xMin="37" yMin="-336" xMax="1341" yMax="1454">
      <contour>
        <pt x="1186" y="-199" on="1"/>
        <pt x="1186" y="-237" on="0"/>
        <pt x="1250" y="-282" on="0"/>
        <pt x="1333" y="-301" on="1"/>
        <pt x="1309" y="-336" on="1"/>
        <pt x="1220" y="-319" on="0"/>
        <pt x="1143" y="-256" on="0"/>
        <pt x="1143" y="-205" on="1"/>
        <pt x="1143" y="-155" on="0"/>
        <pt x="1216" y="-53" on="0"/>
        <pt x="1292" y="10" on="1"/>
        <pt x="1069" y="520" on="1"/>
        <pt x="309" y="520" on="1"/>
        <pt x="82" y="0" on="1"/>
        <pt x="37" y="0" on="1"/>
        <pt x="672" y="1454" on="1"/>
        <pt x="709" y="1454" on="1"/>
        <pt x="1341" y="0" on="1"/>
        <pt x="1258" y="-65" on="0"/>
        <pt x="1186" y="-156" on="0"/>
      </contour>
      <contour>
        <pt x="326" y="561" on="1"/>
        <pt x="1051" y="561" on="1"/>
        <pt x="690" y="1395" on="1"/>
      </contour>
    </TTGlyph>
    <TTGlyph name="Aring" xMin="37" yMin="0" xMax="1341" yMax="1933">
      <contour>
        <pt x="690" y="1933" on="1"/>
        <pt x="755" y="1933" on="0"/>
        <pt x="844" y="1844" on="0"/>
        <pt x="844" y="1716" on="0"/>
        <pt x="754" y="1626" on="0"/>
        <pt x="626" y="1626" on="0"/>
        <pt x="537" y="1715" on="0"/>
        <pt x="537" y="1780" on="1"/>
        <pt x="537" y="1844" on="0"/>
        <pt x="626" y="1933" on="0"/>
      </contour>
      <contour>
        <pt x="580" y="1780" on="1"/>
        <pt x="580" y="1734" on="0"/>
        <pt x="644" y="1669" on="0"/>
        <pt x="690" y="1669" on="1"/>
        <pt x="732" y="1669" on="0"/>
        <pt x="801" y="1733" on="0"/>
        <pt x="801" y="1780" on="1"/>
        <pt x="801" y="1829" on="0"/>
        <pt x="736" y="1890" on="0"/>
        <pt x="644" y="1890" on="0"/>
        <pt x="580" y="1829" on="0"/>
      </contour>
      <contour>
        <pt x="672" y="1454" on="1"/>
        <pt x="709" y="1454" on="1"/>
        <pt x="1341" y="0" on="1"/>
        <pt x="1296" y="0" on="1"/>
        <pt x="1069" y="520" on="1"/>
        <pt x="309" y="520" on="1"/>
        <pt x="82" y="0" on="1"/>
        <pt x="37" y="0" on="1"/>
      </contour>
      <contour>
        <pt x="1051" y="561" on="1"/>
        <pt x="690" y="1395" on="1"/>
        <pt x="326" y="561" on="1"/>
      </contour>
    </TTGlyph>
    <TTGlyph name="Aringacute" xMin="37" yMin="0" xMax="1341" yMax="1905">
      <contour>
        <pt x="709" y="1454" on="1"/>
        <pt x="1341" y="0" on="1"/>
        <pt x="1296" y="0" on="1"/>
        <pt x="1069" y="520" on="1"/>
        <pt x="309" y="520" on="1"/>
        <pt x="82" y="0" on="1"/>
        <pt x="37" y="0" on="1"/>
        <pt x="672" y="1454" on="1"/>
        <pt x="613" y="1460" on="0"/>
        <pt x="537" y="1546" on="0"/>
        <pt x="537" y="1606" on="1"/>
        <pt x="537" y="1670" on="0"/>
        <pt x="626" y="1759" on="0"/>
        <pt x="690" y="1759" on="1"/>
        <pt x="694" y="1759" on="1"/>
        <pt x="821" y="1905" on="1"/>
        <pt x="891" y="1905" on="1"/>
        <pt x="741" y="1751" on="1"/>
        <pt x="787" y="1736" on="0"/>
        <pt x="844" y="1657" on="0"/>
        <pt x="844" y="1606" on="1"/>
        <pt x="844" y="1546" on="0"/>
        <pt x="768" y="1460" on="0"/>
      </contour>
      <contour>
        <pt x="580" y="1606" on="1"/>
        <pt x="580" y="1560" on="0"/>
        <pt x="644" y="1495" on="0"/>
        <pt x="690" y="1495" on="1"/>
        <pt x="732" y="1495" on="0"/>
        <pt x="801" y="1559" on="0"/>
        <pt x="801" y="1606" on="1"/>
        <pt x="801" y="1655" on="0"/>
        <pt x="736" y="1716" on="0"/>
        <pt x="644" y="1716" on="0"/>
        <pt x="580" y="1655" on="0"/>
      </contour>
      <contour>
        <pt x="326" y="561" on="1"/>
        <pt x="1051" y="561" on="1"/>
        <pt x="690" y="1395" on="1"/>
      </contour>
    </TTGlyph>
    <TTGlyph name="Atilde" xMin="37" yMin="0" xMax="1341" yMax="1880">
      <contour>
        <pt x="551" y="1821" on="1"/>
        <pt x="521" y="1821" on="0"/>
        <pt x="475" y="1794" on="0"/>
        <pt x="455" y="1757" on="0"/>
        <pt x="446" y="1729" on="0"/>
        <pt x="446" y="1722" on="1"/>
        <pt x="406" y="1722" on="1"/>
        <pt x="406" y="1729" on="0"/>
        <pt x="411" y="1754" on="0"/>
        <pt x="429" y="1797" on="0"/>
        <pt x="459" y="1833" on="0"/>
        <pt x="517" y="1860" on="0"/>
        <pt x="555" y="1860" on="1"/>
        <pt x="608" y="1860" on="0"/>
        <pt x="759" y="1782" on="0"/>
        <pt x="811" y="1782" on="1"/>
        <pt x="843" y="1782" on="0"/>
        <pt x="891" y="1801" on="0"/>
        <pt x="914" y="1827" on="0"/>
        <pt x="929" y="1858" on="0"/>
        <pt x="932" y="1875" on="0"/>
        <pt x="932" y="1880" on="1"/>
        <pt x="973" y="1880" on="1"/>
        <pt x="973" y="1872" on="0"/>
        <pt x="968" y="1846" on="0"/>
        <pt x="947" y="1803" on="0"/>
        <pt x="914" y="1769" on="0"/>
        <pt x="849" y="1743" on="0"/>
        <pt x="807" y="1743" on="1"/>
        <pt x="756" y="1743" on="0"/>
        <pt x="663" y="1782" on="0"/>
        <pt x="585" y="1821" on="0"/>
      </contour>
      <contour>
        <pt x="672" y="1454" on="1"/>
        <pt x="709" y="1454" on="1"/>
        <pt x="1341" y="0" on="1"/>
        <pt x="1296" y="0" on="1"/>
        <pt x="1069" y="520" on="1"/>
        <pt x="309" y="520" on="1"/>
        <pt x="82" y="0" on="1"/>
        <pt x="37" y="0" on="1"/>
      </contour>
      <contour>
        <pt x="1051" y="561" on="1"/>
        <pt x="690" y="1395" on="1"/>
        <pt x="326" y="561" on="1"/>
      </contour>
    </TTGlyph>
    <TTGlyph name="B" xMin="203" yMin="0" xMax="1239" yMax="1454">
      <contour>
        <pt x="877" y="0" on="1"/>
        <pt x="203" y="0" on="1"/>
        <pt x="203" y="1454" on="1"/>
        <pt x="846" y="1454" on="1"/>
        <pt x="944" y="1454" on="0"/>
        <pt x="1100" y="1343" on="0"/>
        <pt x="1178" y="1176" on="0"/>
        <pt x="1178" y="1083" on="1"/>
        <pt x="1178" y="973" on="0"/>
        <pt x="1064" y="788" on="0"/>
        <pt x="969" y="745" on="1"/>
        <pt x="1092" y="709" on="0"/>
        <pt x="1239" y="504" on="0"/>
        <pt x="1239" y="377" on="1"/>
        <pt x="1239" y="225" on="0"/>
        <pt x="1025" y="0" on="0"/>
      </contour>
      <contour>
        <pt x="244" y="1413" on="1"/>
        <pt x="244" y="754" on="1"/>
        <pt x="834" y="754" on="1"/>
        <pt x="920" y="754" on="0"/>
        <pt x="1061" y="851" on="0"/>
        <pt x="1137" y="1001" on="0"/>
        <pt x="1137" y="1083" on="1"/>
        <pt x="1137" y="1217" on="0"/>
        <pt x="972" y="1413" on="0"/>
        <pt x="846" y="1413" on="1"/>
      </contour>
      <contour>
        <pt x="891" y="713" on="1"/>
        <pt x="244" y="713" on="1"/>
        <pt x="244" y="41" on="1"/>
        <pt x="877" y="41" on="1"/>
        <pt x="964" y="41" on="0"/>
        <pt x="1114" y="139" on="0"/>
        <pt x="1198" y="293" on="0"/>
        <pt x="1198" y="377" on="1"/>
        <pt x="1198" y="511" on="0"/>
        <pt x="1020" y="713" on="0"/>
      </contour>
    </TTGlyph>
    <TTGlyph name="C" xMin="98" yMin="-12" xMax="1350" yMax="1462">
      <contour>
        <pt x="784" y="1462" on="1"/>
        <pt x="971" y="1462" on="0"/>
        <pt x="1246" y="1289" on="0"/>
        <pt x="1315" y="1145" on="1"/>
        <pt x="1276" y="1133" on="1"/>
        <pt x="1235" y="1210" on="0"/>
        <pt x="1119" y="1325" on="0"/>
        <pt x="986" y="1390" on="0"/>
        <pt x="849" y="1421" on="0"/>
        <pt x="776" y="1421" on="1"/>
        <pt x="629" y="1421" on="0"/>
        <pt x="383" y="1300" on="0"/>
        <pt x="226" y="1103" on="0"/>
        <pt x="139" y="859" on="0"/>
        <pt x="139" y="731" on="1"/>
        <pt x="139" y="594" on="0"/>
        <pt x="240" y="336" on="0"/>
        <pt x="411" y="145" on="0"/>
        <pt x="651" y="29" on="0"/>
        <pt x="782" y="29" on="1"/>
        <pt x="938" y="29" on="0"/>
        <pt x="1231" y="185" on="0"/>
        <pt x="1311" y="336" on="1"/>
        <pt x="1350" y="326" on="1"/>
        <pt x="1278" y="169" on="0"/>
        <pt x="949" y="-12" on="0"/>
        <pt x="774" y="-12" on="1"/>
        <pt x="659" y="-12" on="0"/>
        <pt x="446" y="72" on="0"/>
        <pt x="284" y="219" on="0"/>
        <pt x="162" y="408" on="0"/>
        <pt x="98" y="627" on="0"/>
        <pt x="98" y="737" on="1"/>
        <pt x="98" y="842" on="0"/>
        <pt x="156" y="1050" on="0"/>
        <pt x="273" y="1236" on="0"/>
        <pt x="434" y="1378" on="0"/>
        <pt x="657" y="1462" on="0"/>
      </contour>
    </TTGlyph>
    <TTGlyph name="Cacute" xMin="98" yMin="-12" xMax="1350" yMax="1880">
      <contour>
        <pt x="793" y="1706" on="1"/>
        <pt x="760" y="1731" on="1"/>
        <pt x="891" y="1880" on="1"/>
        <pt x="961" y="1880" on="1"/>
      </contour>
      <contour>
        <pt x="784" y="1462" on="1"/>
        <pt x="971" y="1462" on="0"/>
        <pt x="1246" y="1289" on="0"/>
        <pt x="1315" y="1145" on="1"/>
        <pt x="1276" y="1133" on="1"/>
        <pt x="1235" y="1210" on="0"/>
        <pt x="1119" y="1325" on="0"/>
        <pt x="986" y="1390" on="0"/>
        <pt x="849" y="1421" on="0"/>
        <pt x="776" y="1421" on="1"/>
        <pt x="629" y="1421" on="0"/>
        <pt x="383" y="1300" on="0"/>
        <pt x="226" y="1103" on="0"/>
        <pt x="139" y="859" on="0"/>
        <pt x="139" y="731" on="1"/>
        <pt x="139" y="594" on="0"/>
        <pt x="240" y="336" on="0"/>
        <pt x="411" y="145" on="0"/>
        <pt x="651" y="29" on="0"/>
        <pt x="782" y="29" on="1"/>
        <pt x="938" y="29" on="0"/>
        <pt x="1231" y="185" on="0"/>
        <pt x="1311" y="336" on="1"/>
        <pt x="1350" y="326" on="1"/>
        <pt x="1278" y="169" on="0"/>
        <pt x="949" y="-12" on="0"/>
        <pt x="774" y="-12" on="1"/>
        <pt x="659" y="-12" on="0"/>
        <pt x="446" y="72" on="0"/>
        <pt x="284" y="219" on="0"/>
        <pt x="162" y="408" on="0"/>
        <pt x="98" y="627" on="0"/>
        <pt x="98" y="737" on="1"/>
        <pt x="98" y="842" on="0"/>
        <pt x="156" y="1050" on="0"/>
        <pt x="273" y="1236" on="0"/>
        <pt x="434" y="1378" on="0"/>
        <pt x="657" y="1462" on="0"/>
      </contour>
    </TTGlyph>
    <TTGlyph name="Ccaron" xMin="98" yMin="-12" xMax="1350" yMax="1880">
      <contour>
        <pt x="606" y="1880" on="1"/>
        <pt x="780" y="1751" on="1"/>
        <pt x="954" y="1880" on="1"/>
        <pt x="987" y="1855" on="1"/>
        <pt x="797" y="1704" on="1"/>
        <pt x="764" y="1704" on="1"/>
        <pt x="573" y="1855" on="1"/>
      </contour>
      <contour>
        <pt x="784" y="1462" on="1"/>
        <pt x="971" y="1462" on="0"/>
        <pt x="1246" y="1289" on="0"/>
        <pt x="1315" y="1145" on="1"/>
        <pt x="1276" y="1133" on="1"/>
        <pt x="1235" y="1210" on="0"/>
        <pt x="1119" y="1325" on="0"/>
        <pt x="986" y="1390" on="0"/>
        <pt x="849" y="1421" on="0"/>
        <pt x="776" y="1421" on="1"/>
        <pt x="629" y="1421" on="0"/>
        <pt x="383" y="1300" on="0"/>
        <pt x="226" y="1103" on="0"/>
        <pt x="139" y="859" on="0"/>
        <pt x="139" y="731" on="1"/>
        <pt x="139" y="594" on="0"/>
        <pt x="240" y="336" on="0"/>
        <pt x="411" y="145" on="0"/>
        <pt x="651" y="29" on="0"/>
        <pt x="782" y="29" on="1"/>
        <pt x="938" y="29" on="0"/>
        <pt x="1231" y="185" on="0"/>
        <pt x="1311" y="336" on="1"/>
        <pt x="1350" y="326" on="1"/>
        <pt x="1278" y="169" on="0"/>
        <pt x="949" y="-12" on="0"/>
        <pt x="774" y="-12" on="1"/>
        <pt x="659" y="-12" on="0"/>
        <pt x="446" y="72" on="0"/>
        <pt x="284" y="219" on="0"/>
        <pt x="162" y="408" on="0"/>
        <pt x="98" y="627" on="0"/>
        <pt x="98" y="737" on="1"/>
        <pt x="98" y="842" on="0"/>
        <pt x="156" y="1050" on="0"/>
        <pt x="273" y="1236" on="0"/>
        <pt x="434" y="1378" on="0"/>
        <pt x="657" y="1462" on="0"/>
      </contour>
    </TTGlyph>
    <TTGlyph name="Ccedilla" xMin="98" yMin="-336" xMax="1350" yMax="1462">
      <contour>
        <pt x="1350" y="326" on="1"/>
        <pt x="1285" y="184" on="0"/>
        <pt x="1002" y="8" on="0"/>
        <pt x="840" y="-8" on="1"/>
        <pt x="899" y="-47" on="0"/>
        <pt x="956" y="-129" on="0"/>
        <pt x="956" y="-184" on="1"/>
        <pt x="956" y="-260" on="0"/>
        <pt x="849" y="-336" on="0"/>
        <pt x="758" y="-336" on="1"/>
        <pt x="634" y="-336" on="0"/>
        <pt x="532" y="-285" on="1"/>
        <pt x="555" y="-250" on="1"/>
        <pt x="613" y="-275" on="0"/>
        <pt x="698" y="-299" on="0"/>
        <pt x="752" y="-299" on="1"/>
        <pt x="915" y="-299" on="0"/>
        <pt x="915" y="-184" on="1"/>
        <pt x="915" y="-131" on="0"/>
        <pt x="850" y="-52" on="0"/>
        <pt x="780" y="-12" on="1"/>
        <pt x="774" y="-12" on="1"/>
        <pt x="659" y="-12" on="0"/>
        <pt x="446" y="72" on="0"/>
        <pt x="284" y="219" on="0"/>
        <pt x="162" y="408" on="0"/>
        <pt x="98" y="627" on="0"/>
        <pt x="98" y="737" on="1"/>
        <pt x="98" y="842" on="0"/>
        <pt x="156" y="1050" on="0"/>
        <pt x="273" y="1236" on="0"/>
        <pt x="434" y="1378" on="0"/>
        <pt x="657" y="1462" on="0"/>
        <pt x="784" y="1462" on="1"/>
        <pt x="971" y="1462" on="0"/>
        <pt x="1246" y="1289" on="0"/>
        <pt x="1315" y="1145" on="1"/>
        <pt x="1276" y="1133" on="1"/>
        <pt x="1235" y="1210" on="0"/>
        <pt x="1119" y="1325" on="0"/>
        <pt x="986" y="1390" on="0"/>
        <pt x="849" y="1421" on="0"/>
        <pt x="776" y="1421" on="1"/>
        <pt x="629" y="1421" on="0"/>
        <pt x="383" y="1300" on="0"/>
        <pt x="226" y="1103" on="0"/>
        <pt x="139" y="859" on="0"/>
        <pt x="139" y="731" on="1"/>
        <pt x="139" y="594" on="0"/>
        <pt x="240" y="336" on="0"/>
        <pt x="411" y="145" on="0"/>
        <pt x="651" y="29" on="0"/>
        <pt x="782" y="29" on="1"/>
        <pt x="938" y="29" on="0"/>
        <pt x="1231" y="185" on="0"/>
        <pt x="1311" y="336" on="1"/>
      </contour>
    </TTGlyph>
    <TTGlyph name="Ccedillaacute" xMin="98" yMin="-336" xMax="1350" yMax="1880">
      <contour>
        <pt x="961" y="1880" on="1"/>
        <pt x="793" y="1706" on="1"/>
        <pt x="760" y="1731" on="1"/>
        <pt x="891" y="1880" on="1"/>
      </contour>
      <contour>
        <pt x="1350" y="326" on="1"/>
        <pt x="1285" y="184" on="0"/>
        <pt x="1002" y="8" on="0"/>
        <pt x="840" y="-8" on="1"/>
        <pt x="899" y="-47" on="0"/>
        <pt x="956" y="-129" on="0"/>
        <pt x="956" y="-184" on="1"/>
        <pt x="956" y="-260" on="0"/>
        <pt x="849" y="-336" on="0"/>
        <pt x="758" y="-336" on="1"/>
        <pt x="634" y="-336" on="0"/>
        <pt x="532" y="-285" on="1"/>
        <pt x="555" y="-250" on="1"/>
        <pt x="613" y="-275" on="0"/>
        <pt x="698" y="-299" on="0"/>
        <pt x="752" y="-299" on="1"/>
        <pt x="915" y="-299" on="0"/>
        <pt x="915" y="-184" on="1"/>
        <pt x="915" y="-131" on="0"/>
        <pt x="850" y="-52" on="0"/>
        <pt x="780" y="-12" on="1"/>
        <pt x="774" y="-12" on="1"/>
        <pt x="659" y="-12" on="0"/>
        <pt x="446" y="72" on="0"/>
        <pt x="284" y="219" on="0"/>
        <pt x="162" y="408" on="0"/>
        <pt x="98" y="627" on="0"/>
        <pt x="98" y="737" on="1"/>
        <pt x="98" y="842" on="0"/>
        <pt x="156" y="1050" on="0"/>
        <pt x="273" y="1236" on="0"/>
        <pt x="434" y="1378" on="0"/>
        <pt x="657" y="1462" on="0"/>
        <pt x="784" y="1462" on="1"/>
        <pt x="971" y="1462" on="0"/>
        <pt x="1246" y="1289" on="0"/>
        <pt x="1315" y="1145" on="1"/>
        <pt x="1276" y="1133" on="1"/>
        <pt x="1235" y="1210" on="0"/>
        <pt x="1119" y="1325" on="0"/>
        <pt x="986" y="1390" on="0"/>
        <pt x="849" y="1421" on="0"/>
        <pt x="776" y="1421" on="1"/>
        <pt x="629" y="1421" on="0"/>
        <pt x="383" y="1300" on="0"/>
        <pt x="226" y="1103" on="0"/>
        <pt x="139" y="859" on="0"/>
        <pt x="139" y="731" on="1"/>
        <pt x="139" y="594" on="0"/>
        <pt x="240" y="336" on="0"/>
        <pt x="411" y="145" on="0"/>
        <pt x="651" y="29" on="0"/>
        <pt x="782" y="29" on="1"/>
        <pt x="938" y="29" on="0"/>
        <pt x="1231" y="185" on="0"/>
        <pt x="1311" y="336" on="1"/>
      </contour>
    </TTGlyph>
    <TTGlyph name="Ccircumflex" xMin="98" yMin="-12" xMax="1350" yMax="1880">
      <contour>
        <pt x="573" y="1729" on="1"/>
        <pt x="764" y="1880" on="1"/>
        <pt x="797" y="1880" on="1"/>
        <pt x="987" y="1729" on="1"/>
        <pt x="954" y="1704" on="1"/>
        <pt x="780" y="1833" on="1"/>
        <pt x="606" y="1704" on="1"/>
      </contour>
      <contour>
        <pt x="784" y="1462" on="1"/>
        <pt x="971" y="1462" on="0"/>
        <pt x="1246" y="1289" on="0"/>
        <pt x="1315" y="1145" on="1"/>
        <pt x="1276" y="1133" on="1"/>
        <pt x="1235" y="1210" on="0"/>
        <pt x="1119" y="1325" on="0"/>
        <pt x="986" y="1390" on="0"/>
        <pt x="849" y="1421" on="0"/>
        <pt x="776" y="1421" on="1"/>
        <pt x="629" y="1421" on="0"/>
        <pt x="383" y="1300" on="0"/>
        <pt x="226" y="1103" on="0"/>
        <pt x="139" y="859" on="0"/>
        <pt x="139" y="731" on="1"/>
        <pt x="139" y="594" on="0"/>
        <pt x="240" y="336" on="0"/>
        <pt x="411" y="145" on="0"/>
        <pt x="651" y="29" on="0"/>
        <pt x="782" y="29" on="1"/>
        <pt x="938" y="29" on="0"/>
        <pt x="1231" y="185" on="0"/>
        <pt x="1311" y="336" on="1"/>
        <pt x="1350" y="326" on="1"/>
        <pt x="1278" y="169" on="0"/>
        <pt x="949" y="-12" on="0"/>
        <pt x="774" y="-12" on="1"/>
        <pt x="659" y="-12" on="0"/>
        <pt x="446" y="72" on="0"/>
        <pt x="284" y="219" on="0"/>
        <pt x="162" y="408" on="0"/>
        <pt x="98" y="627" on="0"/>
        <pt x="98" y="737" on="1"/>
        <pt x="98" y="842" on="0"/>
        <pt x="156" y="1050" on="0"/>
        <pt x="273" y="1236" on="0"/>
        <pt x="434" y="1378" on="0"/>
        <pt x="657" y="1462" on="0"/>
      </contour>
    </TTGlyph>
    <TTGlyph name="Cdot" xMin="98" yMin="-12" xMax="1350" yMax="1880">
      <contour>
        <pt x="760" y="1722" on="1"/>
        <pt x="760" y="1880" on="1"/>
        <pt x="801" y="1880" on="1"/>
        <pt x="801" y="1722" on="1"/>
      </contour>
      <contour>
        <pt x="784" y="1462" on="1"/>
        <pt x="971" y="1462" on="0"/>
        <pt x="1246" y="1289" on="0"/>
        <pt x="1315" y="1145" on="1"/>
        <pt x="1276" y="1133" on="1"/>
        <pt x="1235" y="1210" on="0"/>
        <pt x="1119" y="1325" on="0"/>
        <pt x="986" y="1390" on="0"/>
        <pt x="849" y="1421" on="0"/>
        <pt x="776" y="1421" on="1"/>
        <pt x="629" y="1421" on="0"/>
        <pt x="383" y="1300" on="0"/>
        <pt x="226" y="1103" on="0"/>
        <pt x="139" y="859" on="0"/>
        <pt x="139" y="731" on="1"/>
        <pt x="139" y="594" on="0"/>
        <pt x="240" y="336" on="0"/>
        <pt x="411" y="145" on="0"/>
        <pt x="651" y="29" on="0"/>
        <pt x="782" y="29" on="1"/>
        <pt x="938" y="29" on="0"/>
        <pt x="1231" y="185" on="0"/>
        <pt x="1311" y="336" on="1"/>
        <pt x="1350" y="326" on="1"/>
        <pt x="1278" y="169" on="0"/>
        <pt x="949" y="-12" on="0"/>
        <pt x="774" y="-12" on="1"/>
        <pt x="659" y="-12" on="0"/>
        <pt x="446" y="72" on="0"/>
        <pt x="284" y="219" on="0"/>
        <pt x="162" y="408" on="0"/>
        <pt x="98" y="627" on="0"/>
        <pt x="98" y="737" on="1"/>
        <pt x="98" y="842" on="0"/>
        <pt x="156" y="1050" on="0"/>
        <pt x="273" y="1236" on="0"/>
        <pt x="434" y="1378" on="0"/>
        <pt x="657" y="1462" on="0"/>
      </contour>
    </TTGlyph>
    <TTGlyph name="Chedescendercyrillic" xMin="164" yMin="-276" xMax="1262" yMax="1454">
      <contour>
        <pt x="1094" y="41" on="1"/>
        <pt x="1262" y="41" on="1"/>
        <pt x="1262" y="-276" on="1"/>
        <pt x="1221" y="-276" on="1"/>
        <pt x="1221" y="0" on="1"/>
        <pt x="1053" y="0" on="1"/>
        <pt x="1053" y="670" on="1"/>
        <pt x="848" y="582" on="0"/>
        <pt x="621" y="582" on="1"/>
        <pt x="382" y="582" on="0"/>
        <pt x="164" y="781" on="0"/>
        <pt x="164" y="999" on="1"/>
        <pt x="164" y="1454" on="1"/>
        <pt x="205" y="1454" on="1"/>
        <pt x="205" y="1004" on="1"/>
        <pt x="205" y="803" on="0"/>
        <pt x="398" y="623" on="0"/>
        <pt x="616" y="623" on="1"/>
        <pt x="748" y="623" on="0"/>
        <pt x="981" y="675" on="0"/>
        <pt x="1053" y="717" on="1"/>
        <pt x="1053" y="1454" on="1"/>
        <pt x="1094" y="1454" on="1"/>
      </contour>
    </TTGlyph>
    <TTGlyph name="Chedieresiscyrillic" xMin="164" yMin="0" xMax="1094" yMax="1886">
      <contour>
        <pt x="520" y="1729" on="1"/>
        <pt x="520" y="1886" on="1"/>
        <pt x="561" y="1886" on="1"/>
        <pt x="561" y="1729" on="1"/>
      </contour>
      <contour>
        <pt x="758" y="1729" on="1"/>
        <pt x="758" y="1886" on="1"/>
        <pt x="799" y="1886" on="1"/>
        <pt x="799" y="1729" on="1"/>
      </contour>
      <contour>
        <pt x="1053" y="0" on="1"/>
        <pt x="1053" y="670" on="1"/>
        <pt x="848" y="582" on="0"/>
        <pt x="621" y="582" on="1"/>
        <pt x="382" y="582" on="0"/>
        <pt x="164" y="781" on="0"/>
        <pt x="164" y="999" on="1"/>
        <pt x="164" y="1454" on="1"/>
        <pt x="205" y="1454" on="1"/>
        <pt x="205" y="1004" on="1"/>
        <pt x="205" y="803" on="0"/>
        <pt x="398" y="623" on="0"/>
        <pt x="616" y="623" on="1"/>
        <pt x="748" y="623" on="0"/>
        <pt x="981" y="675" on="0"/>
        <pt x="1053" y="717" on="1"/>
        <pt x="1053" y="1454" on="1"/>
        <pt x="1094" y="1454" on="1"/>
        <pt x="1094" y="0" on="1"/>
      </contour>
    </TTGlyph>
    <TTGlyph name="Chekhakassiancyrillic" xMin="164" yMin="-276" xMax="1094" yMax="1454">
      <contour>
        <pt x="1053" y="1454" on="1"/>
        <pt x="1094" y="1454" on="1"/>
        <pt x="1094" y="0" on="1"/>
        <pt x="913" y="0" on="1"/>
        <pt x="913" y="-276" on="1"/>
        <pt x="872" y="-276" on="1"/>
        <pt x="872" y="41" on="1"/>
        <pt x="1053" y="41" on="1"/>
        <pt x="1053" y="670" on="1"/>
        <pt x="848" y="582" on="0"/>
        <pt x="621" y="582" on="1"/>
        <pt x="382" y="582" on="0"/>
        <pt x="164" y="781" on="0"/>
        <pt x="164" y="999" on="1"/>
        <pt x="164" y="1454" on="1"/>
        <pt x="205" y="1454" on="1"/>
        <pt x="205" y="1004" on="1"/>
        <pt x="205" y="803" on="0"/>
        <pt x="398" y="623" on="0"/>
        <pt x="616" y="623" on="1"/>
        <pt x="748" y="623" on="0"/>
        <pt x="981" y="675" on="0"/>
        <pt x="1053" y="717" on="1"/>
      </contour>
    </TTGlyph>
    <TTGlyph name="Cheverticalstrokecyrillic" xMin="164" yMin="0" xMax="1094" yMax="1454">
      <contour>
        <pt x="1053" y="1454" on="1"/>
        <pt x="1094" y="1454" on="1"/>
        <pt x="1094" y="0" on="1"/>
        <pt x="1053" y="0" on="1"/>
        <pt x="1053" y="670" on="1"/>
        <pt x="851" y="582" on="0"/>
        <pt x="625" y="582" on="1"/>
        <pt x="625" y="289" on="1"/>
        <pt x="584" y="289" on="1"/>
        <pt x="584" y="582" on="1"/>
        <pt x="365" y="589" on="0"/>
        <pt x="164" y="789" on="0"/>
        <pt x="164" y="999" on="1"/>
        <pt x="164" y="1454" on="1"/>
        <pt x="205" y="1454" on="1"/>
        <pt x="205" y="1004" on="1"/>
        <pt x="205" y="810" on="0"/>
        <pt x="385" y="629" on="0"/>
        <pt x="584" y="623" on="1"/>
        <pt x="584" y="940" on="1"/>
        <pt x="625" y="940" on="1"/>
        <pt x="625" y="623" on="1"/>
        <pt x="755" y="624" on="0"/>
        <pt x="984" y="676" on="0"/>
        <pt x="1053" y="717" on="1"/>
      </contour>
    </TTGlyph>
    <TTGlyph name="D" xMin="203" yMin="0" xMax="1352" yMax="1454">
      <contour>
        <pt x="203" y="0" on="1"/>
        <pt x="203" y="1454" on="1"/>
        <pt x="670" y="1454" on="1"/>
        <pt x="837" y="1454" on="0"/>
        <pt x="1100" y="1341" on="0"/>
        <pt x="1266" y="1142" on="0"/>
        <pt x="1352" y="881" on="0"/>
        <pt x="1352" y="729" on="1"/>
        <pt x="1352" y="398" on="0"/>
        <pt x="982" y="0" on="0"/>
        <pt x="670" y="0" on="1"/>
      </contour>
      <contour>
        <pt x="670" y="1413" on="1"/>
        <pt x="244" y="1413" on="1"/>
        <pt x="244" y="41" on="1"/>
        <pt x="670" y="41" on="1"/>
        <pt x="825" y="41" on="0"/>
        <pt x="1071" y="146" on="0"/>
        <pt x="1228" y="332" on="0"/>
        <pt x="1311" y="581" on="0"/>
        <pt x="1311" y="729" on="1"/>
        <pt x="1311" y="929" on="0"/>
        <pt x="1164" y="1236" on="0"/>
        <pt x="871" y="1413" on="0"/>
      </contour>
    </TTGlyph>
    <TTGlyph name="Dcaron" xMin="203" yMin="0" xMax="1352" yMax="1880">
      <contour>
        <pt x="549" y="1880" on="1"/>
        <pt x="723" y="1751" on="1"/>
        <pt x="897" y="1880" on="1"/>
        <pt x="930" y="1855" on="1"/>
        <pt x="739" y="1704" on="1"/>
        <pt x="707" y="1704" on="1"/>
        <pt x="516" y="1855" on="1"/>
      </contour>
      <contour>
        <pt x="203" y="0" on="1"/>
        <pt x="203" y="1454" on="1"/>
        <pt x="670" y="1454" on="1"/>
        <pt x="837" y="1454" on="0"/>
        <pt x="1100" y="1341" on="0"/>
        <pt x="1266" y="1142" on="0"/>
        <pt x="1352" y="881" on="0"/>
        <pt x="1352" y="729" on="1"/>
        <pt x="1352" y="398" on="0"/>
        <pt x="982" y="0" on="0"/>
        <pt x="670" y="0" on="1"/>
      </contour>
      <contour>
        <pt x="670" y="1413" on="1"/>
        <pt x="244" y="1413" on="1"/>
        <pt x="244" y="41" on="1"/>
        <pt x="670" y="41" on="1"/>
        <pt x="825" y="41" on="0"/>
        <pt x="1071" y="146" on="0"/>
        <pt x="1228" y="332" on="0"/>
        <pt x="1311" y="581" on="0"/>
        <pt x="1311" y="729" on="1"/>
        <pt x="1311" y="929" on="0"/>
        <pt x="1164" y="1236" on="0"/>
        <pt x="871" y="1413" on="0"/>
      </contour>
    </TTGlyph>
    <TTGlyph name="Dcroat" xMin="72" yMin="0" xMax="1366" yMax="1454">
      <contour>
        <pt x="684" y="1454" on="1"/>
        <pt x="851" y="1454" on="0"/>
        <pt x="1114" y="1341" on="0"/>
        <pt x="1280" y="1142" on="0"/>
        <pt x="1366" y="881" on="0"/>
        <pt x="1366" y="729" on="1"/>
        <pt x="1366" y="398" on="0"/>
        <pt x="996" y="0" on="0"/>
        <pt x="684" y="0" on="1"/>
        <pt x="217" y="0" on="1"/>
        <pt x="217" y="711" on="1"/>
        <pt x="72" y="711" on="1"/>
        <pt x="72" y="752" on="1"/>
        <pt x="217" y="752" on="1"/>
        <pt x="217" y="1454" on="1"/>
      </contour>
      <contour>
        <pt x="684" y="41" on="1"/>
        <pt x="839" y="41" on="0"/>
        <pt x="1085" y="146" on="0"/>
        <pt x="1242" y="332" on="0"/>
        <pt x="1325" y="581" on="0"/>
        <pt x="1325" y="729" on="1"/>
        <pt x="1325" y="929" on="0"/>
        <pt x="1178" y="1236" on="0"/>
        <pt x="885" y="1413" on="0"/>
        <pt x="684" y="1413" on="1"/>
        <pt x="258" y="1413" on="1"/>
        <pt x="258" y="752" on="1"/>
        <pt x="651" y="752" on="1"/>
        <pt x="651" y="711" on="1"/>
        <pt x="258" y="711" on="1"/>
        <pt x="258" y="41" on="1"/>
      </contour>
    </TTGlyph>
    <TTGlyph name="Ddotbelow" xMin="203" yMin="-260" xMax="1352" yMax="1454">
      <contour>
        <pt x="203" y="0" on="1"/>
        <pt x="203" y="1454" on="1"/>
        <pt x="670" y="1454" on="1"/>
        <pt x="837" y="1454" on="0"/>
        <pt x="1100" y="1341" on="0"/>
        <pt x="1266" y="1142" on="0"/>
        <pt x="1352" y="881" on="0"/>
        <pt x="1352" y="729" on="1"/>
        <pt x="1352" y="398" on="0"/>
        <pt x="982" y="0" on="0"/>
        <pt x="670" y="0" on="1"/>
      </contour>
      <contour>
        <pt x="670" y="1413" on="1"/>
        <pt x="244" y="1413" on="1"/>
        <pt x="244" y="41" on="1"/>
        <pt x="670" y="41" on="1"/>
        <pt x="825" y="41" on="0"/>
        <pt x="1071" y="146" on="0"/>
        <pt x="1228" y="332" on="0"/>
        <pt x="1311" y="581" on="0"/>
        <pt x="1311" y="729" on="1"/>
        <pt x="1311" y="929" on="0"/>
        <pt x="1164" y="1236" on="0"/>
        <pt x="871" y="1413" on="0"/>
      </contour>
      <contour>
        <pt x="711" y="-260" on="1"/>
        <pt x="711" y="-102" on="1"/>
        <pt x="752" y="-102" on="1"/>
        <pt x="752" y="-260" on="1"/>
      </contour>
    </TTGlyph>
    <TTGlyph name="Delta" xMin="6" yMin="0" xMax="1233" yMax="1454">
      <contour>
        <pt x="1233" y="41" on="1"/>
        <pt x="1233" y="0" on="1"/>
        <pt x="8" y="0" on="1"/>
        <pt x="6" y="41" on="1"/>
        <pt x="602" y="1454" on="1"/>
        <pt x="639" y="1454" on="1"/>
      </contour>
      <contour>
        <pt x="1188" y="41" on="1"/>
        <pt x="621" y="1395" on="1"/>
        <pt x="51" y="41" on="1"/>
      </contour>
    </TTGlyph>
    <TTGlyph name="Dlinebelow" xMin="203" yMin="-195" xMax="1352" yMax="1454">
      <contour>
        <pt x="203" y="0" on="1"/>
        <pt x="203" y="1454" on="1"/>
        <pt x="670" y="1454" on="1"/>
        <pt x="837" y="1454" on="0"/>
        <pt x="1100" y="1341" on="0"/>
        <pt x="1266" y="1142" on="0"/>
        <pt x="1352" y="881" on="0"/>
        <pt x="1352" y="729" on="1"/>
        <pt x="1352" y="398" on="0"/>
        <pt x="982" y="0" on="0"/>
        <pt x="670" y="0" on="1"/>
      </contour>
      <contour>
        <pt x="670" y="1413" on="1"/>
        <pt x="244" y="1413" on="1"/>
        <pt x="244" y="41" on="1"/>
        <pt x="670" y="41" on="1"/>
        <pt x="825" y="41" on="0"/>
        <pt x="1071" y="146" on="0"/>
        <pt x="1228" y="332" on="0"/>
        <pt x="1311" y="581" on="0"/>
        <pt x="1311" y="729" on="1"/>
        <pt x="1311" y="929" on="0"/>
        <pt x="1164" y="1236" on="0"/>
        <pt x="871" y="1413" on="0"/>
      </contour>
      <contour>
        <pt x="444" y="-195" on="1"/>
        <pt x="444" y="-154" on="1"/>
        <pt x="1018" y="-154" on="1"/>
        <pt x="1018" y="-195" on="1"/>
      </contour>
    </TTGlyph>
    <TTGlyph name="E" xMin="203" yMin="0" xMax="1157" yMax="1454">
      <contour>
        <pt x="1157" y="41" on="1"/>
        <pt x="1157" y="0" on="1"/>
        <pt x="203" y="0" on="1"/>
        <pt x="203" y="1454" on="1"/>
        <pt x="1139" y="1454" on="1"/>
        <pt x="1139" y="1413" on="1"/>
        <pt x="244" y="1413" on="1"/>
        <pt x="244" y="764" on="1"/>
        <pt x="1028" y="764" on="1"/>
        <pt x="1028" y="723" on="1"/>
        <pt x="244" y="723" on="1"/>
        <pt x="244" y="41" on="1"/>
      </contour>
    </TTGlyph>
    <TTGlyph name="Eacute" xMin="203" yMin="0" xMax="1157" yMax="1880">
      <contour>
        <pt x="717" y="1706" on="1"/>
        <pt x="684" y="1731" on="1"/>
        <pt x="815" y="1880" on="1"/>
        <pt x="885" y="1880" on="1"/>
      </contour>
      <contour>
        <pt x="1157" y="41" on="1"/>
        <pt x="1157" y="0" on="1"/>
        <pt x="203" y="0" on="1"/>
        <pt x="203" y="1454" on="1"/>
        <pt x="1139" y="1454" on="1"/>
        <pt x="1139" y="1413" on="1"/>
        <pt x="244" y="1413" on="1"/>
        <pt x="244" y="764" on="1"/>
        <pt x="1028" y="764" on="1"/>
        <pt x="1028" y="723" on="1"/>
        <pt x="244" y="723" on="1"/>
        <pt x="244" y="41" on="1"/>
      </contour>
    </TTGlyph>
    <TTGlyph name="Ebreve" xMin="203" yMin="0" xMax="1157" yMax="1880">
      <contour>
        <pt x="819" y="1880" on="1"/>
        <pt x="856" y="1880" on="1"/>
        <pt x="856" y="1817" on="0"/>
        <pt x="765" y="1722" on="0"/>
        <pt x="645" y="1722" on="0"/>
        <pt x="553" y="1817" on="0"/>
        <pt x="553" y="1880" on="1"/>
        <pt x="592" y="1880" on="1"/>
        <pt x="592" y="1834" on="0"/>
        <pt x="662" y="1757" on="0"/>
        <pt x="705" y="1757" on="1"/>
        <pt x="746" y="1757" on="0"/>
        <pt x="813" y="1829" on="0"/>
      </contour>
      <contour>
        <pt x="1157" y="41" on="1"/>
        <pt x="1157" y="0" on="1"/>
        <pt x="203" y="0" on="1"/>
        <pt x="203" y="1454" on="1"/>
        <pt x="1139" y="1454" on="1"/>
        <pt x="1139" y="1413" on="1"/>
        <pt x="244" y="1413" on="1"/>
        <pt x="244" y="764" on="1"/>
        <pt x="1028" y="764" on="1"/>
        <pt x="1028" y="723" on="1"/>
        <pt x="244" y="723" on="1"/>
        <pt x="244" y="41" on="1"/>
      </contour>
    </TTGlyph>
    <TTGlyph name="Ecaron" xMin="203" yMin="0" xMax="1157" yMax="1880">
      <contour>
        <pt x="530" y="1880" on="1"/>
        <pt x="705" y="1751" on="1"/>
        <pt x="879" y="1880" on="1"/>
        <pt x="911" y="1855" on="1"/>
        <pt x="721" y="1704" on="1"/>
        <pt x="688" y="1704" on="1"/>
        <pt x="498" y="1855" on="1"/>
      </contour>
      <contour>
        <pt x="1157" y="41" on="1"/>
        <pt x="1157" y="0" on="1"/>
        <pt x="203" y="0" on="1"/>
        <pt x="203" y="1454" on="1"/>
        <pt x="1139" y="1454" on="1"/>
        <pt x="1139" y="1413" on="1"/>
        <pt x="244" y="1413" on="1"/>
        <pt x="244" y="764" on="1"/>
        <pt x="1028" y="764" on="1"/>
        <pt x="1028" y="723" on="1"/>
        <pt x="244" y="723" on="1"/>
        <pt x="244" y="41" on="1"/>
      </contour>
    </TTGlyph>
    <TTGlyph name="Ecedillabreve" xMin="203" yMin="-336" xMax="1157" yMax="1880">
      <contour>
        <pt x="765" y="1722" on="0"/>
        <pt x="645" y="1722" on="0"/>
        <pt x="553" y="1817" on="0"/>
        <pt x="553" y="1880" on="1"/>
        <pt x="592" y="1880" on="1"/>
        <pt x="592" y="1834" on="0"/>
        <pt x="662" y="1757" on="0"/>
        <pt x="705" y="1757" on="1"/>
        <pt x="746" y="1757" on="0"/>
        <pt x="813" y="1829" on="0"/>
        <pt x="819" y="1880" on="1"/>
        <pt x="856" y="1880" on="1"/>
        <pt x="856" y="1817" on="0"/>
      </contour>
      <contour>
        <pt x="1157" y="41" on="1"/>
        <pt x="1157" y="0" on="1"/>
        <pt x="754" y="0" on="1"/>
        <pt x="818" y="-39" on="0"/>
        <pt x="883" y="-126" on="0"/>
        <pt x="883" y="-184" on="1"/>
        <pt x="883" y="-260" on="0"/>
        <pt x="775" y="-336" on="0"/>
        <pt x="684" y="-336" on="1"/>
        <pt x="561" y="-336" on="0"/>
        <pt x="459" y="-285" on="1"/>
        <pt x="481" y="-250" on="1"/>
        <pt x="539" y="-275" on="0"/>
        <pt x="624" y="-299" on="0"/>
        <pt x="678" y="-299" on="1"/>
        <pt x="842" y="-299" on="0"/>
        <pt x="842" y="-184" on="1"/>
        <pt x="842" y="-127" on="0"/>
        <pt x="766" y="-44" on="0"/>
        <pt x="684" y="0" on="1"/>
        <pt x="203" y="0" on="1"/>
        <pt x="203" y="1454" on="1"/>
        <pt x="1139" y="1454" on="1"/>
        <pt x="1139" y="1413" on="1"/>
        <pt x="244" y="1413" on="1"/>
        <pt x="244" y="764" on="1"/>
        <pt x="1028" y="764" on="1"/>
        <pt x="1028" y="723" on="1"/>
        <pt x="244" y="723" on="1"/>
        <pt x="244" y="41" on="1"/>
      </contour>
    </TTGlyph>
    <TTGlyph name="Ecircumflex" xMin="203" yMin="0" xMax="1157" yMax="1880">
      <contour>
        <pt x="498" y="1729" on="1"/>
        <pt x="688" y="1880" on="1"/>
        <pt x="721" y="1880" on="1"/>
        <pt x="911" y="1729" on="1"/>
        <pt x="879" y="1704" on="1"/>
        <pt x="705" y="1833" on="1"/>
        <pt x="530" y="1704" on="1"/>
      </contour>
      <contour>
        <pt x="1157" y="41" on="1"/>
        <pt x="1157" y="0" on="1"/>
        <pt x="203" y="0" on="1"/>
        <pt x="203" y="1454" on="1"/>
        <pt x="1139" y="1454" on="1"/>
        <pt x="1139" y="1413" on="1"/>
        <pt x="244" y="1413" on="1"/>
        <pt x="244" y="764" on="1"/>
        <pt x="1028" y="764" on="1"/>
        <pt x="1028" y="723" on="1"/>
        <pt x="244" y="723" on="1"/>
        <pt x="244" y="41" on="1"/>
      </contour>
    </TTGlyph>
    <TTGlyph name="Ecircumflexacute" xMin="203" yMin="0" xMax="1157" yMax="1874">
      <contour>
        <pt x="899" y="1700" on="1"/>
        <pt x="866" y="1724" on="1"/>
        <pt x="997" y="1874" on="1"/>
        <pt x="1067" y="1874" on="1"/>
      </contour>
      <contour>
        <pt x="492" y="1632" on="1"/>
        <pt x="682" y="1784" on="1"/>
        <pt x="715" y="1784" on="1"/>
        <pt x="905" y="1632" on="1"/>
        <pt x="872" y="1608" on="1"/>
        <pt x="698" y="1737" on="1"/>
        <pt x="524" y="1608" on="1"/>
      </contour>
      <contour>
        <pt x="1157" y="41" on="1"/>
        <pt x="1157" y="0" on="1"/>
        <pt x="203" y="0" on="1"/>
        <pt x="203" y="1454" on="1"/>
        <pt x="1139" y="1454" on="1"/>
        <pt x="1139" y="1413" on="1"/>
        <pt x="244" y="1413" on="1"/>
        <pt x="244" y="764" on="1"/>
        <pt x="1028" y="764" on="1"/>
        <pt x="1028" y="723" on="1"/>
        <pt x="244" y="723" on="1"/>
        <pt x="244" y="41" on="1"/>
      </contour>
    </TTGlyph>
    <TTGlyph name="Ecircumflexdotbelow" xMin="203" yMin="-260" xMax="1157" yMax="1880">
      <contour>
        <pt x="498" y="1729" on="1"/>
        <pt x="688" y="1880" on="1"/>
        <pt x="721" y="1880" on="1"/>
        <pt x="911" y="1729" on="1"/>
        <pt x="879" y="1704" on="1"/>
        <pt x="705" y="1833" on="1"/>
        <pt x="530" y="1704" on="1"/>
      </contour>
      <contour>
        <pt x="1157" y="41" on="1"/>
        <pt x="1157" y="0" on="1"/>
        <pt x="203" y="0" on="1"/>
        <pt x="203" y="1454" on="1"/>
        <pt x="1139" y="1454" on="1"/>
        <pt x="1139" y="1413" on="1"/>
        <pt x="244" y="1413" on="1"/>
        <pt x="244" y="764" on="1"/>
        <pt x="1028" y="764" on="1"/>
        <pt x="1028" y="723" on="1"/>
        <pt x="244" y="723" on="1"/>
        <pt x="244" y="41" on="1"/>
      </contour>
      <contour>
        <pt x="684" y="-260" on="1"/>
        <pt x="684" y="-102" on="1"/>
        <pt x="725" y="-102" on="1"/>
        <pt x="725" y="-260" on="1"/>
      </contour>
    </TTGlyph>
    <TTGlyph name="Ecircumflexgrave" xMin="203" yMin="0" xMax="1157" yMax="1907">
      <contour>
        <pt x="332" y="1907" on="1"/>
        <pt x="399" y="1907" on="1"/>
        <pt x="532" y="1757" on="1"/>
        <pt x="500" y="1733" on="1"/>
      </contour>
      <contour>
        <pt x="489" y="1632" on="1"/>
        <pt x="680" y="1784" on="1"/>
        <pt x="713" y="1784" on="1"/>
        <pt x="903" y="1632" on="1"/>
        <pt x="870" y="1608" on="1"/>
        <pt x="696" y="1737" on="1"/>
        <pt x="522" y="1608" on="1"/>
      </contour>
      <contour>
        <pt x="1157" y="41" on="1"/>
        <pt x="1157" y="0" on="1"/>
        <pt x="203" y="0" on="1"/>
        <pt x="203" y="1454" on="1"/>
        <pt x="1139" y="1454" on="1"/>
        <pt x="1139" y="1413" on="1"/>
        <pt x="244" y="1413" on="1"/>
        <pt x="244" y="764" on="1"/>
        <pt x="1028" y="764" on="1"/>
        <pt x="1028" y="723" on="1"/>
        <pt x="244" y="723" on="1"/>
        <pt x="244" y="41" on="1"/>
      </contour>
    </TTGlyph>
    <TTGlyph name="Ecircumflexhookabove" xMin="203" yMin="0" xMax="1157" yMax="1989">
      <contour>
        <pt x="756" y="1901" on="1"/>
        <pt x="731" y="1927" on="1"/>
        <pt x="768" y="1960" on="0"/>
        <pt x="821" y="1989" on="0"/>
        <pt x="858" y="1989" on="1"/>
        <pt x="909" y="1989" on="0"/>
        <pt x="975" y="1926" on="0"/>
        <pt x="975" y="1872" on="1"/>
        <pt x="975" y="1861" on="0"/>
        <pt x="972" y="1841" on="0"/>
        <pt x="962" y="1820" on="0"/>
        <pt x="954" y="1806" on="0"/>
        <pt x="935" y="1782" on="0"/>
        <pt x="925" y="1771" on="0"/>
        <pt x="899" y="1741" on="0"/>
        <pt x="893" y="1735" on="1"/>
        <pt x="868" y="1757" on="1"/>
        <pt x="906" y="1800" on="0"/>
        <pt x="938" y="1849" on="0"/>
        <pt x="938" y="1872" on="1"/>
        <pt x="938" y="1907" on="0"/>
        <pt x="896" y="1952" on="0"/>
        <pt x="854" y="1952" on="1"/>
        <pt x="828" y="1952" on="0"/>
        <pt x="791" y="1931" on="0"/>
      </contour>
      <contour>
        <pt x="487" y="1632" on="1"/>
        <pt x="678" y="1784" on="1"/>
        <pt x="711" y="1784" on="1"/>
        <pt x="901" y="1632" on="1"/>
        <pt x="868" y="1608" on="1"/>
        <pt x="694" y="1737" on="1"/>
        <pt x="520" y="1608" on="1"/>
      </contour>
      <contour>
        <pt x="1157" y="41" on="1"/>
        <pt x="1157" y="0" on="1"/>
        <pt x="203" y="0" on="1"/>
        <pt x="203" y="1454" on="1"/>
        <pt x="1139" y="1454" on="1"/>
        <pt x="1139" y="1413" on="1"/>
        <pt x="244" y="1413" on="1"/>
        <pt x="244" y="764" on="1"/>
        <pt x="1028" y="764" on="1"/>
        <pt x="1028" y="723" on="1"/>
        <pt x="244" y="723" on="1"/>
        <pt x="244" y="41" on="1"/>
      </contour>
    </TTGlyph>
    <TTGlyph name="Ecircumflextilde" xMin="203" yMin="0" xMax="1157" yMax="1972">
      <contour>
        <pt x="580" y="1913" on="1"/>
        <pt x="550" y="1913" on="0"/>
        <pt x="504" y="1887" on="0"/>
        <pt x="484" y="1849" on="0"/>
        <pt x="475" y="1822" on="0"/>
        <pt x="475" y="1815" on="1"/>
        <pt x="434" y="1815" on="1"/>
        <pt x="434" y="1822" on="0"/>
        <pt x="439" y="1847" on="0"/>
        <pt x="458" y="1890" on="0"/>
        <pt x="488" y="1925" on="0"/>
        <pt x="546" y="1952" on="0"/>
        <pt x="584" y="1952" on="1"/>
        <pt x="637" y="1952" on="0"/>
        <pt x="788" y="1874" on="0"/>
        <pt x="840" y="1874" on="1"/>
        <pt x="872" y="1874" on="0"/>
        <pt x="920" y="1893" on="0"/>
        <pt x="943" y="1919" on="0"/>
        <pt x="958" y="1950" on="0"/>
        <pt x="961" y="1967" on="0"/>
        <pt x="961" y="1972" on="1"/>
        <pt x="1001" y="1972" on="1"/>
        <pt x="1001" y="1964" on="0"/>
        <pt x="996" y="1938" on="0"/>
        <pt x="976" y="1895" on="0"/>
        <pt x="943" y="1861" on="0"/>
        <pt x="878" y="1835" on="0"/>
        <pt x="836" y="1835" on="1"/>
        <pt x="785" y="1835" on="0"/>
        <pt x="692" y="1874" on="0"/>
        <pt x="614" y="1913" on="0"/>
      </contour>
      <contour>
        <pt x="489" y="1634" on="1"/>
        <pt x="680" y="1786" on="1"/>
        <pt x="713" y="1786" on="1"/>
        <pt x="903" y="1634" on="1"/>
        <pt x="870" y="1610" on="1"/>
        <pt x="696" y="1739" on="1"/>
        <pt x="522" y="1610" on="1"/>
      </contour>
      <contour>
        <pt x="1157" y="41" on="1"/>
        <pt x="1157" y="0" on="1"/>
        <pt x="203" y="0" on="1"/>
        <pt x="203" y="1454" on="1"/>
        <pt x="1139" y="1454" on="1"/>
        <pt x="1139" y="1413" on="1"/>
        <pt x="244" y="1413" on="1"/>
        <pt x="244" y="764" on="1"/>
        <pt x="1028" y="764" on="1"/>
        <pt x="1028" y="723" on="1"/>
        <pt x="244" y="723" on="1"/>
        <pt x="244" y="41" on="1"/>
      </contour>
    </TTGlyph>
    <TTGlyph name="Edblgrave" xMin="203" yMin="0" xMax="1157" yMax="1880">
      <contour>
        <pt x="438" y="1880" on="1"/>
        <pt x="508" y="1880" on="1"/>
        <pt x="639" y="1731" on="1"/>
        <pt x="606" y="1706" on="1"/>
      </contour>
      <contour>
        <pt x="643" y="1880" on="1"/>
        <pt x="713" y="1880" on="1"/>
        <pt x="844" y="1731" on="1"/>
        <pt x="811" y="1706" on="1"/>
      </contour>
      <contour>
        <pt x="1157" y="41" on="1"/>
        <pt x="1157" y="0" on="1"/>
        <pt x="203" y="0" on="1"/>
        <pt x="203" y="1454" on="1"/>
        <pt x="1139" y="1454" on="1"/>
        <pt x="1139" y="1413" on="1"/>
        <pt x="244" y="1413" on="1"/>
        <pt x="244" y="764" on="1"/>
        <pt x="1028" y="764" on="1"/>
        <pt x="1028" y="723" on="1"/>
        <pt x="244" y="723" on="1"/>
        <pt x="244" y="41" on="1"/>
      </contour>
    </TTGlyph>
    <TTGlyph name="Edieresis" xMin="203" yMin="0" xMax="1157" yMax="1880">
      <contour>
        <pt x="565" y="1722" on="1"/>
        <pt x="565" y="1880" on="1"/>
        <pt x="606" y="1880" on="1"/>
        <pt x="606" y="1722" on="1"/>
      </contour>
      <contour>
        <pt x="803" y="1722" on="1"/>
        <pt x="803" y="1880" on="1"/>
        <pt x="844" y="1880" on="1"/>
        <pt x="844" y="1722" on="1"/>
      </contour>
      <contour>
        <pt x="1157" y="41" on="1"/>
        <pt x="1157" y="0" on="1"/>
        <pt x="203" y="0" on="1"/>
        <pt x="203" y="1454" on="1"/>
        <pt x="1139" y="1454" on="1"/>
        <pt x="1139" y="1413" on="1"/>
        <pt x="244" y="1413" on="1"/>
        <pt x="244" y="764" on="1"/>
        <pt x="1028" y="764" on="1"/>
        <pt x="1028" y="723" on="1"/>
        <pt x="244" y="723" on="1"/>
        <pt x="244" y="41" on="1"/>
      </contour>
    </TTGlyph>
    <TTGlyph name="Edot" xMin="203" yMin="0" xMax="1157" yMax="1880">
      <contour>
        <pt x="684" y="1722" on="1"/>
        <pt x="684" y="1880" on="1"/>
        <pt x="725" y="1880" on="1"/>
        <pt x="725" y="1722" on="1"/>
      </contour>
      <contour>
        <pt x="1157" y="41" on="1"/>
        <pt x="1157" y="0" on="1"/>
        <pt x="203" y="0" on="1"/>
        <pt x="203" y="1454" on="1"/>
        <pt x="1139" y="1454" on="1"/>
        <pt x="1139" y="1413" on="1"/>
        <pt x="244" y="1413" on="1"/>
        <pt x="244" y="764" on="1"/>
        <pt x="1028" y="764" on="1"/>
        <pt x="1028" y="723" on="1"/>
        <pt x="244" y="723" on="1"/>
        <pt x="244" y="41" on="1"/>
      </contour>
    </TTGlyph>
    <TTGlyph name="Edotbelow" xMin="203" yMin="-260" xMax="1157" yMax="1454">
      <contour>
        <pt x="1157" y="41" on="1"/>
        <pt x="1157" y="0" on="1"/>
        <pt x="203" y="0" on="1"/>
        <pt x="203" y="1454" on="1"/>
        <pt x="1139" y="1454" on="1"/>
        <pt x="1139" y="1413" on="1"/>
        <pt x="244" y="1413" on="1"/>
        <pt x="244" y="764" on="1"/>
        <pt x="1028" y="764" on="1"/>
        <pt x="1028" y="723" on="1"/>
        <pt x="244" y="723" on="1"/>
        <pt x="244" y="41" on="1"/>
      </contour>
      <contour>
        <pt x="684" y="-260" on="1"/>
        <pt x="684" y="-102" on="1"/>
        <pt x="725" y="-102" on="1"/>
        <pt x="725" y="-260" on="1"/>
      </contour>
    </TTGlyph>
    <TTGlyph name="Egrave" xMin="203" yMin="0" xMax="1157" yMax="1880">
      <contour>
        <pt x="565" y="1880" on="1"/>
        <pt x="633" y="1880" on="1"/>
        <pt x="766" y="1731" on="1"/>
        <pt x="733" y="1706" on="1"/>
      </contour>
      <contour>
        <pt x="1157" y="41" on="1"/>
        <pt x="1157" y="0" on="1"/>
        <pt x="203" y="0" on="1"/>
        <pt x="203" y="1454" on="1"/>
        <pt x="1139" y="1454" on="1"/>
        <pt x="1139" y="1413" on="1"/>
        <pt x="244" y="1413" on="1"/>
        <pt x="244" y="764" on="1"/>
        <pt x="1028" y="764" on="1"/>
        <pt x="1028" y="723" on="1"/>
        <pt x="244" y="723" on="1"/>
        <pt x="244" y="41" on="1"/>
      </contour>
    </TTGlyph>
    <TTGlyph name="Ehookabove" xMin="203" yMin="0" xMax="1157" yMax="1870">
      <contour>
        <pt x="606" y="1782" on="1"/>
        <pt x="582" y="1808" on="1"/>
        <pt x="619" y="1841" on="0"/>
        <pt x="672" y="1870" on="0"/>
        <pt x="709" y="1870" on="1"/>
        <pt x="760" y="1870" on="0"/>
        <pt x="825" y="1807" on="0"/>
        <pt x="825" y="1753" on="1"/>
        <pt x="825" y="1742" on="0"/>
        <pt x="822" y="1722" on="0"/>
        <pt x="812" y="1701" on="0"/>
        <pt x="804" y="1687" on="0"/>
        <pt x="785" y="1663" on="0"/>
        <pt x="775" y="1652" on="0"/>
        <pt x="749" y="1622" on="0"/>
        <pt x="743" y="1616" on="1"/>
        <pt x="719" y="1638" on="1"/>
        <pt x="756" y="1680" on="0"/>
        <pt x="788" y="1730" on="0"/>
        <pt x="788" y="1753" on="1"/>
        <pt x="788" y="1788" on="0"/>
        <pt x="747" y="1833" on="0"/>
        <pt x="705" y="1833" on="1"/>
        <pt x="679" y="1833" on="0"/>
        <pt x="640" y="1811" on="0"/>
      </contour>
      <contour>
        <pt x="1157" y="41" on="1"/>
        <pt x="1157" y="0" on="1"/>
        <pt x="203" y="0" on="1"/>
        <pt x="203" y="1454" on="1"/>
        <pt x="1139" y="1454" on="1"/>
        <pt x="1139" y="1413" on="1"/>
        <pt x="244" y="1413" on="1"/>
        <pt x="244" y="764" on="1"/>
        <pt x="1028" y="764" on="1"/>
        <pt x="1028" y="723" on="1"/>
        <pt x="244" y="723" on="1"/>
        <pt x="244" y="41" on="1"/>
      </contour>
    </TTGlyph>
    <TTGlyph name="Einvertedbreve" xMin="203" yMin="0" xMax="1157" yMax="1880">
      <contour>
        <pt x="592" y="1722" on="1"/>
        <pt x="553" y="1722" on="1"/>
        <pt x="553" y="1785" on="0"/>
        <pt x="645" y="1880" on="0"/>
        <pt x="765" y="1880" on="0"/>
        <pt x="856" y="1785" on="0"/>
        <pt x="856" y="1722" on="1"/>
        <pt x="819" y="1722" on="1"/>
        <pt x="813" y="1773" on="0"/>
        <pt x="746" y="1845" on="0"/>
        <pt x="705" y="1845" on="1"/>
        <pt x="662" y="1845" on="0"/>
        <pt x="592" y="1768" on="0"/>
      </contour>
      <contour>
        <pt x="1157" y="41" on="1"/>
        <pt x="1157" y="0" on="1"/>
        <pt x="203" y="0" on="1"/>
        <pt x="203" y="1454" on="1"/>
        <pt x="1139" y="1454" on="1"/>
        <pt x="1139" y="1413" on="1"/>
        <pt x="244" y="1413" on="1"/>
        <pt x="244" y="764" on="1"/>
        <pt x="1028" y="764" on="1"/>
        <pt x="1028" y="723" on="1"/>
        <pt x="244" y="723" on="1"/>
        <pt x="244" y="41" on="1"/>
      </contour>
    </TTGlyph>
    <TTGlyph name="Emacron" xMin="203" yMin="0" xMax="1157" yMax="1831">
      <contour>
        <pt x="418" y="1790" on="1"/>
        <pt x="418" y="1831" on="1"/>
        <pt x="991" y="1831" on="1"/>
        <pt x="991" y="1790" on="1"/>
      </contour>
      <contour>
        <pt x="1157" y="41" on="1"/>
        <pt x="1157" y="0" on="1"/>
        <pt x="203" y="0" on="1"/>
        <pt x="203" y="1454" on="1"/>
        <pt x="1139" y="1454" on="1"/>
        <pt x="1139" y="1413" on="1"/>
        <pt x="244" y="1413" on="1"/>
        <pt x="244" y="764" on="1"/>
        <pt x="1028" y="764" on="1"/>
        <pt x="1028" y="723" on="1"/>
        <pt x="244" y="723" on="1"/>
        <pt x="244" y="41" on="1"/>
      </contour>
    </TTGlyph>
    <TTGlyph name="Emacronacute" xMin="203" yMin="0" xMax="1157" yMax="2263">
      <contour>
        <pt x="717" y="2089" on="1"/>
        <pt x="684" y="2114" on="1"/>
        <pt x="815" y="2263" on="1"/>
        <pt x="885" y="2263" on="1"/>
      </contour>
      <contour>
        <pt x="418" y="1790" on="1"/>
        <pt x="418" y="1831" on="1"/>
        <pt x="991" y="1831" on="1"/>
        <pt x="991" y="1790" on="1"/>
      </contour>
      <contour>
        <pt x="1157" y="41" on="1"/>
        <pt x="1157" y="0" on="1"/>
        <pt x="203" y="0" on="1"/>
        <pt x="203" y="1454" on="1"/>
        <pt x="1139" y="1454" on="1"/>
        <pt x="1139" y="1413" on="1"/>
        <pt x="244" y="1413" on="1"/>
        <pt x="244" y="764" on="1"/>
        <pt x="1028" y="764" on="1"/>
        <pt x="1028" y="723" on="1"/>
        <pt x="244" y="723" on="1"/>
        <pt x="244" y="41" on="1"/>
      </contour>
    </TTGlyph>
    <TTGlyph name="Emacrongrave" xMin="203" yMin="0" xMax="1157" yMax="2263">
      <contour>
        <pt x="565" y="2263" on="1"/>
        <pt x="633" y="2263" on="1"/>
        <pt x="766" y="2114" on="1"/>
        <pt x="733" y="2089" on="1"/>
      </contour>
      <contour>
        <pt x="418" y="1790" on="1"/>
        <pt x="418" y="1831" on="1"/>
        <pt x="991" y="1831" on="1"/>
        <pt x="991" y="1790" on="1"/>
      </contour>
      <contour>
        <pt x="1157" y="41" on="1"/>
        <pt x="1157" y="0" on="1"/>
        <pt x="203" y="0" on="1"/>
        <pt x="203" y="1454" on="1"/>
        <pt x="1139" y="1454" on="1"/>
        <pt x="1139" y="1413" on="1"/>
        <pt x="244" y="1413" on="1"/>
        <pt x="244" y="764" on="1"/>
        <pt x="1028" y="764" on="1"/>
        <pt x="1028" y="723" on="1"/>
        <pt x="244" y="723" on="1"/>
        <pt x="244" y="41" on="1"/>
      </contour>
    </TTGlyph>
    <TTGlyph name="Endescendercyrillic" xMin="203" yMin="-276" xMax="1462" yMax="1454">
      <contour>
        <pt x="1294" y="41" on="1"/>
        <pt x="1462" y="41" on="1"/>
        <pt x="1462" y="-276" on="1"/>
        <pt x="1421" y="-276" on="1"/>
        <pt x="1421" y="0" on="1"/>
        <pt x="1253" y="0" on="1"/>
        <pt x="1253" y="723" on="1"/>
        <pt x="244" y="723" on="1"/>
        <pt x="244" y="0" on="1"/>
        <pt x="203" y="0" on="1"/>
        <pt x="203" y="1454" on="1"/>
        <pt x="244" y="1454" on="1"/>
        <pt x="244" y="764" on="1"/>
        <pt x="1253" y="764" on="1"/>
        <pt x="1253" y="1454" on="1"/>
        <pt x="1294" y="1454" on="1"/>
      </contour>
    </TTGlyph>
    <TTGlyph name="Eng" xMin="203" yMin="-348" xMax="1386" yMax="1454">
      <contour>
        <pt x="244" y="1374" on="1"/>
        <pt x="244" y="0" on="1"/>
        <pt x="203" y="0" on="1"/>
        <pt x="203" y="1454" on="1"/>
        <pt x="233" y="1454" on="1"/>
        <pt x="1346" y="59" on="1"/>
        <pt x="1346" y="1452" on="1"/>
        <pt x="1386" y="1452" on="1"/>
        <pt x="1386" y="-74" on="1"/>
        <pt x="1386" y="-189" on="0"/>
        <pt x="1215" y="-348" on="0"/>
        <pt x="1114" y="-348" on="1"/>
        <pt x="978" y="-348" on="0"/>
        <pt x="909" y="-279" on="1"/>
        <pt x="942" y="-254" on="1"/>
        <pt x="1002" y="-307" on="0"/>
        <pt x="1112" y="-307" on="1"/>
        <pt x="1200" y="-307" on="0"/>
        <pt x="1346" y="-169" on="0"/>
        <pt x="1346" y="-74" on="1"/>
        <pt x="1346" y="-8" on="1"/>
      </contour>
    </TTGlyph>
    <TTGlyph name="Enghecyrillic" xMin="203" yMin="0" xMax="2030" yMax="1454">
      <contour>
        <pt x="2030" y="1454" on="1"/>
        <pt x="2030" y="1413" on="1"/>
        <pt x="1294" y="1413" on="1"/>
        <pt x="1294" y="0" on="1"/>
        <pt x="1253" y="0" on="1"/>
        <pt x="1253" y="723" on="1"/>
        <pt x="244" y="723" on="1"/>
        <pt x="244" y="0" on="1"/>
        <pt x="203" y="0" on="1"/>
        <pt x="203" y="1454" on="1"/>
        <pt x="244" y="1454" on="1"/>
        <pt x="244" y="764" on="1"/>
        <pt x="1253" y="764" on="1"/>
        <pt x="1253" y="1454" on="1"/>
      </contour>
    </TTGlyph>
    <TTGlyph name="Eogonek" xMin="203" yMin="-336" xMax="1157" yMax="1454">
      <contour>
        <pt x="1157" y="0" on="1"/>
        <pt x="1073" y="-65" on="0"/>
        <pt x="1001" y="-157" on="0"/>
        <pt x="1001" y="-199" on="1"/>
        <pt x="1001" y="-237" on="0"/>
        <pt x="1066" y="-282" on="0"/>
        <pt x="1149" y="-301" on="1"/>
        <pt x="1124" y="-336" on="1"/>
        <pt x="1035" y="-319" on="0"/>
        <pt x="958" y="-256" on="0"/>
        <pt x="958" y="-205" on="1"/>
        <pt x="958" y="-156" on="0"/>
        <pt x="1026" y="-61" on="0"/>
        <pt x="1096" y="0" on="1"/>
        <pt x="203" y="0" on="1"/>
        <pt x="203" y="1454" on="1"/>
        <pt x="1139" y="1454" on="1"/>
        <pt x="1139" y="1413" on="1"/>
        <pt x="244" y="1413" on="1"/>
        <pt x="244" y="764" on="1"/>
        <pt x="1028" y="764" on="1"/>
        <pt x="1028" y="723" on="1"/>
        <pt x="244" y="723" on="1"/>
        <pt x="244" y="41" on="1"/>
        <pt x="1157" y="41" on="1"/>
      </contour>
    </TTGlyph>
    <TTGlyph name="Esdescendercyrillic" xMin="98" yMin="-287" xMax="1350" yMax="1462">
      <contour>
        <pt x="1350" y="326" on="1"/>
        <pt x="1303" y="223" on="0"/>
        <pt x="1118" y="69" on="0"/>
        <pt x="902" y="-9" on="0"/>
        <pt x="791" y="-12" on="1"/>
        <pt x="791" y="-287" on="1"/>
        <pt x="750" y="-287" on="1"/>
        <pt x="750" y="-12" on="1"/>
        <pt x="611" y="-6" on="0"/>
        <pt x="364" y="129" on="0"/>
        <pt x="196" y="338" on="0"/>
        <pt x="98" y="602" on="0"/>
        <pt x="98" y="737" on="1"/>
        <pt x="98" y="842" on="0"/>
        <pt x="156" y="1050" on="0"/>
        <pt x="273" y="1236" on="0"/>
        <pt x="434" y="1378" on="0"/>
        <pt x="657" y="1462" on="0"/>
        <pt x="784" y="1462" on="1"/>
        <pt x="971" y="1462" on="0"/>
        <pt x="1246" y="1289" on="0"/>
        <pt x="1315" y="1145" on="1"/>
        <pt x="1276" y="1133" on="1"/>
        <pt x="1235" y="1210" on="0"/>
        <pt x="1119" y="1325" on="0"/>
        <pt x="986" y="1390" on="0"/>
        <pt x="849" y="1421" on="0"/>
        <pt x="776" y="1421" on="1"/>
        <pt x="629" y="1421" on="0"/>
        <pt x="383" y="1300" on="0"/>
        <pt x="226" y="1103" on="0"/>
        <pt x="139" y="859" on="0"/>
        <pt x="139" y="731" on="1"/>
        <pt x="139" y="594" on="0"/>
        <pt x="240" y="336" on="0"/>
        <pt x="411" y="145" on="0"/>
        <pt x="651" y="29" on="0"/>
        <pt x="782" y="29" on="1"/>
        <pt x="938" y="29" on="0"/>
        <pt x="1231" y="185" on="0"/>
        <pt x="1311" y="336" on="1"/>
      </contour>
    </TTGlyph>
    <TTGlyph name="Eth" xMin="72" yMin="0" xMax="1366" yMax="1454">
      <contour>
        <pt x="684" y="1454" on="1"/>
        <pt x="851" y="1454" on="0"/>
        <pt x="1114" y="1341" on="0"/>
        <pt x="1280" y="1142" on="0"/>
        <pt x="1366" y="881" on="0"/>
        <pt x="1366" y="729" on="1"/>
        <pt x="1366" y="398" on="0"/>
        <pt x="996" y="0" on="0"/>
        <pt x="684" y="0" on="1"/>
        <pt x="217" y="0" on="1"/>
        <pt x="217" y="711" on="1"/>
        <pt x="72" y="711" on="1"/>
        <pt x="72" y="752" on="1"/>
        <pt x="217" y="752" on="1"/>
        <pt x="217" y="1454" on="1"/>
      </contour>
      <contour>
        <pt x="684" y="41" on="1"/>
        <pt x="839" y="41" on="0"/>
        <pt x="1085" y="146" on="0"/>
        <pt x="1242" y="332" on="0"/>
        <pt x="1325" y="581" on="0"/>
        <pt x="1325" y="729" on="1"/>
        <pt x="1325" y="929" on="0"/>
        <pt x="1178" y="1236" on="0"/>
        <pt x="885" y="1413" on="0"/>
        <pt x="684" y="1413" on="1"/>
        <pt x="258" y="1413" on="1"/>
        <pt x="258" y="752" on="1"/>
        <pt x="651" y="752" on="1"/>
        <pt x="651" y="711" on="1"/>
        <pt x="258" y="711" on="1"/>
        <pt x="258" y="41" on="1"/>
      </contour>
    </TTGlyph>
    <TTGlyph name="Etilde" xMin="203" yMin="0" xMax="1157" yMax="1880">
      <contour>
        <pt x="565" y="1821" on="1"/>
        <pt x="535" y="1821" on="0"/>
        <pt x="490" y="1794" on="0"/>
        <pt x="470" y="1757" on="0"/>
        <pt x="461" y="1729" on="0"/>
        <pt x="461" y="1722" on="1"/>
        <pt x="420" y="1722" on="1"/>
        <pt x="420" y="1729" on="0"/>
        <pt x="425" y="1754" on="0"/>
        <pt x="443" y="1797" on="0"/>
        <pt x="473" y="1833" on="0"/>
        <pt x="531" y="1860" on="0"/>
        <pt x="569" y="1860" on="1"/>
        <pt x="622" y="1860" on="0"/>
        <pt x="773" y="1782" on="0"/>
        <pt x="825" y="1782" on="1"/>
        <pt x="857" y="1782" on="0"/>
        <pt x="905" y="1801" on="0"/>
        <pt x="928" y="1827" on="0"/>
        <pt x="943" y="1858" on="0"/>
        <pt x="946" y="1875" on="0"/>
        <pt x="946" y="1880" on="1"/>
        <pt x="987" y="1880" on="1"/>
        <pt x="987" y="1872" on="0"/>
        <pt x="982" y="1846" on="0"/>
        <pt x="961" y="1803" on="0"/>
        <pt x="928" y="1769" on="0"/>
        <pt x="863" y="1743" on="0"/>
        <pt x="821" y="1743" on="1"/>
        <pt x="770" y="1743" on="0"/>
        <pt x="677" y="1782" on="0"/>
        <pt x="599" y="1821" on="0"/>
      </contour>
      <contour>
        <pt x="1157" y="41" on="1"/>
        <pt x="1157" y="0" on="1"/>
        <pt x="203" y="0" on="1"/>
        <pt x="203" y="1454" on="1"/>
        <pt x="1139" y="1454" on="1"/>
        <pt x="1139" y="1413" on="1"/>
        <pt x="244" y="1413" on="1"/>
        <pt x="244" y="764" on="1"/>
        <pt x="1028" y="764" on="1"/>
        <pt x="1028" y="723" on="1"/>
        <pt x="244" y="723" on="1"/>
        <pt x="244" y="41" on="1"/>
      </contour>
    </TTGlyph>
    <TTGlyph name="Euro" xMin="68" yMin="-12" xMax="1556" yMax="1462">
      <contour>
        <pt x="1518" y="336" on="1"/>
        <pt x="1556" y="326" on="1"/>
        <pt x="1484" y="169" on="0"/>
        <pt x="1156" y="-12" on="0"/>
        <pt x="981" y="-12" on="1"/>
        <pt x="856" y="-12" on="0"/>
        <pt x="627" y="88" on="0"/>
        <pt x="458" y="257" on="0"/>
        <pt x="341" y="476" on="0"/>
        <pt x="319" y="596" on="1"/>
        <pt x="68" y="596" on="1"/>
        <pt x="88" y="637" on="1"/>
        <pt x="311" y="637" on="1"/>
        <pt x="305" y="687" on="0"/>
        <pt x="305" y="737" on="1"/>
        <pt x="305" y="766" on="0"/>
        <pt x="307" y="780" on="1"/>
        <pt x="150" y="780" on="1"/>
        <pt x="170" y="821" on="1"/>
        <pt x="309" y="821" on="1"/>
        <pt x="323" y="944" on="0"/>
        <pt x="428" y="1171" on="0"/>
        <pt x="597" y="1353" on="0"/>
        <pt x="846" y="1462" on="0"/>
        <pt x="991" y="1462" on="1"/>
        <pt x="1178" y="1462" on="0"/>
        <pt x="1453" y="1289" on="0"/>
        <pt x="1522" y="1145" on="1"/>
        <pt x="1483" y="1133" on="1"/>
        <pt x="1442" y="1210" on="0"/>
        <pt x="1326" y="1325" on="0"/>
        <pt x="1193" y="1390" on="0"/>
        <pt x="1056" y="1421" on="0"/>
        <pt x="983" y="1421" on="1"/>
        <pt x="849" y="1421" on="0"/>
        <pt x="620" y="1320" on="0"/>
        <pt x="464" y="1151" on="0"/>
        <pt x="366" y="938" on="0"/>
        <pt x="352" y="821" on="1"/>
        <pt x="1159" y="821" on="1"/>
        <pt x="1139" y="780" on="1"/>
        <pt x="348" y="780" on="1"/>
        <pt x="346" y="764" on="0"/>
        <pt x="346" y="731" on="1"/>
        <pt x="346" y="684" on="0"/>
        <pt x="352" y="637" on="1"/>
        <pt x="1077" y="637" on="1"/>
        <pt x="1057" y="596" on="1"/>
        <pt x="358" y="596" on="1"/>
        <pt x="387" y="440" on="0"/>
        <pt x="566" y="182" on="0"/>
        <pt x="836" y="29" on="0"/>
        <pt x="989" y="29" on="1"/>
        <pt x="1145" y="29" on="0"/>
        <pt x="1438" y="185" on="0"/>
      </contour>
    </TTGlyph>
    <TTGlyph name="F" xMin="203" yMin="0" xMax="1139" yMax="1454">
      <contour>
        <pt x="203" y="0" on="1"/>
        <pt x="203" y="1454" on="1"/>
        <pt x="1139" y="1454" on="1"/>
        <pt x="1139" y="1413" on="1"/>
        <pt x="244" y="1413" on="1"/>
        <pt x="244" y="766" on="1"/>
        <pt x="1008" y="766" on="1"/>
        <pt x="1008" y="725" on="1"/>
        <pt x="244" y="725" on="1"/>
        <pt x="244" y="0" on="1"/>
      </contour>
    </TTGlyph>
    <TTGlyph name="G" xMin="98" yMin="-10" xMax="1350" yMax="1464">
      <contour>
        <pt x="967" y="692" on="1"/>
        <pt x="1350" y="692" on="1"/>
        <pt x="1350" y="0" on="1"/>
        <pt x="1309" y="0" on="1"/>
        <pt x="1309" y="250" on="1"/>
        <pt x="1085" y="-10" on="0"/>
        <pt x="784" y="-10" on="1"/>
        <pt x="638" y="-10" on="0"/>
        <pt x="377" y="120" on="0"/>
        <pt x="201" y="329" on="0"/>
        <pt x="98" y="593" on="0"/>
        <pt x="98" y="727" on="1"/>
        <pt x="98" y="840" on="0"/>
        <pt x="161" y="1058" on="0"/>
        <pt x="279" y="1243" on="0"/>
        <pt x="439" y="1384" on="0"/>
        <pt x="647" y="1464" on="0"/>
        <pt x="760" y="1464" on="1"/>
        <pt x="1156" y="1464" on="0"/>
        <pt x="1315" y="1147" on="1"/>
        <pt x="1276" y="1135" on="1"/>
        <pt x="1120" y="1423" on="0"/>
        <pt x="760" y="1423" on="1"/>
        <pt x="648" y="1423" on="0"/>
        <pt x="449" y="1344" on="0"/>
        <pt x="302" y="1208" on="0"/>
        <pt x="194" y="1031" on="0"/>
        <pt x="139" y="830" on="0"/>
        <pt x="139" y="727" on="1"/>
        <pt x="139" y="619" on="0"/>
        <pt x="204" y="411" on="0"/>
        <pt x="323" y="237" on="0"/>
        <pt x="481" y="105" on="0"/>
        <pt x="679" y="31" on="0"/>
        <pt x="784" y="31" on="1"/>
        <pt x="1075" y="31" on="0"/>
        <pt x="1309" y="305" on="1"/>
        <pt x="1309" y="651" on="1"/>
        <pt x="967" y="651" on="1"/>
      </contour>
    </TTGlyph>
    <TTGlyph name="G.ss11" xMin="98" yMin="-10" xMax="1450" yMax="1464">
      <contour>
        <pt x="98" y="729" on="1"/>
        <pt x="98" y="872" on="0"/>
        <pt x="203" y="1140" on="0"/>
        <pt x="382" y="1342" on="0"/>
        <pt x="636" y="1464" on="0"/>
        <pt x="776" y="1464" on="1"/>
        <pt x="950" y="1464" on="0"/>
        <pt x="1237" y="1289" on="0"/>
        <pt x="1329" y="1143" on="1"/>
        <pt x="1300" y="1114" on="1"/>
        <pt x="1212" y="1255" on="0"/>
        <pt x="938" y="1423" on="0"/>
        <pt x="774" y="1423" on="1"/>
        <pt x="637" y="1423" on="0"/>
        <pt x="396" y="1302" on="0"/>
        <pt x="233" y="1105" on="0"/>
        <pt x="139" y="853" on="0"/>
        <pt x="139" y="723" on="1"/>
        <pt x="139" y="617" on="0"/>
        <pt x="200" y="412" on="0"/>
        <pt x="315" y="239" on="0"/>
        <pt x="469" y="106" on="0"/>
        <pt x="668" y="31" on="0"/>
        <pt x="776" y="31" on="1"/>
        <pt x="901" y="31" on="0"/>
        <pt x="1125" y="132" on="0"/>
        <pt x="1285" y="300" on="0"/>
        <pt x="1390" y="516" on="0"/>
        <pt x="1405" y="633" on="1"/>
        <pt x="901" y="633" on="1"/>
        <pt x="901" y="674" on="1"/>
        <pt x="1450" y="674" on="1"/>
        <pt x="1450" y="667" on="0"/>
        <pt x="1446" y="631" on="1"/>
        <pt x="1429" y="505" on="0"/>
        <pt x="1314" y="273" on="0"/>
        <pt x="1140" y="96" on="0"/>
        <pt x="903" y="-10" on="0"/>
        <pt x="772" y="-10" on="1"/>
        <pt x="630" y="-10" on="0"/>
        <pt x="375" y="115" on="0"/>
        <pt x="200" y="321" on="0"/>
        <pt x="98" y="589" on="0"/>
      </contour>
    </TTGlyph>
    <TTGlyph name="Gbreve" xMin="98" yMin="-10" xMax="1350" yMax="1880">
      <contour>
        <pt x="818" y="1722" on="0"/>
        <pt x="698" y="1722" on="0"/>
        <pt x="606" y="1817" on="0"/>
        <pt x="606" y="1880" on="1"/>
        <pt x="645" y="1880" on="1"/>
        <pt x="645" y="1834" on="0"/>
        <pt x="715" y="1757" on="0"/>
        <pt x="758" y="1757" on="1"/>
        <pt x="799" y="1757" on="0"/>
        <pt x="866" y="1829" on="0"/>
        <pt x="872" y="1880" on="1"/>
        <pt x="909" y="1880" on="1"/>
        <pt x="909" y="1817" on="0"/>
      </contour>
      <contour>
        <pt x="967" y="692" on="1"/>
        <pt x="1350" y="692" on="1"/>
        <pt x="1350" y="0" on="1"/>
        <pt x="1309" y="0" on="1"/>
        <pt x="1309" y="250" on="1"/>
        <pt x="1085" y="-10" on="0"/>
        <pt x="784" y="-10" on="1"/>
        <pt x="638" y="-10" on="0"/>
        <pt x="377" y="120" on="0"/>
        <pt x="201" y="329" on="0"/>
        <pt x="98" y="593" on="0"/>
        <pt x="98" y="727" on="1"/>
        <pt x="98" y="840" on="0"/>
        <pt x="161" y="1058" on="0"/>
        <pt x="279" y="1243" on="0"/>
        <pt x="439" y="1384" on="0"/>
        <pt x="647" y="1464" on="0"/>
        <pt x="760" y="1464" on="1"/>
        <pt x="1156" y="1464" on="0"/>
        <pt x="1315" y="1147" on="1"/>
        <pt x="1276" y="1135" on="1"/>
        <pt x="1120" y="1423" on="0"/>
        <pt x="760" y="1423" on="1"/>
        <pt x="648" y="1423" on="0"/>
        <pt x="449" y="1344" on="0"/>
        <pt x="302" y="1208" on="0"/>
        <pt x="194" y="1031" on="0"/>
        <pt x="139" y="830" on="0"/>
        <pt x="139" y="727" on="1"/>
        <pt x="139" y="619" on="0"/>
        <pt x="204" y="411" on="0"/>
        <pt x="323" y="237" on="0"/>
        <pt x="481" y="105" on="0"/>
        <pt x="679" y="31" on="0"/>
        <pt x="784" y="31" on="1"/>
        <pt x="1075" y="31" on="0"/>
        <pt x="1309" y="305" on="1"/>
        <pt x="1309" y="651" on="1"/>
        <pt x="967" y="651" on="1"/>
      </contour>
    </TTGlyph>
    <TTGlyph name="Gcaron" xMin="98" yMin="-10" xMax="1350" yMax="1880">
      <contour>
        <pt x="774" y="1704" on="1"/>
        <pt x="741" y="1704" on="1"/>
        <pt x="551" y="1855" on="1"/>
        <pt x="584" y="1880" on="1"/>
        <pt x="758" y="1751" on="1"/>
        <pt x="932" y="1880" on="1"/>
        <pt x="965" y="1855" on="1"/>
      </contour>
      <contour>
        <pt x="967" y="692" on="1"/>
        <pt x="1350" y="692" on="1"/>
        <pt x="1350" y="0" on="1"/>
        <pt x="1309" y="0" on="1"/>
        <pt x="1309" y="250" on="1"/>
        <pt x="1085" y="-10" on="0"/>
        <pt x="784" y="-10" on="1"/>
        <pt x="638" y="-10" on="0"/>
        <pt x="377" y="120" on="0"/>
        <pt x="201" y="329" on="0"/>
        <pt x="98" y="593" on="0"/>
        <pt x="98" y="727" on="1"/>
        <pt x="98" y="840" on="0"/>
        <pt x="161" y="1058" on="0"/>
        <pt x="279" y="1243" on="0"/>
        <pt x="439" y="1384" on="0"/>
        <pt x="647" y="1464" on="0"/>
        <pt x="760" y="1464" on="1"/>
        <pt x="1156" y="1464" on="0"/>
        <pt x="1315" y="1147" on="1"/>
        <pt x="1276" y="1135" on="1"/>
        <pt x="1120" y="1423" on="0"/>
        <pt x="760" y="1423" on="1"/>
        <pt x="648" y="1423" on="0"/>
        <pt x="449" y="1344" on="0"/>
        <pt x="302" y="1208" on="0"/>
        <pt x="194" y="1031" on="0"/>
        <pt x="139" y="830" on="0"/>
        <pt x="139" y="727" on="1"/>
        <pt x="139" y="619" on="0"/>
        <pt x="204" y="411" on="0"/>
        <pt x="323" y="237" on="0"/>
        <pt x="481" y="105" on="0"/>
        <pt x="679" y="31" on="0"/>
        <pt x="784" y="31" on="1"/>
        <pt x="1075" y="31" on="0"/>
        <pt x="1309" y="305" on="1"/>
        <pt x="1309" y="651" on="1"/>
        <pt x="967" y="651" on="1"/>
      </contour>
    </TTGlyph>
    <TTGlyph name="Gcedilla" xMin="98" yMin="-342" xMax="1350" yMax="1464">
      <contour>
        <pt x="967" y="692" on="1"/>
        <pt x="1350" y="692" on="1"/>
        <pt x="1350" y="0" on="1"/>
        <pt x="1309" y="0" on="1"/>
        <pt x="1309" y="250" on="1"/>
        <pt x="1085" y="-10" on="0"/>
        <pt x="784" y="-10" on="1"/>
        <pt x="638" y="-10" on="0"/>
        <pt x="377" y="120" on="0"/>
        <pt x="201" y="329" on="0"/>
        <pt x="98" y="593" on="0"/>
        <pt x="98" y="727" on="1"/>
        <pt x="98" y="840" on="0"/>
        <pt x="161" y="1058" on="0"/>
        <pt x="279" y="1243" on="0"/>
        <pt x="439" y="1384" on="0"/>
        <pt x="647" y="1464" on="0"/>
        <pt x="760" y="1464" on="1"/>
        <pt x="1156" y="1464" on="0"/>
        <pt x="1315" y="1147" on="1"/>
        <pt x="1276" y="1135" on="1"/>
        <pt x="1120" y="1423" on="0"/>
        <pt x="760" y="1423" on="1"/>
        <pt x="648" y="1423" on="0"/>
        <pt x="449" y="1344" on="0"/>
        <pt x="302" y="1208" on="0"/>
        <pt x="194" y="1031" on="0"/>
        <pt x="139" y="830" on="0"/>
        <pt x="139" y="727" on="1"/>
        <pt x="139" y="619" on="0"/>
        <pt x="204" y="411" on="0"/>
        <pt x="323" y="237" on="0"/>
        <pt x="481" y="105" on="0"/>
        <pt x="679" y="31" on="0"/>
        <pt x="784" y="31" on="1"/>
        <pt x="1075" y="31" on="0"/>
        <pt x="1309" y="305" on="1"/>
        <pt x="1309" y="651" on="1"/>
        <pt x="967" y="651" on="1"/>
      </contour>
      <contour>
        <pt x="750" y="-223" on="1"/>
        <pt x="750" y="-102" on="1"/>
        <pt x="803" y="-102" on="1"/>
        <pt x="803" y="-223" on="1"/>
        <pt x="776" y="-342" on="1"/>
        <pt x="748" y="-342" on="1"/>
        <pt x="768" y="-223" on="1"/>
      </contour>
    </TTGlyph>
    <TTGlyph name="Gcircumflex" xMin="98" yMin="-10" xMax="1350" yMax="1880">
      <contour>
        <pt x="758" y="1833" on="1"/>
        <pt x="584" y="1704" on="1"/>
        <pt x="551" y="1729" on="1"/>
        <pt x="741" y="1880" on="1"/>
        <pt x="774" y="1880" on="1"/>
        <pt x="965" y="1729" on="1"/>
        <pt x="932" y="1704" on="1"/>
      </contour>
      <contour>
        <pt x="967" y="692" on="1"/>
        <pt x="1350" y="692" on="1"/>
        <pt x="1350" y="0" on="1"/>
        <pt x="1309" y="0" on="1"/>
        <pt x="1309" y="250" on="1"/>
        <pt x="1085" y="-10" on="0"/>
        <pt x="784" y="-10" on="1"/>
        <pt x="638" y="-10" on="0"/>
        <pt x="377" y="120" on="0"/>
        <pt x="201" y="329" on="0"/>
        <pt x="98" y="593" on="0"/>
        <pt x="98" y="727" on="1"/>
        <pt x="98" y="840" on="0"/>
        <pt x="161" y="1058" on="0"/>
        <pt x="279" y="1243" on="0"/>
        <pt x="439" y="1384" on="0"/>
        <pt x="647" y="1464" on="0"/>
        <pt x="760" y="1464" on="1"/>
        <pt x="1156" y="1464" on="0"/>
        <pt x="1315" y="1147" on="1"/>
        <pt x="1276" y="1135" on="1"/>
        <pt x="1120" y="1423" on="0"/>
        <pt x="760" y="1423" on="1"/>
        <pt x="648" y="1423" on="0"/>
        <pt x="449" y="1344" on="0"/>
        <pt x="302" y="1208" on="0"/>
        <pt x="194" y="1031" on="0"/>
        <pt x="139" y="830" on="0"/>
        <pt x="139" y="727" on="1"/>
        <pt x="139" y="619" on="0"/>
        <pt x="204" y="411" on="0"/>
        <pt x="323" y="237" on="0"/>
        <pt x="481" y="105" on="0"/>
        <pt x="679" y="31" on="0"/>
        <pt x="784" y="31" on="1"/>
        <pt x="1075" y="31" on="0"/>
        <pt x="1309" y="305" on="1"/>
        <pt x="1309" y="651" on="1"/>
        <pt x="967" y="651" on="1"/>
      </contour>
    </TTGlyph>
    <TTGlyph name="Gdot" xMin="98" yMin="-10" xMax="1350" yMax="1880">
      <contour>
        <pt x="778" y="1880" on="1"/>
        <pt x="778" y="1722" on="1"/>
        <pt x="737" y="1722" on="1"/>
        <pt x="737" y="1880" on="1"/>
      </contour>
      <contour>
        <pt x="967" y="692" on="1"/>
        <pt x="1350" y="692" on="1"/>
        <pt x="1350" y="0" on="1"/>
        <pt x="1309" y="0" on="1"/>
        <pt x="1309" y="250" on="1"/>
        <pt x="1085" y="-10" on="0"/>
        <pt x="784" y="-10" on="1"/>
        <pt x="638" y="-10" on="0"/>
        <pt x="377" y="120" on="0"/>
        <pt x="201" y="329" on="0"/>
        <pt x="98" y="593" on="0"/>
        <pt x="98" y="727" on="1"/>
        <pt x="98" y="840" on="0"/>
        <pt x="161" y="1058" on="0"/>
        <pt x="279" y="1243" on="0"/>
        <pt x="439" y="1384" on="0"/>
        <pt x="647" y="1464" on="0"/>
        <pt x="760" y="1464" on="1"/>
        <pt x="1156" y="1464" on="0"/>
        <pt x="1315" y="1147" on="1"/>
        <pt x="1276" y="1135" on="1"/>
        <pt x="1120" y="1423" on="0"/>
        <pt x="760" y="1423" on="1"/>
        <pt x="648" y="1423" on="0"/>
        <pt x="449" y="1344" on="0"/>
        <pt x="302" y="1208" on="0"/>
        <pt x="194" y="1031" on="0"/>
        <pt x="139" y="830" on="0"/>
        <pt x="139" y="727" on="1"/>
        <pt x="139" y="619" on="0"/>
        <pt x="204" y="411" on="0"/>
        <pt x="323" y="237" on="0"/>
        <pt x="481" y="105" on="0"/>
        <pt x="679" y="31" on="0"/>
        <pt x="784" y="31" on="1"/>
        <pt x="1075" y="31" on="0"/>
        <pt x="1309" y="305" on="1"/>
        <pt x="1309" y="651" on="1"/>
        <pt x="967" y="651" on="1"/>
      </contour>
    </TTGlyph>
    <TTGlyph name="Ghemiddlehookcyrillic" xMin="203" yMin="-217" xMax="1100" yMax="1454">
      <contour>
        <pt x="651" y="803" on="1"/>
        <pt x="868" y="803" on="0"/>
        <pt x="1100" y="532" on="0"/>
        <pt x="1100" y="279" on="1"/>
        <pt x="1100" y="28" on="0"/>
        <pt x="884" y="-217" on="0"/>
        <pt x="692" y="-217" on="1"/>
        <pt x="628" y="-217" on="0"/>
        <pt x="557" y="-205" on="1"/>
        <pt x="557" y="-166" on="1"/>
        <pt x="628" y="-178" on="0"/>
        <pt x="690" y="-178" on="1"/>
        <pt x="870" y="-178" on="0"/>
        <pt x="1059" y="52" on="0"/>
        <pt x="1059" y="279" on="1"/>
        <pt x="1059" y="518" on="0"/>
        <pt x="848" y="762" on="0"/>
        <pt x="649" y="762" on="1"/>
        <pt x="453" y="762" on="0"/>
        <pt x="244" y="655" on="1"/>
        <pt x="244" y="0" on="1"/>
        <pt x="203" y="0" on="1"/>
        <pt x="203" y="1454" on="1"/>
        <pt x="979" y="1454" on="1"/>
        <pt x="979" y="1413" on="1"/>
        <pt x="244" y="1413" on="1"/>
        <pt x="244" y="698" on="1"/>
        <pt x="452" y="803" on="0"/>
      </contour>
    </TTGlyph>
    <TTGlyph name="Ghestrokecyrillic" xMin="0" yMin="0" xMax="1042" yMax="1454">
      <contour>
        <pt x="1042" y="1413" on="1"/>
        <pt x="307" y="1413" on="1"/>
        <pt x="307" y="752" on="1"/>
        <pt x="778" y="752" on="1"/>
        <pt x="778" y="711" on="1"/>
        <pt x="307" y="711" on="1"/>
        <pt x="307" y="0" on="1"/>
        <pt x="266" y="0" on="1"/>
        <pt x="266" y="711" on="1"/>
        <pt x="0" y="711" on="1"/>
        <pt x="0" y="752" on="1"/>
        <pt x="266" y="752" on="1"/>
        <pt x="266" y="1454" on="1"/>
        <pt x="1042" y="1454" on="1"/>
      </contour>
    </TTGlyph>
    <TTGlyph name="Gmacron" xMin="98" yMin="-10" xMax="1350" yMax="1831">
      <contour>
        <pt x="1044" y="1831" on="1"/>
        <pt x="1044" y="1790" on="1"/>
        <pt x="471" y="1790" on="1"/>
        <pt x="471" y="1831" on="1"/>
      </contour>
      <contour>
        <pt x="967" y="692" on="1"/>
        <pt x="1350" y="692" on="1"/>
        <pt x="1350" y="0" on="1"/>
        <pt x="1309" y="0" on="1"/>
        <pt x="1309" y="250" on="1"/>
        <pt x="1085" y="-10" on="0"/>
        <pt x="784" y="-10" on="1"/>
        <pt x="638" y="-10" on="0"/>
        <pt x="377" y="120" on="0"/>
        <pt x="201" y="329" on="0"/>
        <pt x="98" y="593" on="0"/>
        <pt x="98" y="727" on="1"/>
        <pt x="98" y="840" on="0"/>
        <pt x="161" y="1058" on="0"/>
        <pt x="279" y="1243" on="0"/>
        <pt x="439" y="1384" on="0"/>
        <pt x="647" y="1464" on="0"/>
        <pt x="760" y="1464" on="1"/>
        <pt x="1156" y="1464" on="0"/>
        <pt x="1315" y="1147" on="1"/>
        <pt x="1276" y="1135" on="1"/>
        <pt x="1120" y="1423" on="0"/>
        <pt x="760" y="1423" on="1"/>
        <pt x="648" y="1423" on="0"/>
        <pt x="449" y="1344" on="0"/>
        <pt x="302" y="1208" on="0"/>
        <pt x="194" y="1031" on="0"/>
        <pt x="139" y="830" on="0"/>
        <pt x="139" y="727" on="1"/>
        <pt x="139" y="619" on="0"/>
        <pt x="204" y="411" on="0"/>
        <pt x="323" y="237" on="0"/>
        <pt x="481" y="105" on="0"/>
        <pt x="679" y="31" on="0"/>
        <pt x="784" y="31" on="1"/>
        <pt x="1075" y="31" on="0"/>
        <pt x="1309" y="305" on="1"/>
        <pt x="1309" y="651" on="1"/>
        <pt x="967" y="651" on="1"/>
      </contour>
    </TTGlyph>
    <TTGlyph name="H" xMin="203" yMin="0" xMax="1294" yMax="1454">
      <contour>
        <pt x="1294" y="1454" on="1"/>
        <pt x="1294" y="0" on="1"/>
        <pt x="1253" y="0" on="1"/>
        <pt x="1253" y="723" on="1"/>
        <pt x="244" y="723" on="1"/>
        <pt x="244" y="0" on="1"/>
        <pt x="203" y="0" on="1"/>
        <pt x="203" y="1454" on="1"/>
        <pt x="244" y="1454" on="1"/>
        <pt x="244" y="764" on="1"/>
        <pt x="1253" y="764" on="1"/>
        <pt x="1253" y="1454" on="1"/>
      </contour>
    </TTGlyph>
    <TTGlyph name="Hbar" xMin="111" yMin="0" xMax="1407" yMax="1454">
      <contour>
        <pt x="1407" y="1176" on="1"/>
        <pt x="1407" y="1135" on="1"/>
        <pt x="1305" y="1135" on="1"/>
        <pt x="1305" y="0" on="1"/>
        <pt x="1264" y="0" on="1"/>
        <pt x="1264" y="723" on="1"/>
        <pt x="254" y="723" on="1"/>
        <pt x="254" y="0" on="1"/>
        <pt x="213" y="0" on="1"/>
        <pt x="213" y="1135" on="1"/>
        <pt x="111" y="1135" on="1"/>
        <pt x="111" y="1176" on="1"/>
        <pt x="213" y="1176" on="1"/>
        <pt x="213" y="1454" on="1"/>
        <pt x="254" y="1454" on="1"/>
        <pt x="254" y="1176" on="1"/>
        <pt x="1264" y="1176" on="1"/>
        <pt x="1264" y="1454" on="1"/>
        <pt x="1305" y="1454" on="1"/>
        <pt x="1305" y="1176" on="1"/>
      </contour>
      <contour>
        <pt x="1264" y="764" on="1"/>
        <pt x="1264" y="1135" on="1"/>
        <pt x="254" y="1135" on="1"/>
        <pt x="254" y="764" on="1"/>
      </contour>
    </TTGlyph>
    <TTGlyph name="Hbrevebelow" xMin="203" yMin="-244" xMax="1294" yMax="1454">
      <contour>
        <pt x="1294" y="1454" on="1"/>
        <pt x="1294" y="0" on="1"/>
        <pt x="1253" y="0" on="1"/>
        <pt x="1253" y="723" on="1"/>
        <pt x="244" y="723" on="1"/>
        <pt x="244" y="0" on="1"/>
        <pt x="203" y="0" on="1"/>
        <pt x="203" y="1454" on="1"/>
        <pt x="244" y="1454" on="1"/>
        <pt x="244" y="764" on="1"/>
        <pt x="1253" y="764" on="1"/>
        <pt x="1253" y="1454" on="1"/>
      </contour>
      <contour>
        <pt x="864" y="-86" on="1"/>
        <pt x="901" y="-86" on="1"/>
        <pt x="901" y="-149" on="0"/>
        <pt x="810" y="-244" on="0"/>
        <pt x="690" y="-244" on="0"/>
        <pt x="598" y="-149" on="0"/>
        <pt x="598" y="-86" on="1"/>
        <pt x="637" y="-86" on="1"/>
        <pt x="637" y="-132" on="0"/>
        <pt x="707" y="-209" on="0"/>
        <pt x="750" y="-209" on="1"/>
        <pt x="791" y="-209" on="0"/>
        <pt x="858" y="-137" on="0"/>
      </contour>
    </TTGlyph>
    <TTGlyph name="Hcircumflex" xMin="203" yMin="0" xMax="1294" yMax="1880">
      <contour>
        <pt x="545" y="1729" on="1"/>
        <pt x="735" y="1880" on="1"/>
        <pt x="768" y="1880" on="1"/>
        <pt x="958" y="1729" on="1"/>
        <pt x="926" y="1704" on="1"/>
        <pt x="752" y="1833" on="1"/>
        <pt x="578" y="1704" on="1"/>
      </contour>
      <contour>
        <pt x="1294" y="1454" on="1"/>
        <pt x="1294" y="0" on="1"/>
        <pt x="1253" y="0" on="1"/>
        <pt x="1253" y="723" on="1"/>
        <pt x="244" y="723" on="1"/>
        <pt x="244" y="0" on="1"/>
        <pt x="203" y="0" on="1"/>
        <pt x="203" y="1454" on="1"/>
        <pt x="244" y="1454" on="1"/>
        <pt x="244" y="764" on="1"/>
        <pt x="1253" y="764" on="1"/>
        <pt x="1253" y="1454" on="1"/>
      </contour>
    </TTGlyph>
    <TTGlyph name="Hdotbelow" xMin="203" yMin="-260" xMax="1294" yMax="1454">
      <contour>
        <pt x="1294" y="1454" on="1"/>
        <pt x="1294" y="0" on="1"/>
        <pt x="1253" y="0" on="1"/>
        <pt x="1253" y="723" on="1"/>
        <pt x="244" y="723" on="1"/>
        <pt x="244" y="0" on="1"/>
        <pt x="203" y="0" on="1"/>
        <pt x="203" y="1454" on="1"/>
        <pt x="244" y="1454" on="1"/>
        <pt x="244" y="764" on="1"/>
        <pt x="1253" y="764" on="1"/>
        <pt x="1253" y="1454" on="1"/>
      </contour>
      <contour>
        <pt x="729" y="-260" on="1"/>
        <pt x="729" y="-102" on="1"/>
        <pt x="770" y="-102" on="1"/>
        <pt x="770" y="-260" on="1"/>
      </contour>
    </TTGlyph>
    <TTGlyph name="I" xMin="203" yMin="0" xMax="244" yMax="1454">
      <contour>
        <pt x="203" y="0" on="1"/>
        <pt x="203" y="1454" on="1"/>
        <pt x="244" y="1454" on="1"/>
        <pt x="244" y="0" on="1"/>
      </contour>
    </TTGlyph>
    <TTGlyph name="Iacute" xMin="203" yMin="0" xMax="403" yMax="1880">
      <contour>
        <pt x="236" y="1706" on="1"/>
        <pt x="203" y="1731" on="1"/>
        <pt x="334" y="1880" on="1"/>
        <pt x="403" y="1880" on="1"/>
      </contour>
      <contour>
        <pt x="203" y="0" on="1"/>
        <pt x="203" y="1454" on="1"/>
        <pt x="244" y="1454" on="1"/>
        <pt x="244" y="0" on="1"/>
      </contour>
    </TTGlyph>
    <TTGlyph name="Ibreve" xMin="72" yMin="0" xMax="375" yMax="1880">
      <contour>
        <pt x="338" y="1880" on="1"/>
        <pt x="375" y="1880" on="1"/>
        <pt x="375" y="1817" on="0"/>
        <pt x="283" y="1722" on="0"/>
        <pt x="163" y="1722" on="0"/>
        <pt x="72" y="1817" on="0"/>
        <pt x="72" y="1880" on="1"/>
        <pt x="111" y="1880" on="1"/>
        <pt x="111" y="1834" on="0"/>
        <pt x="180" y="1757" on="0"/>
        <pt x="223" y="1757" on="1"/>
        <pt x="264" y="1757" on="0"/>
        <pt x="332" y="1829" on="0"/>
      </contour>
      <contour>
        <pt x="203" y="0" on="1"/>
        <pt x="203" y="1454" on="1"/>
        <pt x="244" y="1454" on="1"/>
        <pt x="244" y="0" on="1"/>
      </contour>
    </TTGlyph>
    <TTGlyph name="Icircumflex" xMin="16" yMin="0" xMax="430" yMax="1880">
      <contour>
        <pt x="16" y="1729" on="1"/>
        <pt x="207" y="1880" on="1"/>
        <pt x="240" y="1880" on="1"/>
        <pt x="430" y="1729" on="1"/>
        <pt x="397" y="1704" on="1"/>
        <pt x="223" y="1833" on="1"/>
        <pt x="49" y="1704" on="1"/>
      </contour>
      <contour>
        <pt x="203" y="0" on="1"/>
        <pt x="203" y="1454" on="1"/>
        <pt x="244" y="1454" on="1"/>
        <pt x="244" y="0" on="1"/>
      </contour>
    </TTGlyph>
    <TTGlyph name="Idblgrave" xMin="-43" yMin="0" xMax="362" yMax="1880">
      <contour>
        <pt x="-43" y="1880" on="1"/>
        <pt x="27" y="1880" on="1"/>
        <pt x="158" y="1731" on="1"/>
        <pt x="125" y="1706" on="1"/>
      </contour>
      <contour>
        <pt x="162" y="1880" on="1"/>
        <pt x="231" y="1880" on="1"/>
        <pt x="362" y="1731" on="1"/>
        <pt x="330" y="1706" on="1"/>
      </contour>
      <contour>
        <pt x="203" y="0" on="1"/>
        <pt x="203" y="1454" on="1"/>
        <pt x="244" y="1454" on="1"/>
        <pt x="244" y="0" on="1"/>
      </contour>
    </TTGlyph>
    <TTGlyph name="Idieresis" xMin="84" yMin="0" xMax="362" yMax="1880">
      <contour>
        <pt x="84" y="1722" on="1"/>
        <pt x="84" y="1880" on="1"/>
        <pt x="125" y="1880" on="1"/>
        <pt x="125" y="1722" on="1"/>
      </contour>
      <contour>
        <pt x="322" y="1722" on="1"/>
        <pt x="322" y="1880" on="1"/>
        <pt x="362" y="1880" on="1"/>
        <pt x="362" y="1722" on="1"/>
      </contour>
      <contour>
        <pt x="203" y="0" on="1"/>
        <pt x="203" y="1454" on="1"/>
        <pt x="244" y="1454" on="1"/>
        <pt x="244" y="0" on="1"/>
      </contour>
    </TTGlyph>
    <TTGlyph name="Idieresisacute" xMin="84" yMin="0" xMax="403" yMax="2292">
      <contour>
        <pt x="236" y="2118" on="1"/>
        <pt x="203" y="2142" on="1"/>
        <pt x="334" y="2292" on="1"/>
        <pt x="403" y="2292" on="1"/>
      </contour>
      <contour>
        <pt x="84" y="1722" on="1"/>
        <pt x="84" y="1880" on="1"/>
        <pt x="125" y="1880" on="1"/>
        <pt x="125" y="1722" on="1"/>
      </contour>
      <contour>
        <pt x="322" y="1722" on="1"/>
        <pt x="322" y="1880" on="1"/>
        <pt x="362" y="1880" on="1"/>
        <pt x="362" y="1722" on="1"/>
      </contour>
      <contour>
        <pt x="203" y="0" on="1"/>
        <pt x="203" y="1454" on="1"/>
        <pt x="244" y="1454" on="1"/>
        <pt x="244" y="0" on="1"/>
      </contour>
    </TTGlyph>
    <TTGlyph name="Idieresiscyrillic" xMin="203" yMin="0" xMax="1327" yMax="1886">
      <contour>
        <pt x="627" y="1729" on="1"/>
        <pt x="627" y="1886" on="1"/>
        <pt x="668" y="1886" on="1"/>
        <pt x="668" y="1729" on="1"/>
      </contour>
      <contour>
        <pt x="864" y="1729" on="1"/>
        <pt x="864" y="1886" on="1"/>
        <pt x="905" y="1886" on="1"/>
        <pt x="905" y="1729" on="1"/>
      </contour>
      <contour>
        <pt x="203" y="0" on="1"/>
        <pt x="203" y="1454" on="1"/>
        <pt x="244" y="1454" on="1"/>
        <pt x="244" y="53" on="1"/>
        <pt x="1288" y="1454" on="1"/>
        <pt x="1327" y="1454" on="1"/>
        <pt x="1327" y="0" on="1"/>
        <pt x="1286" y="0" on="1"/>
        <pt x="1286" y="1380" on="1"/>
        <pt x="254" y="0" on="1"/>
      </contour>
    </TTGlyph>
    <TTGlyph name="Idotaccent" xMin="203" yMin="0" xMax="244" yMax="1880">
      <contour>
        <pt x="203" y="1722" on="1"/>
        <pt x="203" y="1880" on="1"/>
        <pt x="244" y="1880" on="1"/>
        <pt x="244" y="1722" on="1"/>
      </contour>
      <contour>
        <pt x="203" y="0" on="1"/>
        <pt x="203" y="1454" on="1"/>
        <pt x="244" y="1454" on="1"/>
        <pt x="244" y="0" on="1"/>
      </contour>
    </TTGlyph>
    <TTGlyph name="Idotbelow" xMin="203" yMin="-260" xMax="246" yMax="1454">
      <contour>
        <pt x="203" y="0" on="1"/>
        <pt x="203" y="1454" on="1"/>
        <pt x="244" y="1454" on="1"/>
        <pt x="244" y="0" on="1"/>
      </contour>
      <contour>
        <pt x="205" y="-260" on="1"/>
        <pt x="205" y="-102" on="1"/>
        <pt x="246" y="-102" on="1"/>
        <pt x="246" y="-260" on="1"/>
      </contour>
    </TTGlyph>
    <TTGlyph name="Iebrevecyrillic" xMin="203" yMin="0" xMax="1157" yMax="1782">
      <contour>
        <pt x="705" y="1657" on="1"/>
        <pt x="592" y="1657" on="0"/>
        <pt x="483" y="1728" on="0"/>
        <pt x="483" y="1782" on="1"/>
        <pt x="518" y="1782" on="1"/>
        <pt x="518" y="1744" on="0"/>
        <pt x="609" y="1690" on="0"/>
        <pt x="705" y="1690" on="1"/>
        <pt x="799" y="1690" on="0"/>
        <pt x="877" y="1737" on="0"/>
        <pt x="891" y="1782" on="1"/>
        <pt x="924" y="1782" on="1"/>
        <pt x="924" y="1728" on="0"/>
        <pt x="816" y="1657" on="0"/>
      </contour>
      <contour>
        <pt x="1157" y="41" on="1"/>
        <pt x="1157" y="0" on="1"/>
        <pt x="203" y="0" on="1"/>
        <pt x="203" y="1454" on="1"/>
        <pt x="1139" y="1454" on="1"/>
        <pt x="1139" y="1413" on="1"/>
        <pt x="244" y="1413" on="1"/>
        <pt x="244" y="764" on="1"/>
        <pt x="1028" y="764" on="1"/>
        <pt x="1028" y="723" on="1"/>
        <pt x="244" y="723" on="1"/>
        <pt x="244" y="41" on="1"/>
      </contour>
    </TTGlyph>
    <TTGlyph name="Igrave" xMin="84" yMin="0" xMax="285" yMax="1880">
      <contour>
        <pt x="84" y="1880" on="1"/>
        <pt x="152" y="1880" on="1"/>
        <pt x="285" y="1731" on="1"/>
        <pt x="252" y="1706" on="1"/>
      </contour>
      <contour>
        <pt x="203" y="0" on="1"/>
        <pt x="203" y="1454" on="1"/>
        <pt x="244" y="1454" on="1"/>
        <pt x="244" y="0" on="1"/>
      </contour>
    </TTGlyph>
    <TTGlyph name="Ihookabove" xMin="100" yMin="0" xMax="344" yMax="1870">
      <contour>
        <pt x="125" y="1782" on="1"/>
        <pt x="100" y="1808" on="1"/>
        <pt x="137" y="1841" on="0"/>
        <pt x="190" y="1870" on="0"/>
        <pt x="227" y="1870" on="1"/>
        <pt x="278" y="1870" on="0"/>
        <pt x="344" y="1807" on="0"/>
        <pt x="344" y="1753" on="1"/>
        <pt x="344" y="1742" on="0"/>
        <pt x="341" y="1722" on="0"/>
        <pt x="331" y="1701" on="0"/>
        <pt x="323" y="1687" on="0"/>
        <pt x="304" y="1663" on="0"/>
        <pt x="294" y="1652" on="0"/>
        <pt x="268" y="1622" on="0"/>
        <pt x="262" y="1616" on="1"/>
        <pt x="238" y="1638" on="1"/>
        <pt x="275" y="1680" on="0"/>
        <pt x="307" y="1730" on="0"/>
        <pt x="307" y="1753" on="1"/>
        <pt x="307" y="1788" on="0"/>
        <pt x="265" y="1833" on="0"/>
        <pt x="223" y="1833" on="1"/>
        <pt x="197" y="1833" on="0"/>
        <pt x="160" y="1812" on="0"/>
      </contour>
      <contour>
        <pt x="203" y="0" on="1"/>
        <pt x="203" y="1454" on="1"/>
        <pt x="244" y="1454" on="1"/>
        <pt x="244" y="0" on="1"/>
      </contour>
    </TTGlyph>
    <TTGlyph name="Iinvertedbreve" xMin="72" yMin="0" xMax="375" yMax="1880">
      <contour>
        <pt x="111" y="1722" on="1"/>
        <pt x="72" y="1722" on="1"/>
        <pt x="72" y="1785" on="0"/>
        <pt x="163" y="1880" on="0"/>
        <pt x="283" y="1880" on="0"/>
        <pt x="375" y="1785" on="0"/>
        <pt x="375" y="1722" on="1"/>
        <pt x="338" y="1722" on="1"/>
        <pt x="332" y="1773" on="0"/>
        <pt x="264" y="1845" on="0"/>
        <pt x="223" y="1845" on="1"/>
        <pt x="180" y="1845" on="0"/>
        <pt x="111" y="1768" on="0"/>
      </contour>
      <contour>
        <pt x="203" y="0" on="1"/>
        <pt x="203" y="1454" on="1"/>
        <pt x="244" y="1454" on="1"/>
        <pt x="244" y="0" on="1"/>
      </contour>
    </TTGlyph>
    <TTGlyph name="Imacron" xMin="-63" yMin="0" xMax="510" yMax="1831">
      <contour>
        <pt x="-63" y="1790" on="1"/>
        <pt x="-63" y="1831" on="1"/>
        <pt x="510" y="1831" on="1"/>
        <pt x="510" y="1790" on="1"/>
      </contour>
      <contour>
        <pt x="203" y="0" on="1"/>
        <pt x="203" y="1454" on="1"/>
        <pt x="244" y="1454" on="1"/>
        <pt x="244" y="0" on="1"/>
      </contour>
    </TTGlyph>
    <TTGlyph name="Imacroncyrillic" xMin="203" yMin="0" xMax="1327" yMax="1837">
      <contour>
        <pt x="479" y="1796" on="1"/>
        <pt x="479" y="1837" on="1"/>
        <pt x="1053" y="1837" on="1"/>
        <pt x="1053" y="1796" on="1"/>
      </contour>
      <contour>
        <pt x="203" y="0" on="1"/>
        <pt x="203" y="1454" on="1"/>
        <pt x="244" y="1454" on="1"/>
        <pt x="244" y="53" on="1"/>
        <pt x="1288" y="1454" on="1"/>
        <pt x="1327" y="1454" on="1"/>
        <pt x="1327" y="0" on="1"/>
        <pt x="1286" y="0" on="1"/>
        <pt x="1286" y="1380" on="1"/>
        <pt x="254" y="0" on="1"/>
      </contour>
    </TTGlyph>
    <TTGlyph name="Iogonek" xMin="45" yMin="-336" xMax="244" yMax="1454">
      <contour>
        <pt x="244" y="0" on="1"/>
        <pt x="160" y="-65" on="0"/>
        <pt x="88" y="-157" on="0"/>
        <pt x="88" y="-199" on="1"/>
        <pt x="88" y="-237" on="0"/>
        <pt x="153" y="-282" on="0"/>
        <pt x="236" y="-301" on="1"/>
        <pt x="211" y="-336" on="1"/>
        <pt x="122" y="-319" on="0"/>
        <pt x="45" y="-256" on="0"/>
        <pt x="45" y="-205" on="1"/>
        <pt x="45" y="-153" on="0"/>
        <pt x="123" y="-49" on="0"/>
        <pt x="203" y="16" on="1"/>
        <pt x="203" y="1454" on="1"/>
        <pt x="244" y="1454" on="1"/>
      </contour>
    </TTGlyph>
    <TTGlyph name="Itilde" xMin="-61" yMin="0" xMax="506" yMax="1880">
      <contour>
        <pt x="84" y="1821" on="1"/>
        <pt x="54" y="1821" on="0"/>
        <pt x="9" y="1794" on="0"/>
        <pt x="-11" y="1757" on="0"/>
        <pt x="-20" y="1729" on="0"/>
        <pt x="-20" y="1722" on="1"/>
        <pt x="-61" y="1722" on="1"/>
        <pt x="-61" y="1729" on="0"/>
        <pt x="-56" y="1754" on="0"/>
        <pt x="-38" y="1797" on="0"/>
        <pt x="-8" y="1833" on="0"/>
        <pt x="50" y="1860" on="0"/>
        <pt x="88" y="1860" on="1"/>
        <pt x="141" y="1860" on="0"/>
        <pt x="292" y="1782" on="0"/>
        <pt x="344" y="1782" on="1"/>
        <pt x="376" y="1782" on="0"/>
        <pt x="424" y="1801" on="0"/>
        <pt x="447" y="1827" on="0"/>
        <pt x="462" y="1858" on="0"/>
        <pt x="465" y="1875" on="0"/>
        <pt x="465" y="1880" on="1"/>
        <pt x="506" y="1880" on="1"/>
        <pt x="506" y="1872" on="0"/>
        <pt x="501" y="1846" on="0"/>
        <pt x="480" y="1803" on="0"/>
        <pt x="447" y="1769" on="0"/>
        <pt x="382" y="1743" on="0"/>
        <pt x="340" y="1743" on="1"/>
        <pt x="289" y="1743" on="0"/>
        <pt x="196" y="1782" on="0"/>
        <pt x="118" y="1821" on="0"/>
      </contour>
      <contour>
        <pt x="203" y="0" on="1"/>
        <pt x="203" y="1454" on="1"/>
        <pt x="244" y="1454" on="1"/>
        <pt x="244" y="0" on="1"/>
      </contour>
    </TTGlyph>
    <TTGlyph name="J" xMin="39" yMin="-23" xMax="784" yMax="1454">
      <contour>
        <pt x="61" y="100" on="1"/>
        <pt x="182" y="18" on="0"/>
        <pt x="354" y="18" on="1"/>
        <pt x="428" y="18" on="0"/>
        <pt x="542" y="51" on="0"/>
        <pt x="624" y="108" on="0"/>
        <pt x="682" y="205" on="0"/>
        <pt x="717" y="311" on="0"/>
        <pt x="737" y="465" on="0"/>
        <pt x="743" y="613" on="0"/>
        <pt x="743" y="715" on="1"/>
        <pt x="743" y="1454" on="1"/>
        <pt x="784" y="1454" on="1"/>
        <pt x="784" y="715" on="1"/>
        <pt x="784" y="611" on="0"/>
        <pt x="777" y="457" on="0"/>
        <pt x="755" y="295" on="0"/>
        <pt x="716" y="181" on="0"/>
        <pt x="652" y="77" on="0"/>
        <pt x="562" y="14" on="0"/>
        <pt x="435" y="-23" on="0"/>
        <pt x="354" y="-23" on="1"/>
        <pt x="172" y="-23" on="0"/>
        <pt x="39" y="68" on="1"/>
      </contour>
    </TTGlyph>
    <TTGlyph name="Jcircumflex" xMin="39" yMin="-23" xMax="971" yMax="1880">
      <contour>
        <pt x="557" y="1729" on="1"/>
        <pt x="748" y="1880" on="1"/>
        <pt x="780" y="1880" on="1"/>
        <pt x="971" y="1729" on="1"/>
        <pt x="938" y="1704" on="1"/>
        <pt x="764" y="1833" on="1"/>
        <pt x="590" y="1704" on="1"/>
      </contour>
      <contour>
        <pt x="61" y="100" on="1"/>
        <pt x="182" y="18" on="0"/>
        <pt x="354" y="18" on="1"/>
        <pt x="428" y="18" on="0"/>
        <pt x="542" y="51" on="0"/>
        <pt x="624" y="108" on="0"/>
        <pt x="682" y="205" on="0"/>
        <pt x="717" y="311" on="0"/>
        <pt x="737" y="465" on="0"/>
        <pt x="743" y="613" on="0"/>
        <pt x="743" y="715" on="1"/>
        <pt x="743" y="1454" on="1"/>
        <pt x="784" y="1454" on="1"/>
        <pt x="784" y="715" on="1"/>
        <pt x="784" y="611" on="0"/>
        <pt x="777" y="457" on="0"/>
        <pt x="755" y="295" on="0"/>
        <pt x="716" y="181" on="0"/>
        <pt x="652" y="77" on="0"/>
        <pt x="562" y="14" on="0"/>
        <pt x="435" y="-23" on="0"/>
        <pt x="354" y="-23" on="1"/>
        <pt x="172" y="-23" on="0"/>
        <pt x="39" y="68" on="1"/>
      </contour>
    </TTGlyph>
    <TTGlyph name="K" xMin="203" yMin="0" xMax="1257" yMax="1454">
      <contour>
        <pt x="203" y="0" on="1"/>
        <pt x="203" y="1454" on="1"/>
        <pt x="244" y="1454" on="1"/>
        <pt x="244" y="510" on="1"/>
        <pt x="1169" y="1454" on="1"/>
        <pt x="1229" y="1454" on="1"/>
        <pt x="608" y="819" on="1"/>
        <pt x="1257" y="0" on="1"/>
        <pt x="1204" y="0" on="1"/>
        <pt x="578" y="791" on="1"/>
        <pt x="244" y="453" on="1"/>
        <pt x="244" y="0" on="1"/>
      </contour>
    </TTGlyph>
    <TTGlyph name="Kabashkircyrillic" xMin="0" yMin="0" xMax="1384" yMax="1454">
      <contour>
        <pt x="795" y="748" on="1"/>
        <pt x="1384" y="0" on="1"/>
        <pt x="1331" y="0" on="1"/>
        <pt x="762" y="723" on="1"/>
        <pt x="473" y="723" on="1"/>
        <pt x="473" y="0" on="1"/>
        <pt x="432" y="0" on="1"/>
        <pt x="432" y="1413" on="1"/>
        <pt x="0" y="1413" on="1"/>
        <pt x="0" y="1454" on="1"/>
        <pt x="473" y="1454" on="1"/>
        <pt x="473" y="764" on="1"/>
        <pt x="758" y="764" on="1"/>
        <pt x="1305" y="1454" on="1"/>
        <pt x="1356" y="1454" on="1"/>
      </contour>
    </TTGlyph>
    <TTGlyph name="Kadescendercyrillic" xMin="203" yMin="-276" xMax="1249" yMax="1454">
      <contour>
        <pt x="1122" y="41" on="1"/>
        <pt x="1249" y="41" on="1"/>
        <pt x="1249" y="-276" on="1"/>
        <pt x="1208" y="-276" on="1"/>
        <pt x="1208" y="0" on="1"/>
        <pt x="1102" y="0" on="1"/>
        <pt x="532" y="723" on="1"/>
        <pt x="244" y="723" on="1"/>
        <pt x="244" y="0" on="1"/>
        <pt x="203" y="0" on="1"/>
        <pt x="203" y="1454" on="1"/>
        <pt x="244" y="1454" on="1"/>
        <pt x="244" y="764" on="1"/>
        <pt x="528" y="764" on="1"/>
        <pt x="1075" y="1454" on="1"/>
        <pt x="1126" y="1454" on="1"/>
        <pt x="565" y="748" on="1"/>
      </contour>
    </TTGlyph>
    <TTGlyph name="Kaverticalstrokecyrillic" xMin="203" yMin="0" xMax="1155" yMax="1454">
      <contour>
        <pt x="606" y="748" on="1"/>
        <pt x="1155" y="0" on="1"/>
        <pt x="1102" y="0" on="1"/>
        <pt x="573" y="723" on="1"/>
        <pt x="508" y="723" on="1"/>
        <pt x="508" y="406" on="1"/>
        <pt x="467" y="406" on="1"/>
        <pt x="467" y="723" on="1"/>
        <pt x="244" y="723" on="1"/>
        <pt x="244" y="0" on="1"/>
        <pt x="203" y="0" on="1"/>
        <pt x="203" y="1454" on="1"/>
        <pt x="244" y="1454" on="1"/>
        <pt x="244" y="764" on="1"/>
        <pt x="467" y="764" on="1"/>
        <pt x="467" y="1057" on="1"/>
        <pt x="508" y="1057" on="1"/>
        <pt x="508" y="764" on="1"/>
        <pt x="569" y="764" on="1"/>
        <pt x="1075" y="1454" on="1"/>
        <pt x="1126" y="1454" on="1"/>
      </contour>
    </TTGlyph>
    <TTGlyph name="Kcedilla" xMin="203" yMin="-342" xMax="1257" yMax="1454">
      <contour>
        <pt x="203" y="0" on="1"/>
        <pt x="203" y="1454" on="1"/>
        <pt x="244" y="1454" on="1"/>
        <pt x="244" y="510" on="1"/>
        <pt x="1169" y="1454" on="1"/>
        <pt x="1229" y="1454" on="1"/>
        <pt x="608" y="819" on="1"/>
        <pt x="1257" y="0" on="1"/>
        <pt x="1204" y="0" on="1"/>
        <pt x="578" y="791" on="1"/>
        <pt x="244" y="453" on="1"/>
        <pt x="244" y="0" on="1"/>
      </contour>
      <contour>
        <pt x="608" y="-342" on="1"/>
        <pt x="629" y="-223" on="1"/>
        <pt x="610" y="-223" on="1"/>
        <pt x="610" y="-102" on="1"/>
        <pt x="664" y="-102" on="1"/>
        <pt x="664" y="-223" on="1"/>
        <pt x="637" y="-342" on="1"/>
      </contour>
    </TTGlyph>
    <TTGlyph name="L" xMin="203" yMin="0" xMax="1157" yMax="1454">
      <contour>
        <pt x="203" y="0" on="1"/>
        <pt x="203" y="1454" on="1"/>
        <pt x="244" y="1454" on="1"/>
        <pt x="244" y="41" on="1"/>
        <pt x="1157" y="41" on="1"/>
        <pt x="1157" y="0" on="1"/>
      </contour>
    </TTGlyph>
    <TTGlyph name="Lacute" xMin="203" yMin="0" xMax="1157" yMax="1886">
      <contour>
        <pt x="236" y="1712" on="1"/>
        <pt x="203" y="1737" on="1"/>
        <pt x="334" y="1886" on="1"/>
        <pt x="403" y="1886" on="1"/>
      </contour>
      <contour>
        <pt x="203" y="0" on="1"/>
        <pt x="203" y="1454" on="1"/>
        <pt x="244" y="1454" on="1"/>
        <pt x="244" y="41" on="1"/>
        <pt x="1157" y="41" on="1"/>
        <pt x="1157" y="0" on="1"/>
      </contour>
    </TTGlyph>
    <TTGlyph name="Lcaron" xMin="203" yMin="0" xMax="1157" yMax="1509">
      <contour>
        <pt x="823" y="1335" on="1"/>
        <pt x="791" y="1360" on="1"/>
        <pt x="922" y="1509" on="1"/>
        <pt x="991" y="1509" on="1"/>
      </contour>
      <contour>
        <pt x="203" y="0" on="1"/>
        <pt x="203" y="1454" on="1"/>
        <pt x="244" y="1454" on="1"/>
        <pt x="244" y="41" on="1"/>
        <pt x="1157" y="41" on="1"/>
        <pt x="1157" y="0" on="1"/>
      </contour>
    </TTGlyph>
    <TTGlyph name="Lcedilla" xMin="203" yMin="-342" xMax="1157" yMax="1454">
      <contour>
        <pt x="203" y="0" on="1"/>
        <pt x="203" y="1454" on="1"/>
        <pt x="244" y="1454" on="1"/>
        <pt x="244" y="41" on="1"/>
        <pt x="1157" y="41" on="1"/>
        <pt x="1157" y="0" on="1"/>
      </contour>
      <contour>
        <pt x="643" y="-342" on="1"/>
        <pt x="664" y="-223" on="1"/>
        <pt x="645" y="-223" on="1"/>
        <pt x="645" y="-102" on="1"/>
        <pt x="698" y="-102" on="1"/>
        <pt x="698" y="-223" on="1"/>
        <pt x="672" y="-342" on="1"/>
      </contour>
    </TTGlyph>
    <TTGlyph name="Ldot" xMin="203" yMin="0" xMax="1157" yMax="1454">
      <contour>
        <pt x="203" y="0" on="1"/>
        <pt x="203" y="1454" on="1"/>
        <pt x="244" y="1454" on="1"/>
        <pt x="244" y="41" on="1"/>
        <pt x="1157" y="41" on="1"/>
        <pt x="1157" y="0" on="1"/>
      </contour>
      <contour>
        <pt x="750" y="737" on="1"/>
        <pt x="750" y="907" on="1"/>
        <pt x="791" y="907" on="1"/>
        <pt x="791" y="737" on="1"/>
      </contour>
    </TTGlyph>
    <TTGlyph name="Ldotbelow" xMin="203" yMin="-260" xMax="1157" yMax="1454">
      <contour>
        <pt x="203" y="0" on="1"/>
        <pt x="203" y="1454" on="1"/>
        <pt x="244" y="1454" on="1"/>
        <pt x="244" y="41" on="1"/>
        <pt x="1157" y="41" on="1"/>
        <pt x="1157" y="0" on="1"/>
      </contour>
      <contour>
        <pt x="657" y="-260" on="1"/>
        <pt x="657" y="-102" on="1"/>
        <pt x="698" y="-102" on="1"/>
        <pt x="698" y="-260" on="1"/>
      </contour>
    </TTGlyph>
    <TTGlyph name="Llinebelow" xMin="203" yMin="-195" xMax="1157" yMax="1454">
      <contour>
        <pt x="203" y="0" on="1"/>
        <pt x="203" y="1454" on="1"/>
        <pt x="244" y="1454" on="1"/>
        <pt x="244" y="41" on="1"/>
        <pt x="1157" y="41" on="1"/>
        <pt x="1157" y="0" on="1"/>
      </contour>
      <contour>
        <pt x="391" y="-195" on="1"/>
        <pt x="391" y="-154" on="1"/>
        <pt x="965" y="-154" on="1"/>
        <pt x="965" y="-195" on="1"/>
      </contour>
    </TTGlyph>
    <TTGlyph name="Lslash" xMin="59" yMin="0" xMax="1171" yMax="1454">
      <contour>
        <pt x="258" y="41" on="1"/>
        <pt x="1171" y="41" on="1"/>
        <pt x="1171" y="0" on="1"/>
        <pt x="217" y="0" on="1"/>
        <pt x="217" y="582" on="1"/>
        <pt x="88" y="453" on="1"/>
        <pt x="59" y="483" on="1"/>
        <pt x="217" y="641" on="1"/>
        <pt x="217" y="1454" on="1"/>
        <pt x="258" y="1454" on="1"/>
        <pt x="258" y="682" on="1"/>
        <pt x="643" y="1067" on="1"/>
        <pt x="672" y="1036" on="1"/>
        <pt x="258" y="623" on="1"/>
      </contour>
    </TTGlyph>
    <TTGlyph name="M" xMin="203" yMin="0" xMax="1608" yMax="1454">
      <contour>
        <pt x="1567" y="0" on="1"/>
        <pt x="1567" y="1364" on="1"/>
        <pt x="922" y="287" on="1"/>
        <pt x="889" y="287" on="1"/>
        <pt x="244" y="1364" on="1"/>
        <pt x="244" y="0" on="1"/>
        <pt x="203" y="0" on="1"/>
        <pt x="203" y="1454" on="1"/>
        <pt x="236" y="1454" on="1"/>
        <pt x="905" y="336" on="1"/>
        <pt x="1575" y="1454" on="1"/>
        <pt x="1608" y="1454" on="1"/>
        <pt x="1608" y="0" on="1"/>
      </contour>
    </TTGlyph>
    <TTGlyph name="Mdotbelow" xMin="203" yMin="-260" xMax="1608" yMax="1454">
      <contour>
        <pt x="1567" y="0" on="1"/>
        <pt x="1567" y="1364" on="1"/>
        <pt x="922" y="287" on="1"/>
        <pt x="889" y="287" on="1"/>
        <pt x="244" y="1364" on="1"/>
        <pt x="244" y="0" on="1"/>
        <pt x="203" y="0" on="1"/>
        <pt x="203" y="1454" on="1"/>
        <pt x="236" y="1454" on="1"/>
        <pt x="905" y="336" on="1"/>
        <pt x="1575" y="1454" on="1"/>
        <pt x="1608" y="1454" on="1"/>
        <pt x="1608" y="0" on="1"/>
      </contour>
      <contour>
        <pt x="885" y="-260" on="1"/>
        <pt x="885" y="-102" on="1"/>
        <pt x="926" y="-102" on="1"/>
        <pt x="926" y="-260" on="1"/>
      </contour>
    </TTGlyph>
    <TTGlyph name="N" xMin="203" yMin="0" xMax="1386" yMax="1454">
      <contour>
        <pt x="244" y="1374" on="1"/>
        <pt x="244" y="0" on="1"/>
        <pt x="203" y="0" on="1"/>
        <pt x="203" y="1454" on="1"/>
        <pt x="233" y="1454" on="1"/>
        <pt x="1346" y="59" on="1"/>
        <pt x="1346" y="1454" on="1"/>
        <pt x="1386" y="1454" on="1"/>
        <pt x="1386" y="0" on="1"/>
        <pt x="1339" y="0" on="1"/>
      </contour>
    </TTGlyph>
    <TTGlyph name="Nacute" xMin="203" yMin="0" xMax="1386" yMax="1880">
      <contour>
        <pt x="817" y="1706" on="1"/>
        <pt x="784" y="1731" on="1"/>
        <pt x="915" y="1880" on="1"/>
        <pt x="985" y="1880" on="1"/>
      </contour>
      <contour>
        <pt x="244" y="1374" on="1"/>
        <pt x="244" y="0" on="1"/>
        <pt x="203" y="0" on="1"/>
        <pt x="203" y="1454" on="1"/>
        <pt x="233" y="1454" on="1"/>
        <pt x="1346" y="59" on="1"/>
        <pt x="1346" y="1454" on="1"/>
        <pt x="1386" y="1454" on="1"/>
        <pt x="1386" y="0" on="1"/>
        <pt x="1339" y="0" on="1"/>
      </contour>
    </TTGlyph>
    <TTGlyph name="Ncaron" xMin="203" yMin="0" xMax="1386" yMax="1880">
      <contour>
        <pt x="631" y="1880" on="1"/>
        <pt x="805" y="1751" on="1"/>
        <pt x="979" y="1880" on="1"/>
        <pt x="1012" y="1855" on="1"/>
        <pt x="821" y="1704" on="1"/>
        <pt x="788" y="1704" on="1"/>
        <pt x="598" y="1855" on="1"/>
      </contour>
      <contour>
        <pt x="244" y="1374" on="1"/>
        <pt x="244" y="0" on="1"/>
        <pt x="203" y="0" on="1"/>
        <pt x="203" y="1454" on="1"/>
        <pt x="233" y="1454" on="1"/>
        <pt x="1346" y="59" on="1"/>
        <pt x="1346" y="1454" on="1"/>
        <pt x="1386" y="1454" on="1"/>
        <pt x="1386" y="0" on="1"/>
        <pt x="1339" y="0" on="1"/>
      </contour>
    </TTGlyph>
    <TTGlyph name="Ncedilla" xMin="203" yMin="-342" xMax="1386" yMax="1454">
      <contour>
        <pt x="244" y="1374" on="1"/>
        <pt x="244" y="0" on="1"/>
        <pt x="203" y="0" on="1"/>
        <pt x="203" y="1454" on="1"/>
        <pt x="233" y="1454" on="1"/>
        <pt x="1346" y="59" on="1"/>
        <pt x="1346" y="1454" on="1"/>
        <pt x="1386" y="1454" on="1"/>
        <pt x="1386" y="0" on="1"/>
        <pt x="1339" y="0" on="1"/>
      </contour>
      <contour>
        <pt x="772" y="-342" on="1"/>
        <pt x="793" y="-223" on="1"/>
        <pt x="774" y="-223" on="1"/>
        <pt x="774" y="-102" on="1"/>
        <pt x="827" y="-102" on="1"/>
        <pt x="827" y="-223" on="1"/>
        <pt x="801" y="-342" on="1"/>
      </contour>
    </TTGlyph>
    <TTGlyph name="Ndotaccent" xMin="203" yMin="0" xMax="1386" yMax="1880">
      <contour>
        <pt x="784" y="1722" on="1"/>
        <pt x="784" y="1880" on="1"/>
        <pt x="825" y="1880" on="1"/>
        <pt x="825" y="1722" on="1"/>
      </contour>
      <contour>
        <pt x="244" y="1374" on="1"/>
        <pt x="244" y="0" on="1"/>
        <pt x="203" y="0" on="1"/>
        <pt x="203" y="1454" on="1"/>
        <pt x="233" y="1454" on="1"/>
        <pt x="1346" y="59" on="1"/>
        <pt x="1346" y="1454" on="1"/>
        <pt x="1386" y="1454" on="1"/>
        <pt x="1386" y="0" on="1"/>
        <pt x="1339" y="0" on="1"/>
      </contour>
    </TTGlyph>
    <TTGlyph name="Ndotbelow" xMin="203" yMin="-260" xMax="1386" yMax="1454">
      <contour>
        <pt x="244" y="1374" on="1"/>
        <pt x="244" y="0" on="1"/>
        <pt x="203" y="0" on="1"/>
        <pt x="203" y="1454" on="1"/>
        <pt x="233" y="1454" on="1"/>
        <pt x="1346" y="59" on="1"/>
        <pt x="1346" y="1454" on="1"/>
        <pt x="1386" y="1454" on="1"/>
        <pt x="1386" y="0" on="1"/>
        <pt x="1339" y="0" on="1"/>
      </contour>
      <contour>
        <pt x="786" y="-260" on="1"/>
        <pt x="786" y="-102" on="1"/>
        <pt x="827" y="-102" on="1"/>
        <pt x="827" y="-260" on="1"/>
      </contour>
    </TTGlyph>
    <TTGlyph name="Nlinebelow" xMin="203" yMin="-195" xMax="1386" yMax="1454">
      <contour>
        <pt x="244" y="1374" on="1"/>
        <pt x="244" y="0" on="1"/>
        <pt x="203" y="0" on="1"/>
        <pt x="203" y="1454" on="1"/>
        <pt x="233" y="1454" on="1"/>
        <pt x="1346" y="59" on="1"/>
        <pt x="1346" y="1454" on="1"/>
        <pt x="1386" y="1454" on="1"/>
        <pt x="1386" y="0" on="1"/>
        <pt x="1339" y="0" on="1"/>
      </contour>
      <contour>
        <pt x="520" y="-195" on="1"/>
        <pt x="520" y="-154" on="1"/>
        <pt x="1094" y="-154" on="1"/>
        <pt x="1094" y="-195" on="1"/>
      </contour>
    </TTGlyph>
    <TTGlyph name="Ntilde" xMin="203" yMin="0" xMax="1386" yMax="1880">
      <contour>
        <pt x="666" y="1821" on="1"/>
        <pt x="636" y="1821" on="0"/>
        <pt x="590" y="1794" on="0"/>
        <pt x="570" y="1757" on="0"/>
        <pt x="561" y="1729" on="0"/>
        <pt x="561" y="1722" on="1"/>
        <pt x="520" y="1722" on="1"/>
        <pt x="520" y="1729" on="0"/>
        <pt x="525" y="1754" on="0"/>
        <pt x="544" y="1797" on="0"/>
        <pt x="574" y="1833" on="0"/>
        <pt x="632" y="1860" on="0"/>
        <pt x="670" y="1860" on="1"/>
        <pt x="723" y="1860" on="0"/>
        <pt x="874" y="1782" on="0"/>
        <pt x="926" y="1782" on="1"/>
        <pt x="958" y="1782" on="0"/>
        <pt x="1006" y="1801" on="0"/>
        <pt x="1029" y="1827" on="0"/>
        <pt x="1044" y="1858" on="0"/>
        <pt x="1047" y="1875" on="0"/>
        <pt x="1047" y="1880" on="1"/>
        <pt x="1087" y="1880" on="1"/>
        <pt x="1087" y="1872" on="0"/>
        <pt x="1082" y="1846" on="0"/>
        <pt x="1062" y="1803" on="0"/>
        <pt x="1029" y="1769" on="0"/>
        <pt x="964" y="1743" on="0"/>
        <pt x="922" y="1743" on="1"/>
        <pt x="871" y="1743" on="0"/>
        <pt x="778" y="1782" on="0"/>
        <pt x="700" y="1821" on="0"/>
      </contour>
      <contour>
        <pt x="244" y="1374" on="1"/>
        <pt x="244" y="0" on="1"/>
        <pt x="203" y="0" on="1"/>
        <pt x="203" y="1454" on="1"/>
        <pt x="233" y="1454" on="1"/>
        <pt x="1346" y="59" on="1"/>
        <pt x="1346" y="1454" on="1"/>
        <pt x="1386" y="1454" on="1"/>
        <pt x="1386" y="0" on="1"/>
        <pt x="1339" y="0" on="1"/>
      </contour>
    </TTGlyph>
    <TTGlyph name="O" xMin="98" yMin="-10" xMax="1452" yMax="1464">
      <contour>
        <pt x="98" y="727" on="1"/>
        <pt x="98" y="919" on="0"/>
        <pt x="275" y="1257" on="0"/>
        <pt x="589" y="1464" on="0"/>
        <pt x="776" y="1464" on="1"/>
        <pt x="921" y="1464" on="0"/>
        <pt x="1179" y="1335" on="0"/>
        <pt x="1352" y="1127" on="0"/>
        <pt x="1452" y="863" on="0"/>
        <pt x="1452" y="727" on="1"/>
        <pt x="1452" y="533" on="0"/>
        <pt x="1275" y="195" on="0"/>
        <pt x="962" y="-10" on="0"/>
        <pt x="776" y="-10" on="1"/>
        <pt x="630" y="-9" on="0"/>
        <pt x="373" y="117" on="0"/>
        <pt x="199" y="322" on="0"/>
        <pt x="98" y="588" on="0"/>
      </contour>
      <contour>
        <pt x="776" y="31" on="1"/>
        <pt x="886" y="31" on="0"/>
        <pt x="1088" y="110" on="0"/>
        <pt x="1240" y="246" on="0"/>
        <pt x="1353" y="422" on="0"/>
        <pt x="1411" y="625" on="0"/>
        <pt x="1411" y="727" on="1"/>
        <pt x="1411" y="907" on="0"/>
        <pt x="1246" y="1226" on="0"/>
        <pt x="951" y="1423" on="0"/>
        <pt x="776" y="1423" on="1"/>
        <pt x="638" y="1423" on="0"/>
        <pt x="396" y="1302" on="0"/>
        <pt x="233" y="1106" on="0"/>
        <pt x="139" y="856" on="0"/>
        <pt x="139" y="727" on="1"/>
        <pt x="139" y="592" on="0"/>
        <pt x="236" y="339" on="0"/>
        <pt x="402" y="147" on="0"/>
        <pt x="641" y="31" on="0"/>
      </contour>
    </TTGlyph>
    <TTGlyph name="OE" xMin="98" yMin="-10" xMax="2365" yMax="1464">
      <contour>
        <pt x="2365" y="41" on="1"/>
        <pt x="2365" y="0" on="1"/>
        <pt x="1411" y="0" on="1"/>
        <pt x="1411" y="479" on="1"/>
        <pt x="1338" y="267" on="0"/>
        <pt x="995" y="-10" on="0"/>
        <pt x="780" y="-10" on="1"/>
        <pt x="633" y="-10" on="0"/>
        <pt x="375" y="116" on="0"/>
        <pt x="199" y="322" on="0"/>
        <pt x="98" y="588" on="0"/>
        <pt x="98" y="727" on="1"/>
        <pt x="98" y="919" on="0"/>
        <pt x="275" y="1257" on="0"/>
        <pt x="589" y="1464" on="0"/>
        <pt x="776" y="1464" on="1"/>
        <pt x="889" y="1464" on="0"/>
        <pt x="1096" y="1386" on="0"/>
        <pt x="1256" y="1251" on="0"/>
        <pt x="1377" y="1075" on="0"/>
        <pt x="1411" y="973" on="1"/>
        <pt x="1411" y="1454" on="1"/>
        <pt x="2347" y="1454" on="1"/>
        <pt x="2347" y="1413" on="1"/>
        <pt x="1452" y="1413" on="1"/>
        <pt x="1452" y="764" on="1"/>
        <pt x="2236" y="764" on="1"/>
        <pt x="2236" y="723" on="1"/>
        <pt x="1452" y="723" on="1"/>
        <pt x="1452" y="41" on="1"/>
      </contour>
      <contour>
        <pt x="1411" y="729" on="1"/>
        <pt x="1411" y="908" on="0"/>
        <pt x="1246" y="1226" on="0"/>
        <pt x="951" y="1423" on="0"/>
        <pt x="776" y="1423" on="1"/>
        <pt x="638" y="1423" on="0"/>
        <pt x="396" y="1302" on="0"/>
        <pt x="233" y="1106" on="0"/>
        <pt x="139" y="856" on="0"/>
        <pt x="139" y="727" on="1"/>
        <pt x="139" y="592" on="0"/>
        <pt x="236" y="339" on="0"/>
        <pt x="402" y="147" on="0"/>
        <pt x="641" y="31" on="0"/>
        <pt x="776" y="31" on="1"/>
        <pt x="914" y="31" on="0"/>
        <pt x="1155" y="152" on="0"/>
        <pt x="1318" y="349" on="0"/>
        <pt x="1411" y="599" on="0"/>
      </contour>
    </TTGlyph>
    <TTGlyph name="Oacute" xMin="98" yMin="-10" xMax="1452" yMax="1880">
      <contour>
        <pt x="788" y="1706" on="1"/>
        <pt x="756" y="1731" on="1"/>
        <pt x="887" y="1880" on="1"/>
        <pt x="956" y="1880" on="1"/>
      </contour>
      <contour>
        <pt x="98" y="727" on="1"/>
        <pt x="98" y="919" on="0"/>
        <pt x="275" y="1257" on="0"/>
        <pt x="589" y="1464" on="0"/>
        <pt x="776" y="1464" on="1"/>
        <pt x="921" y="1464" on="0"/>
        <pt x="1179" y="1335" on="0"/>
        <pt x="1352" y="1127" on="0"/>
        <pt x="1452" y="863" on="0"/>
        <pt x="1452" y="727" on="1"/>
        <pt x="1452" y="533" on="0"/>
        <pt x="1275" y="195" on="0"/>
        <pt x="962" y="-10" on="0"/>
        <pt x="776" y="-10" on="1"/>
        <pt x="630" y="-9" on="0"/>
        <pt x="373" y="117" on="0"/>
        <pt x="199" y="322" on="0"/>
        <pt x="98" y="588" on="0"/>
      </contour>
      <contour>
        <pt x="776" y="31" on="1"/>
        <pt x="886" y="31" on="0"/>
        <pt x="1088" y="110" on="0"/>
        <pt x="1240" y="246" on="0"/>
        <pt x="1353" y="422" on="0"/>
        <pt x="1411" y="625" on="0"/>
        <pt x="1411" y="727" on="1"/>
        <pt x="1411" y="907" on="0"/>
        <pt x="1246" y="1226" on="0"/>
        <pt x="951" y="1423" on="0"/>
        <pt x="776" y="1423" on="1"/>
        <pt x="638" y="1423" on="0"/>
        <pt x="396" y="1302" on="0"/>
        <pt x="233" y="1106" on="0"/>
        <pt x="139" y="856" on="0"/>
        <pt x="139" y="727" on="1"/>
        <pt x="139" y="592" on="0"/>
        <pt x="236" y="339" on="0"/>
        <pt x="402" y="147" on="0"/>
        <pt x="641" y="31" on="0"/>
      </contour>
    </TTGlyph>
    <TTGlyph name="Obarredcyrillic" xMin="98" yMin="-10" xMax="1452" yMax="1464">
      <contour>
        <pt x="776" y="1464" on="1"/>
        <pt x="921" y="1464" on="0"/>
        <pt x="1179" y="1335" on="0"/>
        <pt x="1352" y="1127" on="0"/>
        <pt x="1452" y="863" on="0"/>
        <pt x="1452" y="727" on="1"/>
        <pt x="1452" y="533" on="0"/>
        <pt x="1275" y="195" on="0"/>
        <pt x="962" y="-10" on="0"/>
        <pt x="776" y="-10" on="1"/>
        <pt x="630" y="-9" on="0"/>
        <pt x="373" y="117" on="0"/>
        <pt x="199" y="322" on="0"/>
        <pt x="98" y="588" on="0"/>
        <pt x="98" y="727" on="1"/>
        <pt x="98" y="919" on="0"/>
        <pt x="275" y="1257" on="0"/>
        <pt x="589" y="1464" on="0"/>
      </contour>
      <contour>
        <pt x="776" y="1423" on="1"/>
        <pt x="643" y="1423" on="0"/>
        <pt x="408" y="1310" on="0"/>
        <pt x="245" y="1125" on="0"/>
        <pt x="146" y="889" on="0"/>
        <pt x="139" y="764" on="1"/>
        <pt x="1411" y="764" on="1"/>
        <pt x="1402" y="937" on="0"/>
        <pt x="1233" y="1239" on="0"/>
        <pt x="945" y="1423" on="0"/>
      </contour>
      <contour>
        <pt x="776" y="31" on="1"/>
        <pt x="913" y="31" on="0"/>
        <pt x="1154" y="152" on="0"/>
        <pt x="1316" y="347" on="0"/>
        <pt x="1410" y="595" on="0"/>
        <pt x="1411" y="723" on="1"/>
        <pt x="139" y="723" on="1"/>
        <pt x="140" y="543" on="0"/>
        <pt x="303" y="227" on="0"/>
        <pt x="598" y="31" on="0"/>
      </contour>
    </TTGlyph>
    <TTGlyph name="Obreve" xMin="98" yMin="-10" xMax="1452" yMax="1880">
      <contour>
        <pt x="891" y="1880" on="1"/>
        <pt x="928" y="1880" on="1"/>
        <pt x="928" y="1817" on="0"/>
        <pt x="836" y="1722" on="0"/>
        <pt x="716" y="1722" on="0"/>
        <pt x="625" y="1817" on="0"/>
        <pt x="625" y="1880" on="1"/>
        <pt x="664" y="1880" on="1"/>
        <pt x="664" y="1834" on="0"/>
        <pt x="733" y="1757" on="0"/>
        <pt x="776" y="1757" on="1"/>
        <pt x="817" y="1757" on="0"/>
        <pt x="885" y="1829" on="0"/>
      </contour>
      <contour>
        <pt x="98" y="727" on="1"/>
        <pt x="98" y="919" on="0"/>
        <pt x="275" y="1257" on="0"/>
        <pt x="589" y="1464" on="0"/>
        <pt x="776" y="1464" on="1"/>
        <pt x="921" y="1464" on="0"/>
        <pt x="1179" y="1335" on="0"/>
        <pt x="1352" y="1127" on="0"/>
        <pt x="1452" y="863" on="0"/>
        <pt x="1452" y="727" on="1"/>
        <pt x="1452" y="533" on="0"/>
        <pt x="1275" y="195" on="0"/>
        <pt x="962" y="-10" on="0"/>
        <pt x="776" y="-10" on="1"/>
        <pt x="630" y="-9" on="0"/>
        <pt x="373" y="117" on="0"/>
        <pt x="199" y="322" on="0"/>
        <pt x="98" y="588" on="0"/>
      </contour>
      <contour>
        <pt x="776" y="31" on="1"/>
        <pt x="886" y="31" on="0"/>
        <pt x="1088" y="110" on="0"/>
        <pt x="1240" y="246" on="0"/>
        <pt x="1353" y="422" on="0"/>
        <pt x="1411" y="625" on="0"/>
        <pt x="1411" y="727" on="1"/>
        <pt x="1411" y="907" on="0"/>
        <pt x="1246" y="1226" on="0"/>
        <pt x="951" y="1423" on="0"/>
        <pt x="776" y="1423" on="1"/>
        <pt x="638" y="1423" on="0"/>
        <pt x="396" y="1302" on="0"/>
        <pt x="233" y="1106" on="0"/>
        <pt x="139" y="856" on="0"/>
        <pt x="139" y="727" on="1"/>
        <pt x="139" y="592" on="0"/>
        <pt x="236" y="339" on="0"/>
        <pt x="402" y="147" on="0"/>
        <pt x="641" y="31" on="0"/>
      </contour>
    </TTGlyph>
    <TTGlyph name="Ocircumflex" xMin="98" yMin="-10" xMax="1452" yMax="1880">
      <contour>
        <pt x="569" y="1729" on="1"/>
        <pt x="760" y="1880" on="1"/>
        <pt x="793" y="1880" on="1"/>
        <pt x="983" y="1729" on="1"/>
        <pt x="950" y="1704" on="1"/>
        <pt x="776" y="1833" on="1"/>
        <pt x="602" y="1704" on="1"/>
      </contour>
      <contour>
        <pt x="98" y="727" on="1"/>
        <pt x="98" y="919" on="0"/>
        <pt x="275" y="1257" on="0"/>
        <pt x="589" y="1464" on="0"/>
        <pt x="776" y="1464" on="1"/>
        <pt x="921" y="1464" on="0"/>
        <pt x="1179" y="1335" on="0"/>
        <pt x="1352" y="1127" on="0"/>
        <pt x="1452" y="863" on="0"/>
        <pt x="1452" y="727" on="1"/>
        <pt x="1452" y="533" on="0"/>
        <pt x="1275" y="195" on="0"/>
        <pt x="962" y="-10" on="0"/>
        <pt x="776" y="-10" on="1"/>
        <pt x="630" y="-9" on="0"/>
        <pt x="373" y="117" on="0"/>
        <pt x="199" y="322" on="0"/>
        <pt x="98" y="588" on="0"/>
      </contour>
      <contour>
        <pt x="776" y="31" on="1"/>
        <pt x="886" y="31" on="0"/>
        <pt x="1088" y="110" on="0"/>
        <pt x="1240" y="246" on="0"/>
        <pt x="1353" y="422" on="0"/>
        <pt x="1411" y="625" on="0"/>
        <pt x="1411" y="727" on="1"/>
        <pt x="1411" y="907" on="0"/>
        <pt x="1246" y="1226" on="0"/>
        <pt x="951" y="1423" on="0"/>
        <pt x="776" y="1423" on="1"/>
        <pt x="638" y="1423" on="0"/>
        <pt x="396" y="1302" on="0"/>
        <pt x="233" y="1106" on="0"/>
        <pt x="139" y="856" on="0"/>
        <pt x="139" y="727" on="1"/>
        <pt x="139" y="592" on="0"/>
        <pt x="236" y="339" on="0"/>
        <pt x="402" y="147" on="0"/>
        <pt x="641" y="31" on="0"/>
      </contour>
    </TTGlyph>
    <TTGlyph name="Ocircumflexacute" xMin="98" yMin="-10" xMax="1452" yMax="1874">
      <contour>
        <pt x="971" y="1700" on="1"/>
        <pt x="938" y="1724" on="1"/>
        <pt x="1069" y="1874" on="1"/>
        <pt x="1139" y="1874" on="1"/>
      </contour>
      <contour>
        <pt x="563" y="1632" on="1"/>
        <pt x="754" y="1784" on="1"/>
        <pt x="786" y="1784" on="1"/>
        <pt x="977" y="1632" on="1"/>
        <pt x="944" y="1608" on="1"/>
        <pt x="770" y="1737" on="1"/>
        <pt x="596" y="1608" on="1"/>
      </contour>
      <contour>
        <pt x="98" y="727" on="1"/>
        <pt x="98" y="919" on="0"/>
        <pt x="275" y="1257" on="0"/>
        <pt x="589" y="1464" on="0"/>
        <pt x="776" y="1464" on="1"/>
        <pt x="921" y="1464" on="0"/>
        <pt x="1179" y="1335" on="0"/>
        <pt x="1352" y="1127" on="0"/>
        <pt x="1452" y="863" on="0"/>
        <pt x="1452" y="727" on="1"/>
        <pt x="1452" y="533" on="0"/>
        <pt x="1275" y="195" on="0"/>
        <pt x="962" y="-10" on="0"/>
        <pt x="776" y="-10" on="1"/>
        <pt x="630" y="-9" on="0"/>
        <pt x="373" y="117" on="0"/>
        <pt x="199" y="322" on="0"/>
        <pt x="98" y="588" on="0"/>
      </contour>
      <contour>
        <pt x="776" y="31" on="1"/>
        <pt x="886" y="31" on="0"/>
        <pt x="1088" y="110" on="0"/>
        <pt x="1240" y="246" on="0"/>
        <pt x="1353" y="422" on="0"/>
        <pt x="1411" y="625" on="0"/>
        <pt x="1411" y="727" on="1"/>
        <pt x="1411" y="907" on="0"/>
        <pt x="1246" y="1226" on="0"/>
        <pt x="951" y="1423" on="0"/>
        <pt x="776" y="1423" on="1"/>
        <pt x="638" y="1423" on="0"/>
        <pt x="396" y="1302" on="0"/>
        <pt x="233" y="1106" on="0"/>
        <pt x="139" y="856" on="0"/>
        <pt x="139" y="727" on="1"/>
        <pt x="139" y="592" on="0"/>
        <pt x="236" y="339" on="0"/>
        <pt x="402" y="147" on="0"/>
        <pt x="641" y="31" on="0"/>
      </contour>
    </TTGlyph>
    <TTGlyph name="Ocircumflexdotbelow" xMin="98" yMin="-260" xMax="1452" yMax="1880">
      <contour>
        <pt x="569" y="1729" on="1"/>
        <pt x="760" y="1880" on="1"/>
        <pt x="793" y="1880" on="1"/>
        <pt x="983" y="1729" on="1"/>
        <pt x="950" y="1704" on="1"/>
        <pt x="776" y="1833" on="1"/>
        <pt x="602" y="1704" on="1"/>
      </contour>
      <contour>
        <pt x="98" y="727" on="1"/>
        <pt x="98" y="919" on="0"/>
        <pt x="275" y="1257" on="0"/>
        <pt x="589" y="1464" on="0"/>
        <pt x="776" y="1464" on="1"/>
        <pt x="921" y="1464" on="0"/>
        <pt x="1179" y="1335" on="0"/>
        <pt x="1352" y="1127" on="0"/>
        <pt x="1452" y="863" on="0"/>
        <pt x="1452" y="727" on="1"/>
        <pt x="1452" y="533" on="0"/>
        <pt x="1275" y="195" on="0"/>
        <pt x="962" y="-10" on="0"/>
        <pt x="776" y="-10" on="1"/>
        <pt x="630" y="-9" on="0"/>
        <pt x="373" y="117" on="0"/>
        <pt x="199" y="322" on="0"/>
        <pt x="98" y="588" on="0"/>
      </contour>
      <contour>
        <pt x="776" y="31" on="1"/>
        <pt x="886" y="31" on="0"/>
        <pt x="1088" y="110" on="0"/>
        <pt x="1240" y="246" on="0"/>
        <pt x="1353" y="422" on="0"/>
        <pt x="1411" y="625" on="0"/>
        <pt x="1411" y="727" on="1"/>
        <pt x="1411" y="907" on="0"/>
        <pt x="1246" y="1226" on="0"/>
        <pt x="951" y="1423" on="0"/>
        <pt x="776" y="1423" on="1"/>
        <pt x="638" y="1423" on="0"/>
        <pt x="396" y="1302" on="0"/>
        <pt x="233" y="1106" on="0"/>
        <pt x="139" y="856" on="0"/>
        <pt x="139" y="727" on="1"/>
        <pt x="139" y="592" on="0"/>
        <pt x="236" y="339" on="0"/>
        <pt x="402" y="147" on="0"/>
        <pt x="641" y="31" on="0"/>
      </contour>
      <contour>
        <pt x="756" y="-260" on="1"/>
        <pt x="756" y="-102" on="1"/>
        <pt x="797" y="-102" on="1"/>
        <pt x="797" y="-260" on="1"/>
      </contour>
    </TTGlyph>
    <TTGlyph name="Ocircumflexgrave" xMin="98" yMin="-10" xMax="1452" yMax="1907">
      <contour>
        <pt x="403" y="1907" on="1"/>
        <pt x="471" y="1907" on="1"/>
        <pt x="604" y="1757" on="1"/>
        <pt x="571" y="1733" on="1"/>
      </contour>
      <contour>
        <pt x="561" y="1632" on="1"/>
        <pt x="752" y="1784" on="1"/>
        <pt x="784" y="1784" on="1"/>
        <pt x="975" y="1632" on="1"/>
        <pt x="942" y="1608" on="1"/>
        <pt x="768" y="1737" on="1"/>
        <pt x="594" y="1608" on="1"/>
      </contour>
      <contour>
        <pt x="98" y="727" on="1"/>
        <pt x="98" y="919" on="0"/>
        <pt x="275" y="1257" on="0"/>
        <pt x="589" y="1464" on="0"/>
        <pt x="776" y="1464" on="1"/>
        <pt x="921" y="1464" on="0"/>
        <pt x="1179" y="1335" on="0"/>
        <pt x="1352" y="1127" on="0"/>
        <pt x="1452" y="863" on="0"/>
        <pt x="1452" y="727" on="1"/>
        <pt x="1452" y="533" on="0"/>
        <pt x="1275" y="195" on="0"/>
        <pt x="962" y="-10" on="0"/>
        <pt x="776" y="-10" on="1"/>
        <pt x="630" y="-9" on="0"/>
        <pt x="373" y="117" on="0"/>
        <pt x="199" y="322" on="0"/>
        <pt x="98" y="588" on="0"/>
      </contour>
      <contour>
        <pt x="776" y="31" on="1"/>
        <pt x="886" y="31" on="0"/>
        <pt x="1088" y="110" on="0"/>
        <pt x="1240" y="246" on="0"/>
        <pt x="1353" y="422" on="0"/>
        <pt x="1411" y="625" on="0"/>
        <pt x="1411" y="727" on="1"/>
        <pt x="1411" y="907" on="0"/>
        <pt x="1246" y="1226" on="0"/>
        <pt x="951" y="1423" on="0"/>
        <pt x="776" y="1423" on="1"/>
        <pt x="638" y="1423" on="0"/>
        <pt x="396" y="1302" on="0"/>
        <pt x="233" y="1106" on="0"/>
        <pt x="139" y="856" on="0"/>
        <pt x="139" y="727" on="1"/>
        <pt x="139" y="592" on="0"/>
        <pt x="236" y="339" on="0"/>
        <pt x="402" y="147" on="0"/>
        <pt x="641" y="31" on="0"/>
      </contour>
    </TTGlyph>
    <TTGlyph name="Ocircumflexhookabove" xMin="98" yMin="-10" xMax="1452" yMax="1989">
      <contour>
        <pt x="827" y="1901" on="1"/>
        <pt x="803" y="1927" on="1"/>
        <pt x="840" y="1960" on="0"/>
        <pt x="893" y="1989" on="0"/>
        <pt x="930" y="1989" on="1"/>
        <pt x="981" y="1989" on="0"/>
        <pt x="1047" y="1926" on="0"/>
        <pt x="1047" y="1872" on="1"/>
        <pt x="1047" y="1861" on="0"/>
        <pt x="1044" y="1841" on="0"/>
        <pt x="1034" y="1820" on="0"/>
        <pt x="1026" y="1806" on="0"/>
        <pt x="1007" y="1782" on="0"/>
        <pt x="997" y="1771" on="0"/>
        <pt x="971" y="1741" on="0"/>
        <pt x="965" y="1735" on="1"/>
        <pt x="940" y="1757" on="1"/>
        <pt x="978" y="1800" on="0"/>
        <pt x="1010" y="1849" on="0"/>
        <pt x="1010" y="1872" on="1"/>
        <pt x="1010" y="1907" on="0"/>
        <pt x="968" y="1952" on="0"/>
        <pt x="926" y="1952" on="1"/>
        <pt x="900" y="1952" on="0"/>
        <pt x="861" y="1930" on="0"/>
      </contour>
      <contour>
        <pt x="559" y="1632" on="1"/>
        <pt x="750" y="1784" on="1"/>
        <pt x="782" y="1784" on="1"/>
        <pt x="973" y="1632" on="1"/>
        <pt x="940" y="1608" on="1"/>
        <pt x="766" y="1737" on="1"/>
        <pt x="592" y="1608" on="1"/>
      </contour>
      <contour>
        <pt x="98" y="727" on="1"/>
        <pt x="98" y="919" on="0"/>
        <pt x="275" y="1257" on="0"/>
        <pt x="589" y="1464" on="0"/>
        <pt x="776" y="1464" on="1"/>
        <pt x="921" y="1464" on="0"/>
        <pt x="1179" y="1335" on="0"/>
        <pt x="1352" y="1127" on="0"/>
        <pt x="1452" y="863" on="0"/>
        <pt x="1452" y="727" on="1"/>
        <pt x="1452" y="533" on="0"/>
        <pt x="1275" y="195" on="0"/>
        <pt x="962" y="-10" on="0"/>
        <pt x="776" y="-10" on="1"/>
        <pt x="630" y="-9" on="0"/>
        <pt x="373" y="117" on="0"/>
        <pt x="199" y="322" on="0"/>
        <pt x="98" y="588" on="0"/>
      </contour>
      <contour>
        <pt x="776" y="31" on="1"/>
        <pt x="886" y="31" on="0"/>
        <pt x="1088" y="110" on="0"/>
        <pt x="1240" y="246" on="0"/>
        <pt x="1353" y="422" on="0"/>
        <pt x="1411" y="625" on="0"/>
        <pt x="1411" y="727" on="1"/>
        <pt x="1411" y="907" on="0"/>
        <pt x="1246" y="1226" on="0"/>
        <pt x="951" y="1423" on="0"/>
        <pt x="776" y="1423" on="1"/>
        <pt x="638" y="1423" on="0"/>
        <pt x="396" y="1302" on="0"/>
        <pt x="233" y="1106" on="0"/>
        <pt x="139" y="856" on="0"/>
        <pt x="139" y="727" on="1"/>
        <pt x="139" y="592" on="0"/>
        <pt x="236" y="339" on="0"/>
        <pt x="402" y="147" on="0"/>
        <pt x="641" y="31" on="0"/>
      </contour>
    </TTGlyph>
    <TTGlyph name="Ocircumflextilde" xMin="98" yMin="-10" xMax="1452" yMax="1972">
      <contour>
        <pt x="651" y="1913" on="1"/>
        <pt x="621" y="1913" on="0"/>
        <pt x="576" y="1887" on="0"/>
        <pt x="556" y="1849" on="0"/>
        <pt x="547" y="1822" on="0"/>
        <pt x="547" y="1815" on="1"/>
        <pt x="506" y="1815" on="1"/>
        <pt x="506" y="1822" on="0"/>
        <pt x="511" y="1847" on="0"/>
        <pt x="529" y="1890" on="0"/>
        <pt x="559" y="1925" on="0"/>
        <pt x="617" y="1952" on="0"/>
        <pt x="655" y="1952" on="1"/>
        <pt x="708" y="1952" on="0"/>
        <pt x="859" y="1874" on="0"/>
        <pt x="911" y="1874" on="1"/>
        <pt x="943" y="1874" on="0"/>
        <pt x="991" y="1893" on="0"/>
        <pt x="1014" y="1919" on="0"/>
        <pt x="1029" y="1950" on="0"/>
        <pt x="1032" y="1967" on="0"/>
        <pt x="1032" y="1972" on="1"/>
        <pt x="1073" y="1972" on="1"/>
        <pt x="1073" y="1964" on="0"/>
        <pt x="1068" y="1938" on="0"/>
        <pt x="1047" y="1895" on="0"/>
        <pt x="1014" y="1861" on="0"/>
        <pt x="949" y="1835" on="0"/>
        <pt x="907" y="1835" on="1"/>
        <pt x="856" y="1835" on="0"/>
        <pt x="763" y="1874" on="0"/>
        <pt x="685" y="1913" on="0"/>
      </contour>
      <contour>
        <pt x="561" y="1634" on="1"/>
        <pt x="752" y="1786" on="1"/>
        <pt x="784" y="1786" on="1"/>
        <pt x="975" y="1634" on="1"/>
        <pt x="942" y="1610" on="1"/>
        <pt x="768" y="1739" on="1"/>
        <pt x="594" y="1610" on="1"/>
      </contour>
      <contour>
        <pt x="98" y="727" on="1"/>
        <pt x="98" y="919" on="0"/>
        <pt x="275" y="1257" on="0"/>
        <pt x="589" y="1464" on="0"/>
        <pt x="776" y="1464" on="1"/>
        <pt x="921" y="1464" on="0"/>
        <pt x="1179" y="1335" on="0"/>
        <pt x="1352" y="1127" on="0"/>
        <pt x="1452" y="863" on="0"/>
        <pt x="1452" y="727" on="1"/>
        <pt x="1452" y="533" on="0"/>
        <pt x="1275" y="195" on="0"/>
        <pt x="962" y="-10" on="0"/>
        <pt x="776" y="-10" on="1"/>
        <pt x="630" y="-9" on="0"/>
        <pt x="373" y="117" on="0"/>
        <pt x="199" y="322" on="0"/>
        <pt x="98" y="588" on="0"/>
      </contour>
      <contour>
        <pt x="776" y="31" on="1"/>
        <pt x="886" y="31" on="0"/>
        <pt x="1088" y="110" on="0"/>
        <pt x="1240" y="246" on="0"/>
        <pt x="1353" y="422" on="0"/>
        <pt x="1411" y="625" on="0"/>
        <pt x="1411" y="727" on="1"/>
        <pt x="1411" y="907" on="0"/>
        <pt x="1246" y="1226" on="0"/>
        <pt x="951" y="1423" on="0"/>
        <pt x="776" y="1423" on="1"/>
        <pt x="638" y="1423" on="0"/>
        <pt x="396" y="1302" on="0"/>
        <pt x="233" y="1106" on="0"/>
        <pt x="139" y="856" on="0"/>
        <pt x="139" y="727" on="1"/>
        <pt x="139" y="592" on="0"/>
        <pt x="236" y="339" on="0"/>
        <pt x="402" y="147" on="0"/>
        <pt x="641" y="31" on="0"/>
      </contour>
    </TTGlyph>
    <TTGlyph name="Odblacute" xMin="98" yMin="-10" xMax="1452" yMax="1880">
      <contour>
        <pt x="645" y="1706" on="1"/>
        <pt x="612" y="1731" on="1"/>
        <pt x="743" y="1880" on="1"/>
        <pt x="813" y="1880" on="1"/>
      </contour>
      <contour>
        <pt x="850" y="1706" on="1"/>
        <pt x="817" y="1731" on="1"/>
        <pt x="948" y="1880" on="1"/>
        <pt x="1018" y="1880" on="1"/>
      </contour>
      <contour>
        <pt x="98" y="727" on="1"/>
        <pt x="98" y="919" on="0"/>
        <pt x="275" y="1257" on="0"/>
        <pt x="589" y="1464" on="0"/>
        <pt x="776" y="1464" on="1"/>
        <pt x="921" y="1464" on="0"/>
        <pt x="1179" y="1335" on="0"/>
        <pt x="1352" y="1127" on="0"/>
        <pt x="1452" y="863" on="0"/>
        <pt x="1452" y="727" on="1"/>
        <pt x="1452" y="533" on="0"/>
        <pt x="1275" y="195" on="0"/>
        <pt x="962" y="-10" on="0"/>
        <pt x="776" y="-10" on="1"/>
        <pt x="630" y="-9" on="0"/>
        <pt x="373" y="117" on="0"/>
        <pt x="199" y="322" on="0"/>
        <pt x="98" y="588" on="0"/>
      </contour>
      <contour>
        <pt x="776" y="31" on="1"/>
        <pt x="886" y="31" on="0"/>
        <pt x="1088" y="110" on="0"/>
        <pt x="1240" y="246" on="0"/>
        <pt x="1353" y="422" on="0"/>
        <pt x="1411" y="625" on="0"/>
        <pt x="1411" y="727" on="1"/>
        <pt x="1411" y="907" on="0"/>
        <pt x="1246" y="1226" on="0"/>
        <pt x="951" y="1423" on="0"/>
        <pt x="776" y="1423" on="1"/>
        <pt x="638" y="1423" on="0"/>
        <pt x="396" y="1302" on="0"/>
        <pt x="233" y="1106" on="0"/>
        <pt x="139" y="856" on="0"/>
        <pt x="139" y="727" on="1"/>
        <pt x="139" y="592" on="0"/>
        <pt x="236" y="339" on="0"/>
        <pt x="402" y="147" on="0"/>
        <pt x="641" y="31" on="0"/>
      </contour>
    </TTGlyph>
    <TTGlyph name="Odblgrave" xMin="98" yMin="-10" xMax="1452" yMax="1880">
      <contour>
        <pt x="510" y="1880" on="1"/>
        <pt x="580" y="1880" on="1"/>
        <pt x="711" y="1731" on="1"/>
        <pt x="678" y="1706" on="1"/>
      </contour>
      <contour>
        <pt x="715" y="1880" on="1"/>
        <pt x="784" y="1880" on="1"/>
        <pt x="915" y="1731" on="1"/>
        <pt x="883" y="1706" on="1"/>
      </contour>
      <contour>
        <pt x="98" y="727" on="1"/>
        <pt x="98" y="919" on="0"/>
        <pt x="275" y="1257" on="0"/>
        <pt x="589" y="1464" on="0"/>
        <pt x="776" y="1464" on="1"/>
        <pt x="921" y="1464" on="0"/>
        <pt x="1179" y="1335" on="0"/>
        <pt x="1352" y="1127" on="0"/>
        <pt x="1452" y="863" on="0"/>
        <pt x="1452" y="727" on="1"/>
        <pt x="1452" y="533" on="0"/>
        <pt x="1275" y="195" on="0"/>
        <pt x="962" y="-10" on="0"/>
        <pt x="776" y="-10" on="1"/>
        <pt x="630" y="-9" on="0"/>
        <pt x="373" y="117" on="0"/>
        <pt x="199" y="322" on="0"/>
        <pt x="98" y="588" on="0"/>
      </contour>
      <contour>
        <pt x="776" y="31" on="1"/>
        <pt x="886" y="31" on="0"/>
        <pt x="1088" y="110" on="0"/>
        <pt x="1240" y="246" on="0"/>
        <pt x="1353" y="422" on="0"/>
        <pt x="1411" y="625" on="0"/>
        <pt x="1411" y="727" on="1"/>
        <pt x="1411" y="907" on="0"/>
        <pt x="1246" y="1226" on="0"/>
        <pt x="951" y="1423" on="0"/>
        <pt x="776" y="1423" on="1"/>
        <pt x="638" y="1423" on="0"/>
        <pt x="396" y="1302" on="0"/>
        <pt x="233" y="1106" on="0"/>
        <pt x="139" y="856" on="0"/>
        <pt x="139" y="727" on="1"/>
        <pt x="139" y="592" on="0"/>
        <pt x="236" y="339" on="0"/>
        <pt x="402" y="147" on="0"/>
        <pt x="641" y="31" on="0"/>
      </contour>
    </TTGlyph>
    <TTGlyph name="Odieresis" xMin="98" yMin="-10" xMax="1452" yMax="1880">
      <contour>
        <pt x="637" y="1722" on="1"/>
        <pt x="637" y="1880" on="1"/>
        <pt x="678" y="1880" on="1"/>
        <pt x="678" y="1722" on="1"/>
      </contour>
      <contour>
        <pt x="874" y="1722" on="1"/>
        <pt x="874" y="1880" on="1"/>
        <pt x="915" y="1880" on="1"/>
        <pt x="915" y="1722" on="1"/>
      </contour>
      <contour>
        <pt x="98" y="727" on="1"/>
        <pt x="98" y="919" on="0"/>
        <pt x="275" y="1257" on="0"/>
        <pt x="589" y="1464" on="0"/>
        <pt x="776" y="1464" on="1"/>
        <pt x="921" y="1464" on="0"/>
        <pt x="1179" y="1335" on="0"/>
        <pt x="1352" y="1127" on="0"/>
        <pt x="1452" y="863" on="0"/>
        <pt x="1452" y="727" on="1"/>
        <pt x="1452" y="533" on="0"/>
        <pt x="1275" y="195" on="0"/>
        <pt x="962" y="-10" on="0"/>
        <pt x="776" y="-10" on="1"/>
        <pt x="630" y="-9" on="0"/>
        <pt x="373" y="117" on="0"/>
        <pt x="199" y="322" on="0"/>
        <pt x="98" y="588" on="0"/>
      </contour>
      <contour>
        <pt x="776" y="31" on="1"/>
        <pt x="886" y="31" on="0"/>
        <pt x="1088" y="110" on="0"/>
        <pt x="1240" y="246" on="0"/>
        <pt x="1353" y="422" on="0"/>
        <pt x="1411" y="625" on="0"/>
        <pt x="1411" y="727" on="1"/>
        <pt x="1411" y="907" on="0"/>
        <pt x="1246" y="1226" on="0"/>
        <pt x="951" y="1423" on="0"/>
        <pt x="776" y="1423" on="1"/>
        <pt x="638" y="1423" on="0"/>
        <pt x="396" y="1302" on="0"/>
        <pt x="233" y="1106" on="0"/>
        <pt x="139" y="856" on="0"/>
        <pt x="139" y="727" on="1"/>
        <pt x="139" y="592" on="0"/>
        <pt x="236" y="339" on="0"/>
        <pt x="402" y="147" on="0"/>
        <pt x="641" y="31" on="0"/>
      </contour>
    </TTGlyph>
    <TTGlyph name="Odieresiscyrillic" xMin="98" yMin="-10" xMax="1452" yMax="1880">
      <contour>
        <pt x="637" y="1722" on="1"/>
        <pt x="637" y="1880" on="1"/>
        <pt x="678" y="1880" on="1"/>
        <pt x="678" y="1722" on="1"/>
      </contour>
      <contour>
        <pt x="874" y="1722" on="1"/>
        <pt x="874" y="1880" on="1"/>
        <pt x="915" y="1880" on="1"/>
        <pt x="915" y="1722" on="1"/>
      </contour>
      <contour>
        <pt x="98" y="727" on="1"/>
        <pt x="98" y="919" on="0"/>
        <pt x="275" y="1257" on="0"/>
        <pt x="589" y="1464" on="0"/>
        <pt x="776" y="1464" on="1"/>
        <pt x="921" y="1464" on="0"/>
        <pt x="1179" y="1335" on="0"/>
        <pt x="1352" y="1127" on="0"/>
        <pt x="1452" y="863" on="0"/>
        <pt x="1452" y="727" on="1"/>
        <pt x="1452" y="533" on="0"/>
        <pt x="1275" y="195" on="0"/>
        <pt x="962" y="-10" on="0"/>
        <pt x="776" y="-10" on="1"/>
        <pt x="630" y="-9" on="0"/>
        <pt x="373" y="117" on="0"/>
        <pt x="199" y="322" on="0"/>
        <pt x="98" y="588" on="0"/>
      </contour>
      <contour>
        <pt x="776" y="31" on="1"/>
        <pt x="886" y="31" on="0"/>
        <pt x="1088" y="110" on="0"/>
        <pt x="1240" y="246" on="0"/>
        <pt x="1353" y="422" on="0"/>
        <pt x="1411" y="625" on="0"/>
        <pt x="1411" y="727" on="1"/>
        <pt x="1411" y="907" on="0"/>
        <pt x="1246" y="1226" on="0"/>
        <pt x="951" y="1423" on="0"/>
        <pt x="776" y="1423" on="1"/>
        <pt x="638" y="1423" on="0"/>
        <pt x="396" y="1302" on="0"/>
        <pt x="233" y="1106" on="0"/>
        <pt x="139" y="856" on="0"/>
        <pt x="139" y="727" on="1"/>
        <pt x="139" y="592" on="0"/>
        <pt x="236" y="339" on="0"/>
        <pt x="402" y="147" on="0"/>
        <pt x="641" y="31" on="0"/>
      </contour>
    </TTGlyph>
    <TTGlyph name="Odieresismacron" xMin="98" yMin="-10" xMax="1452" yMax="2243">
      <contour>
        <pt x="489" y="2202" on="1"/>
        <pt x="489" y="2243" on="1"/>
        <pt x="1063" y="2243" on="1"/>
        <pt x="1063" y="2202" on="1"/>
      </contour>
      <contour>
        <pt x="637" y="1722" on="1"/>
        <pt x="637" y="1880" on="1"/>
        <pt x="678" y="1880" on="1"/>
        <pt x="678" y="1722" on="1"/>
      </contour>
      <contour>
        <pt x="874" y="1722" on="1"/>
        <pt x="874" y="1880" on="1"/>
        <pt x="915" y="1880" on="1"/>
        <pt x="915" y="1722" on="1"/>
      </contour>
      <contour>
        <pt x="98" y="727" on="1"/>
        <pt x="98" y="919" on="0"/>
        <pt x="275" y="1257" on="0"/>
        <pt x="589" y="1464" on="0"/>
        <pt x="776" y="1464" on="1"/>
        <pt x="921" y="1464" on="0"/>
        <pt x="1179" y="1335" on="0"/>
        <pt x="1352" y="1127" on="0"/>
        <pt x="1452" y="863" on="0"/>
        <pt x="1452" y="727" on="1"/>
        <pt x="1452" y="533" on="0"/>
        <pt x="1275" y="195" on="0"/>
        <pt x="962" y="-10" on="0"/>
        <pt x="776" y="-10" on="1"/>
        <pt x="630" y="-9" on="0"/>
        <pt x="373" y="117" on="0"/>
        <pt x="199" y="322" on="0"/>
        <pt x="98" y="588" on="0"/>
      </contour>
      <contour>
        <pt x="776" y="31" on="1"/>
        <pt x="886" y="31" on="0"/>
        <pt x="1088" y="110" on="0"/>
        <pt x="1240" y="246" on="0"/>
        <pt x="1353" y="422" on="0"/>
        <pt x="1411" y="625" on="0"/>
        <pt x="1411" y="727" on="1"/>
        <pt x="1411" y="907" on="0"/>
        <pt x="1246" y="1226" on="0"/>
        <pt x="951" y="1423" on="0"/>
        <pt x="776" y="1423" on="1"/>
        <pt x="638" y="1423" on="0"/>
        <pt x="396" y="1302" on="0"/>
        <pt x="233" y="1106" on="0"/>
        <pt x="139" y="856" on="0"/>
        <pt x="139" y="727" on="1"/>
        <pt x="139" y="592" on="0"/>
        <pt x="236" y="339" on="0"/>
        <pt x="402" y="147" on="0"/>
        <pt x="641" y="31" on="0"/>
      </contour>
    </TTGlyph>
    <TTGlyph name="Odotabovemacron" xMin="98" yMin="-10" xMax="1452" yMax="2263">
      <contour>
        <pt x="489" y="2222" on="1"/>
        <pt x="489" y="2263" on="1"/>
        <pt x="1063" y="2263" on="1"/>
        <pt x="1063" y="2222" on="1"/>
      </contour>
      <contour>
        <pt x="756" y="1722" on="1"/>
        <pt x="756" y="1880" on="1"/>
        <pt x="797" y="1880" on="1"/>
        <pt x="797" y="1722" on="1"/>
      </contour>
      <contour>
        <pt x="98" y="727" on="1"/>
        <pt x="98" y="919" on="0"/>
        <pt x="275" y="1257" on="0"/>
        <pt x="589" y="1464" on="0"/>
        <pt x="776" y="1464" on="1"/>
        <pt x="921" y="1464" on="0"/>
        <pt x="1179" y="1335" on="0"/>
        <pt x="1352" y="1127" on="0"/>
        <pt x="1452" y="863" on="0"/>
        <pt x="1452" y="727" on="1"/>
        <pt x="1452" y="533" on="0"/>
        <pt x="1275" y="195" on="0"/>
        <pt x="962" y="-10" on="0"/>
        <pt x="776" y="-10" on="1"/>
        <pt x="630" y="-9" on="0"/>
        <pt x="373" y="117" on="0"/>
        <pt x="199" y="322" on="0"/>
        <pt x="98" y="588" on="0"/>
      </contour>
      <contour>
        <pt x="776" y="31" on="1"/>
        <pt x="886" y="31" on="0"/>
        <pt x="1088" y="110" on="0"/>
        <pt x="1240" y="246" on="0"/>
        <pt x="1353" y="422" on="0"/>
        <pt x="1411" y="625" on="0"/>
        <pt x="1411" y="727" on="1"/>
        <pt x="1411" y="907" on="0"/>
        <pt x="1246" y="1226" on="0"/>
        <pt x="951" y="1423" on="0"/>
        <pt x="776" y="1423" on="1"/>
        <pt x="638" y="1423" on="0"/>
        <pt x="396" y="1302" on="0"/>
        <pt x="233" y="1106" on="0"/>
        <pt x="139" y="856" on="0"/>
        <pt x="139" y="727" on="1"/>
        <pt x="139" y="592" on="0"/>
        <pt x="236" y="339" on="0"/>
        <pt x="402" y="147" on="0"/>
        <pt x="641" y="31" on="0"/>
      </contour>
    </TTGlyph>
    <TTGlyph name="Odotbelow" xMin="98" yMin="-260" xMax="1452" yMax="1464">
      <contour>
        <pt x="98" y="727" on="1"/>
        <pt x="98" y="919" on="0"/>
        <pt x="275" y="1257" on="0"/>
        <pt x="589" y="1464" on="0"/>
        <pt x="776" y="1464" on="1"/>
        <pt x="921" y="1464" on="0"/>
        <pt x="1179" y="1335" on="0"/>
        <pt x="1352" y="1127" on="0"/>
        <pt x="1452" y="863" on="0"/>
        <pt x="1452" y="727" on="1"/>
        <pt x="1452" y="533" on="0"/>
        <pt x="1275" y="195" on="0"/>
        <pt x="962" y="-10" on="0"/>
        <pt x="776" y="-10" on="1"/>
        <pt x="630" y="-9" on="0"/>
        <pt x="373" y="117" on="0"/>
        <pt x="199" y="322" on="0"/>
        <pt x="98" y="588" on="0"/>
      </contour>
      <contour>
        <pt x="776" y="31" on="1"/>
        <pt x="886" y="31" on="0"/>
        <pt x="1088" y="110" on="0"/>
        <pt x="1240" y="246" on="0"/>
        <pt x="1353" y="422" on="0"/>
        <pt x="1411" y="625" on="0"/>
        <pt x="1411" y="727" on="1"/>
        <pt x="1411" y="907" on="0"/>
        <pt x="1246" y="1226" on="0"/>
        <pt x="951" y="1423" on="0"/>
        <pt x="776" y="1423" on="1"/>
        <pt x="638" y="1423" on="0"/>
        <pt x="396" y="1302" on="0"/>
        <pt x="233" y="1106" on="0"/>
        <pt x="139" y="856" on="0"/>
        <pt x="139" y="727" on="1"/>
        <pt x="139" y="592" on="0"/>
        <pt x="236" y="339" on="0"/>
        <pt x="402" y="147" on="0"/>
        <pt x="641" y="31" on="0"/>
      </contour>
      <contour>
        <pt x="756" y="-260" on="1"/>
        <pt x="756" y="-102" on="1"/>
        <pt x="797" y="-102" on="1"/>
        <pt x="797" y="-260" on="1"/>
      </contour>
    </TTGlyph>
    <TTGlyph name="Ograve" xMin="98" yMin="-10" xMax="1452" yMax="1880">
      <contour>
        <pt x="637" y="1880" on="1"/>
        <pt x="705" y="1880" on="1"/>
        <pt x="838" y="1731" on="1"/>
        <pt x="805" y="1706" on="1"/>
      </contour>
      <contour>
        <pt x="98" y="727" on="1"/>
        <pt x="98" y="919" on="0"/>
        <pt x="275" y="1257" on="0"/>
        <pt x="589" y="1464" on="0"/>
        <pt x="776" y="1464" on="1"/>
        <pt x="921" y="1464" on="0"/>
        <pt x="1179" y="1335" on="0"/>
        <pt x="1352" y="1127" on="0"/>
        <pt x="1452" y="863" on="0"/>
        <pt x="1452" y="727" on="1"/>
        <pt x="1452" y="533" on="0"/>
        <pt x="1275" y="195" on="0"/>
        <pt x="962" y="-10" on="0"/>
        <pt x="776" y="-10" on="1"/>
        <pt x="630" y="-9" on="0"/>
        <pt x="373" y="117" on="0"/>
        <pt x="199" y="322" on="0"/>
        <pt x="98" y="588" on="0"/>
      </contour>
      <contour>
        <pt x="776" y="31" on="1"/>
        <pt x="886" y="31" on="0"/>
        <pt x="1088" y="110" on="0"/>
        <pt x="1240" y="246" on="0"/>
        <pt x="1353" y="422" on="0"/>
        <pt x="1411" y="625" on="0"/>
        <pt x="1411" y="727" on="1"/>
        <pt x="1411" y="907" on="0"/>
        <pt x="1246" y="1226" on="0"/>
        <pt x="951" y="1423" on="0"/>
        <pt x="776" y="1423" on="1"/>
        <pt x="638" y="1423" on="0"/>
        <pt x="396" y="1302" on="0"/>
        <pt x="233" y="1106" on="0"/>
        <pt x="139" y="856" on="0"/>
        <pt x="139" y="727" on="1"/>
        <pt x="139" y="592" on="0"/>
        <pt x="236" y="339" on="0"/>
        <pt x="402" y="147" on="0"/>
        <pt x="641" y="31" on="0"/>
      </contour>
    </TTGlyph>
    <TTGlyph name="Ohm" xMin="100" yMin="0" xMax="1477" yMax="1464">
      <contour>
        <pt x="100" y="43" on="1"/>
        <pt x="549" y="43" on="1"/>
        <pt x="346" y="134" on="0"/>
        <pt x="111" y="519" on="0"/>
        <pt x="111" y="748" on="1"/>
        <pt x="111" y="936" on="0"/>
        <pt x="284" y="1263" on="0"/>
        <pt x="598" y="1464" on="0"/>
        <pt x="788" y="1464" on="1"/>
        <pt x="931" y="1464" on="0"/>
        <pt x="1186" y="1346" on="0"/>
        <pt x="1363" y="1149" on="0"/>
        <pt x="1466" y="888" on="0"/>
        <pt x="1466" y="748" on="1"/>
        <pt x="1466" y="519" on="0"/>
        <pt x="1231" y="134" on="0"/>
        <pt x="1028" y="43" on="1"/>
        <pt x="1477" y="43" on="1"/>
        <pt x="1477" y="0" on="1"/>
        <pt x="885" y="0" on="1"/>
        <pt x="885" y="43" on="1"/>
        <pt x="1012" y="68" on="0"/>
        <pt x="1221" y="213" on="0"/>
        <pt x="1352" y="410" on="0"/>
        <pt x="1423" y="635" on="0"/>
        <pt x="1423" y="748" on="1"/>
        <pt x="1423" y="874" on="0"/>
        <pt x="1333" y="1114" on="0"/>
        <pt x="1174" y="1303" on="0"/>
        <pt x="930" y="1419" on="0"/>
        <pt x="788" y="1419" on="1"/>
        <pt x="673" y="1419" on="0"/>
        <pt x="470" y="1344" on="0"/>
        <pt x="319" y="1214" on="0"/>
        <pt x="209" y="1043" on="0"/>
        <pt x="154" y="848" on="0"/>
        <pt x="154" y="748" on="1"/>
        <pt x="154" y="635" on="0"/>
        <pt x="225" y="410" on="0"/>
        <pt x="356" y="213" on="0"/>
        <pt x="565" y="68" on="0"/>
        <pt x="692" y="43" on="1"/>
        <pt x="692" y="0" on="1"/>
        <pt x="100" y="0" on="1"/>
      </contour>
    </TTGlyph>
    <TTGlyph name="Ohookabove" xMin="98" yMin="-10" xMax="1452" yMax="1870">
      <contour>
        <pt x="678" y="1782" on="1"/>
        <pt x="653" y="1808" on="1"/>
        <pt x="690" y="1841" on="0"/>
        <pt x="743" y="1870" on="0"/>
        <pt x="780" y="1870" on="1"/>
        <pt x="831" y="1870" on="0"/>
        <pt x="897" y="1807" on="0"/>
        <pt x="897" y="1753" on="1"/>
        <pt x="897" y="1742" on="0"/>
        <pt x="894" y="1722" on="0"/>
        <pt x="884" y="1701" on="0"/>
        <pt x="876" y="1687" on="0"/>
        <pt x="857" y="1663" on="0"/>
        <pt x="847" y="1652" on="0"/>
        <pt x="821" y="1622" on="0"/>
        <pt x="815" y="1616" on="1"/>
        <pt x="791" y="1638" on="1"/>
        <pt x="828" y="1680" on="0"/>
        <pt x="860" y="1730" on="0"/>
        <pt x="860" y="1753" on="1"/>
        <pt x="860" y="1788" on="0"/>
        <pt x="818" y="1833" on="0"/>
        <pt x="776" y="1833" on="1"/>
        <pt x="750" y="1833" on="0"/>
        <pt x="713" y="1812" on="0"/>
      </contour>
      <contour>
        <pt x="98" y="727" on="1"/>
        <pt x="98" y="919" on="0"/>
        <pt x="275" y="1257" on="0"/>
        <pt x="589" y="1464" on="0"/>
        <pt x="776" y="1464" on="1"/>
        <pt x="921" y="1464" on="0"/>
        <pt x="1179" y="1335" on="0"/>
        <pt x="1352" y="1127" on="0"/>
        <pt x="1452" y="863" on="0"/>
        <pt x="1452" y="727" on="1"/>
        <pt x="1452" y="533" on="0"/>
        <pt x="1275" y="195" on="0"/>
        <pt x="962" y="-10" on="0"/>
        <pt x="776" y="-10" on="1"/>
        <pt x="630" y="-9" on="0"/>
        <pt x="373" y="117" on="0"/>
        <pt x="199" y="322" on="0"/>
        <pt x="98" y="588" on="0"/>
      </contour>
      <contour>
        <pt x="776" y="31" on="1"/>
        <pt x="886" y="31" on="0"/>
        <pt x="1088" y="110" on="0"/>
        <pt x="1240" y="246" on="0"/>
        <pt x="1353" y="422" on="0"/>
        <pt x="1411" y="625" on="0"/>
        <pt x="1411" y="727" on="1"/>
        <pt x="1411" y="907" on="0"/>
        <pt x="1246" y="1226" on="0"/>
        <pt x="951" y="1423" on="0"/>
        <pt x="776" y="1423" on="1"/>
        <pt x="638" y="1423" on="0"/>
        <pt x="396" y="1302" on="0"/>
        <pt x="233" y="1106" on="0"/>
        <pt x="139" y="856" on="0"/>
        <pt x="139" y="727" on="1"/>
        <pt x="139" y="592" on="0"/>
        <pt x="236" y="339" on="0"/>
        <pt x="402" y="147" on="0"/>
        <pt x="641" y="31" on="0"/>
      </contour>
    </TTGlyph>
    <TTGlyph name="Ohorn" xMin="98" yMin="-10" xMax="1452" yMax="1626">
      <contour>
        <pt x="993" y="1425" on="1"/>
        <pt x="1199" y="1347" on="0"/>
        <pt x="1452" y="952" on="0"/>
        <pt x="1452" y="727" on="1"/>
        <pt x="1452" y="533" on="0"/>
        <pt x="1275" y="195" on="0"/>
        <pt x="962" y="-10" on="0"/>
        <pt x="776" y="-10" on="1"/>
        <pt x="630" y="-9" on="0"/>
        <pt x="373" y="117" on="0"/>
        <pt x="199" y="322" on="0"/>
        <pt x="98" y="588" on="0"/>
        <pt x="98" y="727" on="1"/>
        <pt x="98" y="919" on="0"/>
        <pt x="275" y="1257" on="0"/>
        <pt x="589" y="1464" on="0"/>
        <pt x="776" y="1464" on="1"/>
        <pt x="836" y="1464" on="0"/>
        <pt x="895" y="1452" on="1"/>
        <pt x="895" y="1454" on="1"/>
        <pt x="950" y="1454" on="0"/>
        <pt x="1041" y="1479" on="0"/>
        <pt x="1061" y="1501" on="1"/>
        <pt x="1091" y="1539" on="0"/>
        <pt x="1094" y="1626" on="1"/>
        <pt x="1139" y="1626" on="1"/>
        <pt x="1135" y="1579" on="0"/>
        <pt x="1130" y="1541" on="0"/>
        <pt x="1112" y="1496" on="0"/>
        <pt x="1094" y="1475" on="1"/>
        <pt x="1068" y="1442" on="0"/>
      </contour>
      <contour>
        <pt x="776" y="31" on="1"/>
        <pt x="886" y="31" on="0"/>
        <pt x="1088" y="110" on="0"/>
        <pt x="1240" y="246" on="0"/>
        <pt x="1353" y="422" on="0"/>
        <pt x="1411" y="625" on="0"/>
        <pt x="1411" y="727" on="1"/>
        <pt x="1411" y="907" on="0"/>
        <pt x="1246" y="1226" on="0"/>
        <pt x="951" y="1423" on="0"/>
        <pt x="776" y="1423" on="1"/>
        <pt x="638" y="1423" on="0"/>
        <pt x="396" y="1302" on="0"/>
        <pt x="233" y="1106" on="0"/>
        <pt x="139" y="856" on="0"/>
        <pt x="139" y="727" on="1"/>
        <pt x="139" y="592" on="0"/>
        <pt x="236" y="339" on="0"/>
        <pt x="402" y="147" on="0"/>
        <pt x="641" y="31" on="0"/>
      </contour>
    </TTGlyph>
    <TTGlyph name="Ohornacute" xMin="98" yMin="-10" xMax="1452" yMax="1880">
      <contour>
        <pt x="956" y="1880" on="1"/>
        <pt x="788" y="1706" on="1"/>
        <pt x="756" y="1731" on="1"/>
        <pt x="887" y="1880" on="1"/>
      </contour>
      <contour>
        <pt x="993" y="1425" on="1"/>
        <pt x="1199" y="1347" on="0"/>
        <pt x="1452" y="952" on="0"/>
        <pt x="1452" y="727" on="1"/>
        <pt x="1452" y="533" on="0"/>
        <pt x="1275" y="195" on="0"/>
        <pt x="962" y="-10" on="0"/>
        <pt x="776" y="-10" on="1"/>
        <pt x="630" y="-9" on="0"/>
        <pt x="373" y="117" on="0"/>
        <pt x="199" y="322" on="0"/>
        <pt x="98" y="588" on="0"/>
        <pt x="98" y="727" on="1"/>
        <pt x="98" y="919" on="0"/>
        <pt x="275" y="1257" on="0"/>
        <pt x="589" y="1464" on="0"/>
        <pt x="776" y="1464" on="1"/>
        <pt x="836" y="1464" on="0"/>
        <pt x="895" y="1452" on="1"/>
        <pt x="895" y="1454" on="1"/>
        <pt x="950" y="1454" on="0"/>
        <pt x="1041" y="1479" on="0"/>
        <pt x="1061" y="1501" on="1"/>
        <pt x="1091" y="1539" on="0"/>
        <pt x="1094" y="1626" on="1"/>
        <pt x="1139" y="1626" on="1"/>
        <pt x="1135" y="1579" on="0"/>
        <pt x="1130" y="1541" on="0"/>
        <pt x="1112" y="1496" on="0"/>
        <pt x="1094" y="1475" on="1"/>
        <pt x="1068" y="1442" on="0"/>
      </contour>
      <contour>
        <pt x="776" y="31" on="1"/>
        <pt x="886" y="31" on="0"/>
        <pt x="1088" y="110" on="0"/>
        <pt x="1240" y="246" on="0"/>
        <pt x="1353" y="422" on="0"/>
        <pt x="1411" y="625" on="0"/>
        <pt x="1411" y="727" on="1"/>
        <pt x="1411" y="907" on="0"/>
        <pt x="1246" y="1226" on="0"/>
        <pt x="951" y="1423" on="0"/>
        <pt x="776" y="1423" on="1"/>
        <pt x="638" y="1423" on="0"/>
        <pt x="396" y="1302" on="0"/>
        <pt x="233" y="1106" on="0"/>
        <pt x="139" y="856" on="0"/>
        <pt x="139" y="727" on="1"/>
        <pt x="139" y="592" on="0"/>
        <pt x="236" y="339" on="0"/>
        <pt x="402" y="147" on="0"/>
        <pt x="641" y="31" on="0"/>
      </contour>
    </TTGlyph>
    <TTGlyph name="Ohorndotbelow" xMin="98" yMin="-260" xMax="1452" yMax="1626">
      <contour>
        <pt x="993" y="1425" on="1"/>
        <pt x="1199" y="1347" on="0"/>
        <pt x="1452" y="952" on="0"/>
        <pt x="1452" y="727" on="1"/>
        <pt x="1452" y="533" on="0"/>
        <pt x="1275" y="195" on="0"/>
        <pt x="962" y="-10" on="0"/>
        <pt x="776" y="-10" on="1"/>
        <pt x="630" y="-9" on="0"/>
        <pt x="373" y="117" on="0"/>
        <pt x="199" y="322" on="0"/>
        <pt x="98" y="588" on="0"/>
        <pt x="98" y="727" on="1"/>
        <pt x="98" y="919" on="0"/>
        <pt x="275" y="1257" on="0"/>
        <pt x="589" y="1464" on="0"/>
        <pt x="776" y="1464" on="1"/>
        <pt x="836" y="1464" on="0"/>
        <pt x="895" y="1452" on="1"/>
        <pt x="895" y="1454" on="1"/>
        <pt x="950" y="1454" on="0"/>
        <pt x="1041" y="1479" on="0"/>
        <pt x="1061" y="1501" on="1"/>
        <pt x="1091" y="1539" on="0"/>
        <pt x="1094" y="1626" on="1"/>
        <pt x="1139" y="1626" on="1"/>
        <pt x="1135" y="1579" on="0"/>
        <pt x="1130" y="1541" on="0"/>
        <pt x="1112" y="1496" on="0"/>
        <pt x="1094" y="1475" on="1"/>
        <pt x="1068" y="1442" on="0"/>
      </contour>
      <contour>
        <pt x="776" y="31" on="1"/>
        <pt x="886" y="31" on="0"/>
        <pt x="1088" y="110" on="0"/>
        <pt x="1240" y="246" on="0"/>
        <pt x="1353" y="422" on="0"/>
        <pt x="1411" y="625" on="0"/>
        <pt x="1411" y="727" on="1"/>
        <pt x="1411" y="907" on="0"/>
        <pt x="1246" y="1226" on="0"/>
        <pt x="951" y="1423" on="0"/>
        <pt x="776" y="1423" on="1"/>
        <pt x="638" y="1423" on="0"/>
        <pt x="396" y="1302" on="0"/>
        <pt x="233" y="1106" on="0"/>
        <pt x="139" y="856" on="0"/>
        <pt x="139" y="727" on="1"/>
        <pt x="139" y="592" on="0"/>
        <pt x="236" y="339" on="0"/>
        <pt x="402" y="147" on="0"/>
        <pt x="641" y="31" on="0"/>
      </contour>
      <contour>
        <pt x="756" y="-260" on="1"/>
        <pt x="756" y="-102" on="1"/>
        <pt x="797" y="-102" on="1"/>
        <pt x="797" y="-260" on="1"/>
      </contour>
    </TTGlyph>
</ttFont>
